<svg xmlns="http://www.w3.org/2000/svg"><defs><font id="BeVietnamPro-Black" horiz-adv-x="0"><font-face font-family="Be Vietnam Pro Black" font-weight="900" ascent="800" descent="-200" x-height="530" cap-height="740" bbox="-160 -263 1233 1239" underline-thickness="50" underline-position="-125" unicode-range="U+000D-2265"/><glyph glyph-name="f_f.liga" unicode="ff" horiz-adv-x="808" d="M112 0v380H30v150h82v26q0 27 8 63.5t29.5 71 63 57T321 770q34 0 56-4.5l22-4.5V632l-9.5 1-17.5 1q-38 0-54-20.5T302 556v-26h194v26q0 27 8 63.5t29.5 71 63 57T705 770q34 0 56-4.5l22-4.5V632l-9.5 1-17.5 1q-38 0-54-20.5T686 556v-26h97V380h-97V0H496v380H302V0H112z"/><glyph glyph-name="f_f_i.liga" unicode="ffi" horiz-adv-x="1127" d="M968 583q-47 0-77.5 30.5T860 686q0 44 30.5 74t77.5 30 78-30 31-74q0-42-31-72.5T968 583zM112 0v380H30v150h82v26q0 27 8 63.5t29.5 71 63 57T321 770q34 0 56-4.5l22-4.5V632l-9.5 1-17.5 1q-38 0-54-20.5T302 556v-26h194v26q0 27 8 63.5t29.5 71 63 57T705 770q34 0 56-4.5l22-4.5V632l-9.5 1-17.5 1q-38 0-54-20.5T686 556v-26h377V0H873v380H686V0H496v380H302V0H112z"/><glyph glyph-name="f_i.liga" unicode="fi" horiz-adv-x="743" d="M584 583q-47 0-77.5 30.5T476 686q0 44 30.5 74t77.5 30 78-30 31-74q0-42-31-72.5T584 583zM112 0v380H30v150h82v26q0 27 8 63.5t29.5 71 63 57T321 770q34 0 56-4.5l22-4.5V632l-9.5 1-17.5 1q-38 0-54-20.5T302 556v-26h377V0H489v380H302V0H112z"/><glyph glyph-name="colon_b_e_colon.liga" unicode=":be:" horiz-adv-x="878" d="M123 458l23 177h160q43 0 66.5 16.5t31 43T407 750q52-14 81-54.5t29-96.5q0-38-16.5-70t-55-51.5T340 458H123zM64 0l36 267h229q68 0 106 25t49 65-1 83q50-10 89.5-41.5t62.5-77 23-99.5q0-61-29.5-111.5T542 30 404 0H64z"/><glyph glyph-name="colon_d_d_colon.liga" unicode=":dd:" horiz-adv-x="667" d="M257 140q-61 0-101.5 29.5t-61 76.5T74 343q0 51 20.5 97.5t61 76.5T257 547q42 0 67.5-13.5t37-26.5 10.5-12h7v77h-97v88h97v40h158v-40h61v-88h-61V145H379v47h-7q1 1-10.5-12t-37-26.5T257 140zm52 125q38 0 57 25t19 53q0 30-19 55t-57 25q-37 0-56-25t-19-55q0-28 19-53t56-25zM69 0v75h530V0H69z"/><glyph glyph-name="colon_s_t_a_r_colon.liga" unicode=":star:" horiz-adv-x="831" d="M215 51l35 223L90 434l221 37 103 201 103-199 224-38-158-157 35-226-200 104z"/><glyph glyph-name=".notdef" horiz-adv-x="500"/><glyph glyph-name=".null"/><glyph glyph-name="nonmarkingreturn" horiz-adv-x="333"/><glyph glyph-name="CR" horiz-adv-x="600"/><glyph glyph-name="space" horiz-adv-x="230"/><glyph glyph-name="exclam" unicode="!" horiz-adv-x="381" d="M112 237L85 740h211l-31-503H112zM190-9q-42 0-68 27.5T96 85t26 66.5 68 27.5q40 0 67-27.5T284 85t-27-66.5T190-9z"/><glyph glyph-name="quotedbl" unicode="&quot;" horiz-adv-x="440" d="M249 502l10 238h151l-61-238H249zm-189 0l10 238h151l-61-238H60z"/><glyph glyph-name="numbersign" unicode="#" horiz-adv-x="871" d="M147 0l31 156H45l32 152h132l25 125H104l32 152h129l31 155h152l-31-155h125l31 155h152l-31-155h132l-32-152H663l-25-125h129l-32-152H607L576 0H424l31 156H330L299 0H147zm214 308h125l25 125H386z"/><glyph glyph-name="dollar" unicode="$" horiz-adv-x="652" d="M298-94v84q-66 5-111.5 24.5t-75 47.5-46 58.5-24 57.5-9.5 43.5L30 238h178l2.5-12.5 11-30.5 26.5-34.5 50-23.5v172l-9 2q-35 8-76 20.5t-78.5 35-61 60.5T50 524q0 66 32.5 114.5T171 715t127 34v83h80v-84q68-7 112-32t70-57.5 38.5-63.5 16.5-51.5l4-20.5H445l-4 15.5-18.5 35L378 604V446l17-4q32-7 71-19.5t76-36 60.5-63T626 224q0-96-66.5-159T378-9v-85h-80zm-76 627q0-26 18.5-41.5T298 465v144q-36-6-56-27t-20-49zm230-314q0 28-19 44.5T378 290V138q35 8 54.5 30t19.5 51z"/><glyph glyph-name="percent" unicode="%" horiz-adv-x="885" d="M222 411q-59 0-98.5 25t-59 64T45 581t19.5 81 59 63.5T222 750t98-24.5 58.5-63.5 19.5-81-19.5-81-58.5-64-98-25zM156 0l432 740h141L297 0H156zm65 514q32 0 47.5 20.5T284 580t-15.5 45.5T221 646q-31 0-47-20.5T158 580t16-45.5 47-20.5zM664-10q-59 0-98.5 25t-59 63.5T487 160q0 42 19.5 81t59 63.5T664 329t98-24.5 58.5-63.5 19.5-81q0-43-19.5-81.5T762 15t-98-25zm-1 103q32 0 47.5 20.5T726 159t-15.5 45.5T663 225q-31 0-47-20.5T600 159t16-45.5T663 93z"/><glyph glyph-name="ampersand" unicode="&amp;" horiz-adv-x="778" d="M309-10q-77 0-139 27.5T72 96 36 219q0 64 30.5 110.5T160 413q-20 26-37 62t-17 85q0 63 31 105.5t80 63.5 102 21 100-20 77-59 30-96q0-46-18-80t-48.5-59.5T394 390l99-105q7 28 11.5 61t4.5 72h147q0-78-13.5-140.5T605 167L760 2H530l-36 39q-40-26-87.5-38.5T309-10zm-50 577q0-23 13.5-44.5T304 482q27 13 48.5 33.5T374 570q0 28-18 42.5T317 627t-39.5-15-18.5-45zm-53-335q0-37 28-68t85-31q41 0 76 18L250 312q-21-17-32.5-36.5T206 232z"/><glyph glyph-name="quotesingle" unicode="'" horiz-adv-x="251" d="M60 502l10 238h151l-61-238H60z"/><glyph glyph-name="parenleft" unicode="(" horiz-adv-x="463" d="M432-241q-96 9-170.5 55.5T135-65 56.5 101 30 293t26.5 192T135 651t126.5 120.5T432 827V656q-42-6-79.5-37.5t-67-82-46.5-113T222 293t17-130.5 46.5-113 67-82T432-70v-171z"/><glyph glyph-name="parenright" unicode=")" horiz-adv-x="463" d="M31 827q96-9 170.5-55.5T328 651t78.5-166T433 293t-26.5-192T328-65 201.5-185.5 31-241v171q42 6 79.5 37.5t67 82 46.5 113T241 293t-17 130.5-46.5 113-67 82T31 656v171z"/><glyph glyph-name="asterisk" unicode="*" horiz-adv-x="524" d="M189 317L85 393l78 103-123 36 39 123 122-44-4 129h129l-4-129 122 44 40-123-124-36 79-103-105-76-72 106z"/><glyph glyph-name="plus" unicode="+" horiz-adv-x="681" d="M115 238v147h152v152h147V385h152V238H414V86H267v152H115z"/><glyph glyph-name="comma" unicode="," horiz-adv-x="375" d="M89-159l89 149q-41 3-67 31.5T85 89q0 41 28 70t73 29q44 0 74-28.5T290 83q0-25-12-55t-39-72.5T167-148l-8-11H89z"/><glyph glyph-name="hyphen" unicode="-" horiz-adv-x="606" d="M115 238v147h376V238H115z"/><glyph glyph-name="period" unicode="." horiz-adv-x="368" d="M184-10q-43 0-71 29.5T85 89q0 41 28 70t71 29 71-29 28-70q0-40-28-69.5T184-10z"/><glyph glyph-name="slash" unicode="/" horiz-adv-x="566" d="M30-201L379 833h167L197-201H30z"/><glyph glyph-name="zero" unicode="0" horiz-adv-x="716" d="M358-10q-78 0-138.5 29.5t-103 81.5T52 222 30 370t22 148 64.5 121 103 81.5T358 750t138.5-29.5 103-81.5T664 518t22-148-22-148-64.5-121-103-81.5T358-10zm0 168q57 0 93.5 53T488 370q0 107-36.5 159T358 581t-93.5-52T228 370q0-106 36.5-159t93.5-53z"/><glyph glyph-name="one" unicode="1" horiz-adv-x="461" d="M381 740V0H189v500H44v118l21 6q70 18 113.5 43.5T262 733l7 7h112z"/><glyph glyph-name="two" unicode="2" horiz-adv-x="673" d="M43 0v131l105 82q88 69 148.5 116t91.5 85 31 81q0 45-30.5 67.5T323 585q-38 0-68.5-26T224 478H40q0 69 24 120.5t65 85 93 50T330 750q79 0 142.5-30t101-84T611 509q0-68-33.5-124t-95-108.5T335 165h283V0H43z"/><glyph glyph-name="three" unicode="3" horiz-adv-x="694" d="M351-10q-77 0-129.5 17.5t-85 44.5-50 58-24 58-7.5 44.5L54 230h181l1.5-12.5 11-29 33-29L348 147q48 0 75.5 22t27.5 54q0 30-24.5 53.5T351 300H251v147h102q44 0 66.5 22.5T442 520q0 30-25 52t-69 22q-39 0-60-13.5T257.5 549t-11-31.5L245 504H68l1 18 8 46 23.5 59 47.5 59 80.5 46L350 750q54 0 104-14t90-41 63.5-66.5T631 539q0-48-20.5-81.5t-48.5-53-51-26.5v-7q33-12 63.5-32.5T624 287t19-77q0-70-40.5-119.5T496 15.5 351-10z"/><glyph glyph-name="four" unicode="4" horiz-adv-x="726" d="M389 0v137l-355 1v164l309 438h238V297h105V137H581V0H389zM219 297h170v243z"/><glyph glyph-name="five" unicode="5" horiz-adv-x="696" d="M352-10q-83 0-148.5 29.5t-103.5 84T60 233h178l3.5-13.5L256 188l32.5-31.5L347 143q56 0 83.5 33t27.5 73-27 73-82 33q-36 0-56.5-13.5T264 314l-8-14H66l70 440h461V574H262l-23-140h5l7.5 9 25 21.5 47 21.5 72.5 9q80 0 136-34.5t85-89.5 29-118q0-48-18-95t-55-85-92-60.5T352-10z"/><glyph glyph-name="six" unicode="6" horiz-adv-x="713" d="M368-10q-81 0-141 27.5t-99 75-58.5 108T50 327q0 75 25.5 150T153 613.5t133 99T478 750q42 0 72.5-4l30.5-4V573l-16 2-39 4-46 2q-91 0-154-43.5T251 410q11 17 32.5 37t55.5 33.5 85 13.5q79 0 132-34t80-88 27-114q0-49-18.5-96.5t-55-86.5-92-62T368-10zm2 156q53 0 79.5 32.5T476 251q0 39-26.5 71.5T370 355q-52 0-79-32.5T264 251q0-40 27-72.5t79-32.5z"/><glyph glyph-name="seven" unicode="7" horiz-adv-x="600" d="M137 0q6 111 32.5 204T233 369.5t73.5 124T369 574H23v166h557V605l-23.5-26-59-77-72-124.5-63-168L331 0H137z"/><glyph glyph-name="eight" unicode="8" horiz-adv-x="690" d="M344-10q-57 0-109.5 13T140 42.5t-66.5 66T49 202q0 51 20.5 85t47 54 47.5 28.5 22 8.5v7q-1 0-19 8t-41.5 26T84 467.5 66 543q0 65 38.5 111.5t102 71T344 750q75 0 138.5-25T584 654.5 622 545q0-46-18-76.5t-41.5-49T521 393t-19-8v-7q1 0 22-8.5t47.5-28.5 47-54 20.5-85q0-54-24.5-93.5t-66.5-66T453.5 3 344-10zm0 457q36 0 67 20t31 60q0 39-30.5 59T344 606q-36 0-66.5-20T247 526t30.5-59.5T344 447zm0-309q55 0 83 27.5t28 59.5-28 59-83 27-83-27-28-59 28-59.5 83-27.5z"/><glyph glyph-name="nine" unicode="9" horiz-adv-x="713" d="M345 750q81 0 141-27.5t99-75 58.5-108T663 413q0-75-25.5-150T560 126.5t-133-99T235-10q-42 0-72.5 4L132-2v169l16-2 39.5-4 45.5-2q91 0 154 43.5T462 330q-11-17-32.5-37T374 259.5 289 246q-78 0-131.5 34T77 368 50 482q0 49 18.5 96.5t55 86.5 92 62T345 750zm-2-156q-53 0-79.5-32.5T237 489q0-39 26.5-71.5T343 385t79.5 32.5T449 489q0 40-26.5 72.5T343 594z"/><glyph glyph-name="colon" unicode=":" horiz-adv-x="368" d="M184 342q-43 0-71 29.5T85 441q0 41 28 70t71 29 71-29 28-70q0-40-28-69.5T184 342zm0-352q-43 0-71 29.5T85 89q0 41 28 70t71 29 71-29 28-70q0-40-28-69.5T184-10z"/><glyph glyph-name="semicolon" unicode=";" horiz-adv-x="375" d="M188 342q-43 0-71 29.5T89 441q0 41 28 70t71 29 71-29 28-70q0-40-28-69.5T188 342zM89-159l89 149q-41 3-67 31.5T85 89q0 41 28 70t73 29q44 0 74-28.5T290 83q0-25-12-55t-39-72.5T167-148l-8-11H89z"/><glyph glyph-name="less" unicode="&lt;" horiz-adv-x="585" d="M515 98L70 287v109l445 189V433l-241-90 241-93V98z"/><glyph glyph-name="equal" unicode="=" horiz-adv-x="770" d="M115 339v153h540V339H115zm0-231v153h540V108H115z"/><glyph glyph-name="greater" unicode="&gt;" horiz-adv-x="585" d="M70 98v152l241 93-241 90v152l445-189V287z"/><glyph glyph-name="question" unicode="?" horiz-adv-x="653" d="M233 233v31q0 43 17.5 73.5t43 53.5 50.5 42 42.5 39.5T404 518q0 28-22 48t-59 20q-35 0-61-23t-26-73H54q0 89 39.5 146.5T196 722t134 28q74 0 134.5-28.5T561 642t36-119q0-49-17.5-83T536 382t-52.5-42.5-44-36T422 264v-31H233zm94-243q-42 0-68 27.5T233 84t26 66.5 68 27.5q40 0 67-27.5T421 84t-27-66.5T327-10z"/><glyph glyph-name="at" unicode="@" horiz-adv-x="1027" d="M528-190q-126 0-220 39.5T152.5-44t-92 151T30 279q0 90 31.5 176t94 155 155 109.5T524 760q96 0 181-30t151-87 103.5-138.5T997 320q0-75-22.5-135.5t-69-96.5T785 52q-44 0-74.5 11.5t-49 26-27 26L626 127h-10l-7.5-11.5-24-26-44-26L473 52q-65 0-108 32.5t-64 84T280 275t20.5 104.5 62 81T468 492q44 0 70-12.5t37.5-25.5l11.5-13h6v43h151V318q0-76 14.5-109.5T802 175q31 0 45 33t14 91q0 89-28.5 152.5t-77 103-108.5 58T524 631q-87 0-152-30t-109-80-66-112.5T175 281q0-64 21.5-125t65-109.5 109.5-77T525-59q66 0 118.5 13t83 26L757-7l48-121-18.5-9.5L732-159l-87.5-21.5L528-190zm-12 365q41 0 61.5 30.5T598 272q0 37-20.5 67T516 369q-40 0-61-30t-21-67q0-36 21-66.5t61-30.5z"/><glyph glyph-name="A" unicode="A" horiz-adv-x="791" d="M20 0l246 740h259L771 0H571l-39 124H259L220 0H20zm290 288h171l-85 273z"/><glyph glyph-name="B" unicode="B" horiz-adv-x="733" d="M60 0v740h380q73 0 122-24t74-65 25-92q0-67-35-105.5T546 402v-9q29-6 63.5-26t59-57.5T693 212q0-53-25-101.5T589.5 31 448 0H60zm340 581H252V452h148q38 0 57 17.5t19 47.5q0 29-19 46.5T400 581zm14-272H252V159h162q44 0 65 21t21 55-21 54-65 20z"/><glyph glyph-name="C" unicode="C" horiz-adv-x="783" d="M408-10q-94 0-165 32.5t-118 87T54 232 30 371t24 138.5T125 631t118 86.5T408 750q80 0 137-20t95-51.5 60.5-67 34-67 15-51.5l3.5-20H563l-5 16-20 37.5-46 37.5-82 16q-60 0-100.5-30.5T249 471t-20-100 20-100 60.5-79T410 161q51 0 82 16t46 37 20 37l5 16h190l-3.5-20-15-51.5-34-67-60.5-67L545 10 408-10z"/><glyph glyph-name="D" unicode="D" horiz-adv-x="766" d="M60 0v740h306q92 0 161.5-31.5t116-84.5T713 505t23-135-23-135-69.5-119-116-84.5T366 0H60zm297 572H252V171h105q65 0 106 29.5t60.5 75.5 19.5 96-19.5 95.5-60.5 75T357 572z"/><glyph glyph-name="E" unicode="E" horiz-adv-x="656" d="M60 0v740h536V574H252V454h299V296H252V166h349V0H60z"/><glyph glyph-name="F" unicode="F" horiz-adv-x="651" d="M60 0v740h536V574H252V414h299V255H252V0H60z"/><glyph glyph-name="G" unicode="G" horiz-adv-x="795" d="M414-10q-96 0-168 32t-120 86-72 122-24 139 24.5 139 73 122.5 121.5 87T419 750q77 0 132.5-19t92.5-49.5 59.5-64.5 34-64.5T753 503l4-19H567l-5.5 15-21 34-44.5 34-77 15q-63 0-105.5-30.5t-64-78.5T228 372t22-102.5 65.5-81T423 157q63 0 100.5 28.5T573 261H400v148h364v-61q0-117-45-197T595.5 30.5 414-10z"/><glyph glyph-name="H" unicode="H" horiz-adv-x="748" d="M60 0v740h192V462h244v278h192V0H496v298H252V0H60z"/><glyph glyph-name="I" unicode="I" horiz-adv-x="312" d="M60 0v740h192V0H60z"/><glyph glyph-name="J" unicode="J" horiz-adv-x="508" d="M158-10q-50 0-84 5L40 0v157l24-2.5 55-2.5q64 0 101.5 30T258 291v449h190V286q0-58-15-111.5t-48.5-95T295 14 158-10z"/><glyph glyph-name="K" unicode="K" horiz-adv-x="740" d="M60 0v740h192V444l227 296h232L426 387 720 0H479L252 309V0H60z"/><glyph glyph-name="L" unicode="L" horiz-adv-x="656" d="M60 0v740h192V166h349V0H60z"/><glyph glyph-name="M" unicode="M" horiz-adv-x="912" d="M60 0v740h260l137-338 145 338h250V0H662v441L544 162H368L250 443V0H60z"/><glyph glyph-name="N" unicode="N" horiz-adv-x="760" d="M60 0v740h177l273-411v411h190V0H521L250 390V0H60z"/><glyph glyph-name="O" unicode="O" horiz-adv-x="830" d="M415-10q-96 0-168 32.5t-120 87T54.5 232 30 371t24.5 138.5T127 631t120 86.5T415 750t168-32.5T703.5 631 776 509.5 800 371t-24-139-72.5-122.5-120.5-87T415-10zm0 171q62 0 103 30.5t61.5 79T600 371t-20.5 100-61.5 78.5T415 580q-61 0-102-30.5T251.5 471 231 371t20.5-100.5 61.5-79T415 161z"/><glyph glyph-name="P" unicode="P" horiz-adv-x="702" d="M60 0v740h333q95 0 158-36.5t94.5-93.5T677 490t-31.5-120.5-94.5-94T393 239H252V0H60zm332 573H252V405h140q46 0 68.5 26.5T483 489q0 32-22.5 58T392 573z"/><glyph glyph-name="Q" unicode="Q" horiz-adv-x="829" d="M415-10q-96 0-168 32.5t-120 87T54.5 232 30 371t24.5 138.5T127 631t120 86.5T415 750t168-32.5T703.5 631 776 509.5 800 371q0-69-22.5-135T710 117L809 0H618l-24 28q-38-18-82.5-28T415-10zm0 171q30 0 57 8L363 296l118 94 99-118q20 46 20 99 0 52-20.5 100T518 549.5 415 580q-61 0-102-30.5T251.5 471 231 371t20.5-100.5 61.5-79T415 161z"/><glyph glyph-name="R" unicode="R" horiz-adv-x="741" d="M60 0v740h326q83 0 146-27t98-79.5T665 504q0-75-34.5-127.5T536 297L680 0H469L344 268h-92V0H60zm323 575H252V421h131q40 0 65 20t25 57q0 38-25 57.5T383 575z"/><glyph glyph-name="S" unicode="S" horiz-adv-x="687" d="M355-10q-77 0-131.5 18t-90 46T77 114t-31 60-13 46l-3 18h194l4-14 17.5-32.5L287 159l76-14q59 0 82.5 22.5T469 216q0 24-17.5 38.5T391 276l-99 16q-64 11-121 35t-92.5 69T43 514q0 70 35.5 123T180 720t157 30q71 0 121-16.5t83-43 53-55.5 30-55.5 13-43l3-16.5H451l-3.5 11.5-15.5 26-35.5 26L333 595q-38 0-60.5-11t-32-27-9.5-32q0-29 27.5-42.5T326 462l104-17q62-10 114.5-35.5t84.5-70T661 228q0-69-36-123T521 20.5 355-10z"/><glyph glyph-name="T" unicode="T" horiz-adv-x="710" d="M259 0v574H35v166h640V574H451V0H259z"/><glyph glyph-name="U" unicode="U" horiz-adv-x="746" d="M373-10q-57 0-113 16T159 58t-72 95.5T60 300v440h192V300q0-54 29-92t92-38 92 38 29 92v440h192V300q0-87-27-146.5T587 58 486 6 373-10z"/><glyph glyph-name="V" unicode="V" horiz-adv-x="771" d="M256 0L10 740h200l176-562 175 562h200L515 0H256z"/><glyph glyph-name="W" unicode="W" horiz-adv-x="1091" d="M196 0L20 740h190l116-497 120 497h199l120-497 116 497h190L895 0H642l-96 406L449 0H196z"/><glyph glyph-name="X" unicode="X" horiz-adv-x="802" d="M45 0l222 370L46 740h228l126-229 128 229h228L531 370 757 0H528L400 230 274 0H45z"/><glyph glyph-name="Y" unicode="Y" horiz-adv-x="754" d="M281 0v247L20 740h210l147-296 146 296h211L473 247V0H281z"/><glyph glyph-name="Z" unicode="Z" horiz-adv-x="671" d="M39 0v133l339 440H39v167h592V608L290 168h341V0H39z"/><glyph glyph-name="bracketleft" unicode="[" horiz-adv-x="534" d="M60-221V863h374V702H255V-60h179v-161H60z"/><glyph glyph-name="backslash" unicode="\" horiz-adv-x="561" d="M531-201H364L15 833h167z"/><glyph glyph-name="bracketright" unicode="]" horiz-adv-x="534" d="M474 863V-221H100v161h179v762H100v161h374z"/><glyph glyph-name="asciicircum" unicode="^" horiz-adv-x="647" d="M115 551l135 189h147l135-189H391l-67 102-68-102H115z"/><glyph glyph-name="underscore" unicode="_" horiz-adv-x="758" d="M115-117V0h528v-117H115z"/><glyph glyph-name="grave" unicode="`" horiz-adv-x="346" d="M151 599L37 779h170l77-179z"/><glyph glyph-name="a" unicode="a" horiz-adv-x="668" d="M273 540q39 0 67-10.5t45.5-23.5 26-23.5L420 472h8v58h190V0H428v58h-8l-8.5-10.5-26-23.5L340 .5 273-10q-58 0-100.5 23.5t-71 63T59 165 45 265t14 100 42.5 88.5 71 63T273 540zm63-151q-33 0-55-18.5t-33-47-11-58.5 11-58.5 33-47 55-18.5 55 18.5 33 47 11 58.5-11 58.5-33 47-55 18.5z"/><glyph glyph-name="b" unicode="b" horiz-adv-x="678" d="M405-10q-39 0-67 10.5T292.5 24t-26 23.5L258 58h-8V0H60v760h190V472h8l8.5 10.5 26 23.5 45.5 23.5 67 10.5q58 0 100.5-23.5t71-63T619 365t14-100-14-100-42.5-88.5-71-63T405-10zm-63 151q34 0 55.5 18.5t32.5 47 11 58.5-11 58.5-32.5 47T342 389q-33 0-55-18.5t-33-47-11-58.5 11-58.5 33-47 55-18.5z"/><glyph glyph-name="c" unicode="c" horiz-adv-x="640" d="M331-10q-73 0-127 23t-89 62.5T62.5 164 45 265t17.5 101 52.5 88.5 89 62.5 127 23q76 0 125-21.5t77-53 41.5-63.5 17-53.5L595 327H420l-2.5 10-11 23-25 23-44.5 10q-51 0-76.5-37.5T235 265t25.5-90.5T337 137q28 0 44.5 10t25 23 11 23l2.5 10h175l-3.5-21.5-17-53L533 65l-77-53.5L331-10z"/><glyph glyph-name="d" unicode="d" horiz-adv-x="678" d="M273-10q-58 0-100.5 23.5t-71 63T59 165 45 265t14 100 42.5 88.5 71 63T273 540q39 0 67-10.5t45.5-23.5 26-23.5L420 472h8v288h190V0H428v58h-8l-8.5-10.5-26-23.5L340 .5 273-10zm63 151q33 0 55 18.5t33 47 11 58.5-11 58.5-33 47-55 18.5-55-18.5-33-47-11-58.5 11-58.5 33-47 55-18.5z"/><glyph glyph-name="e" unicode="e" horiz-adv-x="630" d="M329-10q-73 0-126.5 23T114 75.5t-52 89T45 266q0 50 16.5 99t50.5 88.5 86.5 63T323 540q78 0 137-33t92-95.5T585 260v-43H236q3-34 26.5-60t66.5-26q33 0 50 11.5t23 23l6 11.5h174l-5-19-19-46.5L516 56 442.5 9 329-10zm-94 332h169q-1 41-24 61.5T319 404q-32 0-56.5-20T235 322z"/><glyph glyph-name="f" unicode="f" horiz-adv-x="424" d="M112 0v380H30v150h82v26q0 27 8 63.5t29.5 71 63 57T321 770q34 0 56-4.5l22-4.5V632l-9.5 1-17.5 1q-38 0-54-20.5T302 556v-26h97V380h-97V0H112z"/><glyph glyph-name="g" unicode="g" horiz-adv-x="670" d="M333-214q-78 0-128.5 19t-79 46.5T84-93 67.5-46L64-27h183l6-11 23.5-22L330-71q46 0 73 27t27 80v54h-8q-15-25-50.5-49.5T277 16q-58 0-101.5 22T103 97.5 59.5 182 45 278t14.5 96 43.5 84.5 72.5 59.5T277 540q59 0 95-25t50-49h8v64h190V36q0-46-16.5-90.5t-51-80.5-89-57.5T333-214zm3 376q34 0 56.5 17t33.5 44 11 55q0 30-11 56.5t-33.5 43T336 394q-33 0-55.5-16.5t-34-43T235 278q0-28 11.5-55t34-44 55.5-17z"/><glyph glyph-name="h" unicode="h" horiz-adv-x="625" d="M60 0v760h190V455h5q11 18 28.5 37.5T330 526t73 14q65 0 102.5-29.5t53.5-74 16-89.5V0H385v309q0 29-15 53.5T318 387q-39 0-53.5-25T250 309V0H60z"/><glyph glyph-name="i" unicode="i" horiz-adv-x="317" d="M158 583q-47 0-77.5 30.5T50 686q0 44 30.5 74t77.5 30 78-30 31-74q0-42-31-72.5T158 583zM63 0v530h190V0H63z"/><glyph glyph-name="j" unicode="j" horiz-adv-x="319" d="M160 583q-47 0-77.5 30.5T52 686q0 44 30.5 74t77.5 30 78-30 31-74q0-42-31-72.5T160 583zM38-215q-34 0-56 3.5l-22 3.5v138l9.5-1 19.5-1q47 0 61.5 21T65 8v522h190V2q0-28-6-65t-27.5-72-65-57.5T38-215z"/><glyph glyph-name="k" unicode="k" horiz-adv-x="628" d="M60 0v760h190V327l151 203h206L421 288 618 0H401L250 224V0H60z"/><glyph glyph-name="l" unicode="l" horiz-adv-x="310" d="M60 0v760h190V0H60z"/><glyph glyph-name="m" unicode="m" horiz-adv-x="898" d="M50 0v530h190v-69h6q20 34 55 56.5t88 22.5q60 0 94-27.5t49-64.5h3q12 19 33 40.5t53 36.5 76 15q54 0 87-24t48.5-59.5T848 385V0H658v324q0 26-14 44.5T600 387q-29 0-42.5-18.5T544 324V0H354v324q0 26-14 44.5T296 387q-29 0-42.5-18.5T240 324V0H50z"/><glyph glyph-name="n" unicode="n" horiz-adv-x="615" d="M50 0v530h190v-75h5q11 18 28.5 37.5T320 526t73 14q65 0 102.5-29.5t53.5-74 16-89.5V0H375v309q0 29-15 53.5T308 387q-39 0-53.5-25T240 309V0H50z"/><glyph glyph-name="o" unicode="o" horiz-adv-x="668" d="M334-10q-91 0-156 38T79 128.5 45 265t34 136.5T178 502t156 38q92 0 156.5-38T589 401.5 623 265t-34-136.5T490.5 28 334-10zm0 152q46 0 72.5 35.5T433 265t-26.5 87.5T334 388t-72.5-35.5T235 265t26.5-87.5T334 142z"/><glyph glyph-name="p" unicode="p" horiz-adv-x="678" d="M60-195v725h190v-58h8l8.5 10.5 26 23.5 45.5 23.5 67 10.5q58 0 100.5-23.5t71-63T619 365t14-100-14-100-42.5-88.5-71-63T405-10q-39 0-67 10.5T292.5 24t-26 23.5L258 58h-8v-253H60zm183 460q0-30 11-58.5t33-47 55-18.5q34 0 55.5 18.5t32.5 47 11 58.5-11 58.5-32.5 47T342 389q-33 0-55-18.5t-33-47-11-58.5z"/><glyph glyph-name="q" unicode="q" horiz-adv-x="678" d="M428-195V58h-8l-8.5-10.5-26-23.5L340 .5 273-10q-58 0-100.5 23.5t-71 63T59 165 45 265t14 100 42.5 88.5 71 63T273 540q39 0 67-10.5t45.5-23.5 26-23.5L420 472h8v58h190v-725H428zm-92 336q33 0 55 18.5t33 47 11 58.5-11 58.5-33 47-55 18.5-55-18.5-33-47-11-58.5 11-58.5 33-47 55-18.5z"/><glyph glyph-name="r" unicode="r" horiz-adv-x="453" d="M50 0v530h188v-84h6q8 22 23 43.5t43 36 74 14.5q24 0 36.5-3.5L433 533V345l-13.5 3.5L379 352q-72 0-105.5-38T240 191V0H50z"/><glyph glyph-name="s" unicode="s" horiz-adv-x="556" d="M293-10q-70 0-115.5 18.5t-72.5 46T64.5 109 47 154.5L43 173h171l6-12.5 25.5-25L303 123q25 0 36.5 6.5t15 14.5 3.5 12q0 25-45 32l-73 12q-49 8-93 26t-71 51-27 86q0 50 26 90t76.5 63.5T274 540q65 0 108-17.5t69-42.5 39-50.5 17-43l4-17.5H345l-5.5 10.5-22 20.5-48.5 10-43-11.5-11-22.5q0-16 16-22.5t41-11.5l65-12q82-15 134-52.5T523 167q0-76-59-126.5T293-10z"/><glyph glyph-name="t" unicode="t" horiz-adv-x="444" d="M311-10q-60 0-98 15.5t-59 40T124 98t-11 52.5-2 40.5v189H25v150h86v130h190V530h103V380H301V198q0-28 15-45.5t55-17.5q16 0 27 2.5l11 2.5V0l-29.5-5-68.5-5z"/><glyph glyph-name="u" unicode="u" horiz-adv-x="603" d="M210-10q-58 0-93.5 25t-51 65.5T50 167v363h188V214q0-30 15-50.5t48-20.5q34 0 48 21.5t14 49.5v316h190V0H363v75h-6q-22-40-58-62.5T210-10z"/><glyph glyph-name="v" unicode="v" horiz-adv-x="606" d="M204 0L15 530h188l102-320 98 320h188L401 0H204z"/><glyph glyph-name="w" unicode="w" horiz-adv-x="893" d="M174 0L15 530h188l74-304 85 304h169l85-304 74 304h188L719 0H519l-72 255L374 0H174z"/><glyph glyph-name="x" unicode="x" horiz-adv-x="640" d="M40 0l153 264L40 530h195l84-151 87 151h194L440 264 600 0H406l-87 152L235 0H40z"/><glyph glyph-name="y" unicode="y" horiz-adv-x="606" d="M109-195q-30 0-46.5 2L46-191v150l12-1 33-1q40 0 66.5 8T204-1L15 530h188l102-320 98 320h188L412 35q-27-76-64-127.5t-93.5-77T109-195z"/><glyph glyph-name="z" unicode="z" horiz-adv-x="533" d="M45 0v129l236 254H50v147h457V401L271 147h236V0H45z"/><glyph glyph-name="braceleft" unicode="{" horiz-adv-x="516" d="M366-221q-112 0-171 59T136 9v172q0 60-60 60H30v160h46q60 0 60 60v172q0 112 59 171t171 59h110V702h-85q-60 0-60-60V461q0-59-18-89.5T241 325v-8q54-16 72-47.5t18-88.5V0q0-60 60-60h85v-161H366z"/><glyph glyph-name="bar" unicode="|" horiz-adv-x="452" d="M150-259V960h152V-259H150z"/><glyph glyph-name="braceright" unicode="}" horiz-adv-x="516" d="M150 863q112 0 171-59t59-171V461q0-60 60-60h46V241h-46q-60 0-60-60V9q0-112-59-171t-171-59H40v161h85q60 0 60 60v181q0 59 18 89.5t72 46.5v8q-54 17-72 48t-18 88v181q0 60-60 60H40v161h110z"/><glyph glyph-name="asciitilde" unicode="~" horiz-adv-x="505" d="M331 312q-29 0-50.5 9t-38 20.5T212 362t-28 9q-16 0-22-14t-6-39H60q0 35 8.5 71.5t33.5 62 72 25.5q39 0 65-14.5t45.5-29.5 37.5-15q27 0 27 53h96q0-35-8.5-72t-33-62-72.5-25z"/><glyph glyph-name="uni00A0" horiz-adv-x="230"/><glyph glyph-name="exclamdown" unicode="¡" horiz-adv-x="381" d="M190 528q41 0 67.5-28t26.5-67-26.5-66.5T190 339t-67.5 27.5T96 433t26.5 67 67.5 28zM85-222l27 503h153l31-503H85z"/><glyph glyph-name="cent" unicode="¢" horiz-adv-x="640" d="M289-101v93q-83 9-137 50T71.5 142 45 265t26.5 123T152 488t137 50v92h76v-91q66-6 108.5-29t67-53.5T577 396t15-49.5l3-19.5H420l-3.5 12.5L401 367l-36 22V141q24 7 36 22t15.5 27.5L420 203h175l-3-19.5-15-49.5-36.5-60.5-67-53.5L365-9v-92h-76zm-54 366q0-39 13.5-70t40.5-46v232q-27-15-40.5-46T235 265z"/><glyph glyph-name="sterling" unicode="£" horiz-adv-x="712" d="M90 0v157q69 5 106 33t37 69q0 14-4.5 26.5T217 310H72v70h92q-17 24-30 55.5T121 512q0 73 38.5 126t110 82.5T439 750q43 0 77.5-4t55-8.5L592 733V570l-18 4-48.5 8-66.5 4q-69 0-110.5-21T307 497q0-32 16.5-59.5T357 380h179v-70H386q4-18 4-37 0-28-10.5-49.5t-25-36-25-22.5l-10.5-8h303V0H90z"/><glyph glyph-name="currency" unicode="¤" horiz-adv-x="715" d="M130 70l-80 79 94 95q-18 29-28 63t-10 71 10 71 28 63l-94 94 80 79 94-94q61 39 134 39t134-39l94 94 79-79-94-94q39-61 39-134 0-75-39-134l94-95-79-79-94 94q-29-18-63-28t-71-10-71 10-63 28zm228 185q34 0 61.5 16.5t44 44.5 16.5 62-16.5 61.5-44 44T358 500t-62-16.5-44.5-44T235 378t16.5-62 44.5-44.5 62-16.5z"/><glyph glyph-name="yen" unicode="¥" horiz-adv-x="754" d="M95 201v88h164l-43 81H94v88h75L20 740h210l147-296 146 296h211L585 458h74v-88H538l-43-81h164v-88H473V0H281v201H95z"/><glyph glyph-name="brokenbar" unicode="¦" horiz-adv-x="452" d="M150 417v543h152V417H150zm0-676v509h152v-509H150z"/><glyph glyph-name="section" unicode="§" horiz-adv-x="722" d="M372-224q-77 0-131.5 18t-90 46T94-100 63-40 50 6l-3 18h194l4-14 17.5-32.5L304-55l76-14q59 0 82.5 22.5T486 2q0 25-18.5 39T408 62L279 83q-64 11-121 35t-92.5 66T30 291q0 59 32 99.5t92 53.5v7q-43 32-66.5 70T64 612q0 66 35.5 118T201 812t158 30q70 0 120-16.5t83.5-43 53-55.5 29.5-55.5 13-43l3-16.5H472l-3.5 11.5-15.5 26-35.5 26L354 687q-38 0-60.5-11t-32-27-9.5-32q0-29 27.5-42.5T347 554l100-16q65-10 121.5-34.5t92-66.5T696 330q0-59-32-99t-92-54v-7q47-13 76.5-53.5T678 14q0-69-36-122.5T538-193t-166-31zm70 456l10 2 23 8.5 23 19.5 10 35q0 29-24.5 46.5T413 368l-129 21-10-2-23-8.5-23-19.5-10-35q0-29 24.5-46t70.5-25z"/><glyph glyph-name="dieresis" unicode="¨" horiz-adv-x="571" d="M400 578q-45 0-73.5 28.5T298 675q0 41 28.5 69.5T400 773q44 0 73-28.5t29-69.5q0-40-29-68.5T400 578zm-251 0q-45 0-73.5 28.5T47 675q0 41 28.5 69.5T149 773q44 0 73-28.5t29-69.5q0-40-29-68.5T149 578z"/><glyph glyph-name="copyright" unicode="©" horiz-adv-x="788" d="M394-10q-91 0-159 30.5t-113.5 82-68.5 116T30 350q0 68 23 132t68.5 115.5 113.5 82T394 710t159.5-30.5 114-82 68-115.5T758 350q0-67-22.5-131.5t-68-116-114-82T394-10zm0 106q85 0 141.5 37t85 95.5T649 350q0 64-28.5 122t-85 95T394 604t-141.5-37-85-95T139 350q0-63 28.5-121.5t85-95.5T394 96zm11 68q-68 0-112.5 27T226 261t-22 89q0 47 22 89.5t66.5 69.5T405 536q51 0 84-15t52-36.5 28-43.5 11.5-37l2.5-15H454l-3 9.5-14 19.5-34 10q-32 0-47.5-23T340 350t15.5-55 47.5-23q23 0 34 9.5t14 19.5l3 10h129l-2.5-15-11.5-36.5-28-43.5-52-37-84-15z"/><glyph glyph-name="ordfeminine" unicode="ª" horiz-adv-x="433" d="M244 444q-13-17-36-28t-54-11q-46 0-77.5 25T45 501q0 93 143 107l60 6v7q0 17-9 24t-23 7-21-6-8.5-12l-1.5-6H58l1.5 12.5L69 671l25.5 36 48 30.5L222 750q62 0 97-20t49.5-47.5T383 631V411H248v33h-4zm-67 69q0-22 31-22 17 0 28.5 10t11.5 29v10l-44-5q-27-3-27-22z"/><glyph glyph-name="guillemotleft" unicode="«" horiz-adv-x="802" d="M578 80L362 305l216 225h194L561 304 772 80H578zm-327 0L35 305l216 225h194L234 304 445 80H251z"/><glyph glyph-name="logicalnot" unicode="¬" horiz-adv-x="655" d="M80 383v147h495V248H429v135H80z"/><glyph glyph-name="uni00AD" unicode="­" horiz-adv-x="600" d="M115 238v147h376V238H115z"/><glyph glyph-name="registered" unicode="®" horiz-adv-x="430" d="M215 376q-61 0-102.5 27t-62 70T30 563t20.5 89.5 62 70T215 750q62 0 103-27.5t61.5-70T400 563t-20.5-90-61.5-70-103-27zm0 41q48 0 79.5 21.5t47 55T357 563q0 37-15.5 70t-47 54.5T215 709q-47 0-79-21.5T88.5 633 73 563q0-36 15.5-69.5t47.5-55 79-21.5zm-81 52v193h89q37 0 59.5-16.5T305 595q0-40-33-58l35-68h-67l-30 58h-13v-58h-63zm88 141h-25v-34h25q21 0 21 16 0 9-6 13.5t-15 4.5z"/><glyph glyph-name="macron" unicode="¯" horiz-adv-x="400" d="M30 653v102h340V653H30z"/><glyph glyph-name="degree" unicode="°" horiz-adv-x="468" d="M234 371q-52 0-95 25.5t-68.5 69T45 561t25.5 95 68.5 68.5 95 25.5q53 0 95.5-25.5t68-68.5 25.5-95-25.5-95.5-68-69T234 371zm0 126q26 0 44.5 19t18.5 45-18.5 44.5T234 624t-44.5-18.5T171 561t18.5-45 44.5-19z"/><glyph glyph-name="plusminus" unicode="±" horiz-adv-x="683" d="M268 156v152H116v147h152v152h147V455h152V308H415V156H268zM115 0v98h453V0H115z"/><glyph glyph-name="uni00B2" unicode="²" horiz-adv-x="472" d="M43 405v100l114 82q30 21 55.5 39t41.5 36 16 38-13.5 30-32.5 10-33.5-12-14.5-39H40q0 59 26.5 97t69.5 56.5 92 18.5q54 0 96.5-19.5t66.5-53 24-75.5q0-55-44.5-100T242 524h175V405H43z"/><glyph glyph-name="uni00B3" unicode="³" horiz-adv-x="490" d="M246 395q-58 0-94.5 15.5t-56.5 39T66 496t-10.5 38.5L54 550h134l2.5-10.5 13.5-21 38-10.5q29 0 40.5 13t11.5 26q0 16-13 24t-32 8h-63v98h60q24 0 35 10t11 24q0 16-12 26t-35 10q-24 0-34-10t-12-20.5l-2-10.5H67l1.5 15.5L78 760l27.5 46 54.5 38.5 90 15.5q49 0 90.5-15t66.5-44 25-71q0-34-15-55.5t-33.5-32T355 630v-6q32-8 58-31t26-66q0-41-25.5-70.5t-69-45.5-98.5-16z"/><glyph glyph-name="acute" unicode="´" horiz-adv-x="346" d="M185 599l-133 1 77 179h170z"/><glyph glyph-name="uni00B5" unicode="µ" horiz-adv-x="665" d="M40-195v725h190V214q0-30 15-50.5t48-20.5q34 0 48 21.5t14 49.5v316h190V198q0-23 10.5-42t50.5-19q11 0 19 1l8 1V-3l-26.5-3.5L551-10q-74 0-115 26.5T378 75h-9l-4.5-13-16-29.5-32-29.5L263-10q-25 0-43 7.5T193 12l-9 7-5-5q30-40 40.5-80.5T230-164v-31H40z"/><glyph glyph-name="paragraph" unicode="¶" horiz-adv-x="609" d="M393 0H280v295h-63q-71 0-118 27.5t-70.5 73T5 495q0 55 24 101.5t71.5 75T217 700h352V0H456v535h-63V0z"/><glyph glyph-name="periodcentered" unicode="·" horiz-adv-x="338" d="M169 259q-43 0-71 29.5T70 358q0 41 28 70t71 29 71-29 28-70q0-40-28-69.5T169 259z"/><glyph glyph-name="cedilla" unicode="¸" horiz-adv-x="271" d="M69-258q-20 0-41 2t-34.5 4l-13.5 2v96l13-1.5 31.5-3L59-160q44 0 58 11.5t14 23.5-9.5 19T96-99q-21 0-37.5-9.5L42-118l-64 65 68 93h115l-45-60q7 1 16 1 50 0 80-31t30-77q0-33-18.5-63t-57-49T69-258z"/><glyph glyph-name="uni00B9" unicode="¹" horiz-adv-x="351" d="M271 860V405H137v294H44v80l13 4q46 14 74.5 29t56.5 43l5 5h78z"/><glyph glyph-name="ordmasculine" unicode="º" horiz-adv-x="457" d="M228 405q-57 0-98 24t-63 64-22 87 22 86 63 62.5 98 23.5q58 0 99-23.5t63-62.5 22-86-22-87-63-64-99-24zm0 111q22 0 35.5 17.5T277 580q0 27-13.5 44T228 641q-20 0-34-17t-14-44q0-28 14-46t34-18z"/><glyph glyph-name="guillemotright" unicode="»" horiz-adv-x="802" d="M362 80l211 224-211 226h194l216-225L556 80H362zM35 80l211 224L35 530h194l216-225L229 80H35z"/><glyph glyph-name="onequarter" unicode="¼" horiz-adv-x="825" d="M159 0l419 700h126L284 0H159zm36 699V351H81v216H10v70l9 2q35 9 59.5 22.5T125 696l3 3h67zM728 3v64H564v76l130 210h151V151h46V67h-46V3H728zm-60 148h60v98z"/><glyph glyph-name="onehalf" unicode="½" horiz-adv-x="804" d="M159 0l419 700h126L284 0H159zm36 699V351H81v216H10v70l9 2q35 9 59.5 22.5T125 696l3 3h67zM576 3v77l33 22q74 50 108.5 76t34.5 53q0 17-10 24t-22 7q-14 0-25-9.5T684 221H574q0 47 21 77.5t55 45 73 14.5q63 0 104.5-33.5T869 238q0-41-29-75.5T745 94h125V3H576z"/><glyph glyph-name="threequarters" unicode="¾" horiz-adv-x="846" d="M175 348q-44 0-72 12t-43 29-21.5 34.5T31 453l-1 12h104l2-7.5 10.5-15L175 435q21 0 29.5 9.5T213 464q0 9-7 17.5t-29 8.5h-36v76h36q19 0 27.5 9t8.5 19-8.5 18.5T176 621q-18 0-26-7t-10-14l-2-7H37l2.5 17.5 14.5 40 40.5 40L175 708q40 0 72.5-12t52.5-35 20-55q0-23-10.5-40t-24-26-23.5-11v-4q10-2 24.5-8.5t26-21T324 454q0-46-40.5-76T175 348zM234 0l419 700h126L359 0H234zm569 3v64H639v76l130 210h151V151h46V67h-46V3H803zm-60 148h60v98z"/><glyph glyph-name="questiondown" unicode="¿" horiz-adv-x="653" d="M324 539q41 0 67.5-28t26.5-67-26.5-66.5T324 350q-40 0-67 27.5T230 444t27 67 67 28zm-3-761q-73 0-134 28.5t-97 80T54 5q0 49 17.5 83t43.5 58 52.5 42.5 44 36T229 264v31h189v-31q0-43-17.5-73.5T358 137t-50.5-42-43-39T247 10q0-28 22-48t59-20q35 0 61 23.5T415 38h182q0-88-39.5-146T455-194t-134-28z"/><glyph glyph-name="Agrave" unicode="À" horiz-adv-x="791" d="M331 809L217 989h170l77-179zM20 0l246 740h259L771 0H571l-39 124H259L220 0H20zm290 288h171l-85 273z"/><glyph glyph-name="Aacute" unicode="Á" horiz-adv-x="791" d="M464 809l-133 1 77 179h170zM20 0l246 740h259L771 0H571l-39 124H259L220 0H20zm290 288h171l-85 273z"/><glyph glyph-name="Acircumflex" unicode="Â" horiz-adv-x="791" d="M188 799l135 159h147l135-159H464l-67 81-68-81H188zM20 0l246 740h259L771 0H571l-39 124H259L220 0H20zm290 288h171l-85 273z"/><glyph glyph-name="Atilde" unicode="Ã" horiz-adv-x="791" d="M474 822q-27 0-47 9t-35.5 20.5T363 872t-27 9q-15 0-20.5-13.5T310 828h-93q0 35 8 71.5t31.5 62T325 987q37 0 61.5-14.5T429 943t35-15q14 0 19.5 14t5.5 39h93q0-34-8-71t-31-62.5-69-25.5zM20 0l246 740h259L771 0H571l-39 124H259L220 0H20zm290 288h171l-85 273z"/><glyph glyph-name="Adieresis" unicode="Ä" horiz-adv-x="791" d="M521 788q-45 0-73.5 28.5T419 885q0 41 28.5 69.5T521 983q44 0 73-28.5t29-69.5q0-40-29-68.5T521 788zm-251 0q-45 0-73.5 28.5T168 885q0 41 28.5 69.5T270 983q44 0 73-28.5t29-69.5q0-40-29-68.5T270 788zM20 0l246 740h259L771 0H571l-39 124H259L220 0H20zm290 288h171l-85 273z"/><glyph glyph-name="Aring" unicode="Å" horiz-adv-x="791" d="M396 788q-39 0-71 19t-51 51-19 71 19 70.5 51 50.5 71 19 71-19 51-50.5 19-70.5-19-71-51-51-71-19zm0 90q21 0 36 14.5t15 36.5q0 21-15 35.5T396 979t-36-14.5-15-35.5q0-22 15-36.5t36-14.5zM20 0l246 740h259L771 0H571l-39 124H259L220 0H20zm290 288h171l-85 273z"/><glyph glyph-name="AE" unicode="Æ" horiz-adv-x="1056" d="M20 0l306 740h670V574H652V454h299V296H652V166h349V0H460v124H271L220 0H20zm318 285h122v297z"/><glyph glyph-name="Ccedilla" unicode="Ç" horiz-adv-x="783" d="M383-263q-20 0-41 2t-34.5 4l-13.5 2v92l13-1.5 31.5-3L373-169q44 0 58 11.5t14 23.5-9.5 19-25.5 7q-21 0-37.5-9.5L356-127l-64 65 42 58Q259 8 201.5 44T106 132 49 245.5 30 371q0 71 24 138.5T125 631t118 86.5T408 750q80 0 137-20t95-51.5 60.5-67 34-67 15-51.5l3.5-20H563l-5 16-20 37.5-46 37.5-82 16q-60 0-100.5-30.5T249 471t-20-100 20-100 60.5-79T410 161q51 0 82 16t46 37 20 37l5 16h190l-3-18.5-13.5-48L706 137l-54-65.5L567 18 445-9l-15-20q7 1 16 1 50 0 80-31t30-77q0-50-42-88.5T383-263z"/><glyph glyph-name="Egrave" unicode="È" horiz-adv-x="656" d="M263 809L149 989h170l77-179zM60 0v740h536V574H252V454h299V296H252V166h349V0H60z"/><glyph glyph-name="Eacute" unicode="É" horiz-adv-x="656" d="M396 809l-133 1 77 179h170zM60 0v740h536V574H252V454h299V296H252V166h349V0H60z"/><glyph glyph-name="Ecircumflex" unicode="Ê" horiz-adv-x="656" d="M120 799l135 159h147l135-159H396l-67 81-68-81H120zM60 0v740h536V574H252V454h299V296H252V166h349V0H60z"/><glyph glyph-name="Edieresis" unicode="Ë" horiz-adv-x="656" d="M453 788q-45 0-73.5 28.5T351 885q0 41 28.5 69.5T453 983q44 0 73-28.5t29-69.5q0-40-29-68.5T453 788zm-251 0q-45 0-73.5 28.5T100 885q0 41 28.5 69.5T202 983q44 0 73-28.5t29-69.5q0-40-29-68.5T202 788zM60 0v740h536V574H252V454h299V296H252V166h349V0H60z"/><glyph glyph-name="Igrave" unicode="Ì" horiz-adv-x="312" d="M91 809L-23 989h170l77-179zM60 0v740h192V0H60z"/><glyph glyph-name="Iacute" unicode="Í" horiz-adv-x="312" d="M224 809l-133 1 77 179h170zM60 0v740h192V0H60z"/><glyph glyph-name="Icircumflex" unicode="Î" horiz-adv-x="312" d="M-52 799L83 988h147l135-189H224l-67 102-68-102H-52zM60 0v740h192V0H60z"/><glyph glyph-name="Idieresis" unicode="Ï" horiz-adv-x="312" d="M281 788q-45 0-73.5 28.5T179 885q0 41 28.5 69.5T281 983q44 0 73-28.5t29-69.5q0-40-29-68.5T281 788zm-251 0q-45 0-73.5 28.5T-72 885q0 41 28.5 69.5T30 983q44 0 73-28.5t29-69.5q0-40-29-68.5T30 788zM60 0v740h192V0H60z"/><glyph glyph-name="Eth" unicode="Ð" horiz-adv-x="782" d="M76 0v296H5v148h71v296h306q92 0 161.5-31.5t116-84.5T729 505t23-135-23-135-69.5-119-116-84.5T382 0H76zm319 296H268V171h105q65 0 106 29.5t60.5 75.5 19.5 96-19.5 95.5-60.5 75T373 572H268V444h127V296z"/><glyph glyph-name="Ntilde" unicode="Ñ" horiz-adv-x="760" d="M454 822q-27 0-47 9t-35.5 20.5T343 872t-27 9q-15 0-20.5-13.5T290 828h-93q0 35 8 71.5t31.5 62T305 987q37 0 61.5-14.5T409 943t35-15q14 0 19.5 14t5.5 39h93q0-34-8-71t-31-62.5-69-25.5zM60 0v740h177l273-411v411h190V0H521L250 390V0H60z"/><glyph glyph-name="Ograve" unicode="Ò" horiz-adv-x="830" d="M350 819L236 999h170l77-179zm65-829q-96 0-168 32.5t-120 87T54.5 232 30 371t24.5 138.5T127 631t120 86.5T415 750t168-32.5T703.5 631 776 509.5 800 371t-24-139-72.5-122.5-120.5-87T415-10zm0 171q62 0 103 30.5t61.5 79T600 371t-20.5 100-61.5 78.5T415 580q-61 0-102-30.5T251.5 471 231 371t20.5-100.5 61.5-79T415 161z"/><glyph glyph-name="Oacute" unicode="Ó" horiz-adv-x="830" d="M483 819l-133 1 77 179h170zM415-10q-96 0-168 32.5t-120 87T54.5 232 30 371t24.5 138.5T127 631t120 86.5T415 750t168-32.5T703.5 631 776 509.5 800 371t-24-139-72.5-122.5-120.5-87T415-10zm0 171q62 0 103 30.5t61.5 79T600 371t-20.5 100-61.5 78.5T415 580q-61 0-102-30.5T251.5 471 231 371t20.5-100.5 61.5-79T415 161z"/><glyph glyph-name="Ocircumflex" unicode="Ô" horiz-adv-x="830" d="M207 809l135 159h147l135-159H483l-67 81-68-81H207zM415-10q-96 0-168 32.5t-120 87T54.5 232 30 371t24.5 138.5T127 631t120 86.5T415 750t168-32.5T703.5 631 776 509.5 800 371t-24-139-72.5-122.5-120.5-87T415-10zm0 171q62 0 103 30.5t61.5 79T600 371t-20.5 100-61.5 78.5T415 580q-61 0-102-30.5T251.5 471 231 371t20.5-100.5 61.5-79T415 161z"/><glyph glyph-name="Otilde" unicode="Õ" horiz-adv-x="830" d="M493 832q-27 0-47 9t-35.5 20.5T382 882t-27 9q-15 0-20.5-13.5T329 838h-93q0 35 8 71.5t31.5 62T344 997q37 0 61.5-14.5T448 953t35-15q14 0 19.5 14t5.5 39h93q0-34-8-71t-31-62.5-69-25.5zM415-10q-96 0-168 32.5t-120 87T54.5 232 30 371t24.5 138.5T127 631t120 86.5T415 750t168-32.5T703.5 631 776 509.5 800 371t-24-139-72.5-122.5-120.5-87T415-10zm0 171q62 0 103 30.5t61.5 79T600 371t-20.5 100-61.5 78.5T415 580q-61 0-102-30.5T251.5 471 231 371t20.5-100.5 61.5-79T415 161z"/><glyph glyph-name="Odieresis" unicode="Ö" horiz-adv-x="830" d="M540 798q-45 0-73.5 28.5T438 895q0 41 28.5 69.5T540 993q44 0 73-28.5t29-69.5q0-40-29-68.5T540 798zm-251 0q-45 0-73.5 28.5T187 895q0 41 28.5 69.5T289 993q44 0 73-28.5t29-69.5q0-40-29-68.5T289 798zM415-10q-96 0-168 32.5t-120 87T54.5 232 30 371t24.5 138.5T127 631t120 86.5T415 750t168-32.5T703.5 631 776 509.5 800 371t-24-139-72.5-122.5-120.5-87T415-10zm0 171q62 0 103 30.5t61.5 79T600 371t-20.5 100-61.5 78.5T415 580q-61 0-102-30.5T251.5 471 231 371t20.5-100.5 61.5-79T415 161z"/><glyph glyph-name="multiply" unicode="×" horiz-adv-x="661" d="M229 97L116 210l101 101-102 102 114 114 102-102 102 102 113-113-102-102 102-102L432 96 330 198z"/><glyph glyph-name="Oslash" unicode="Ø" horiz-adv-x="830" d="M77-24l71 111q-59 55-88.5 130T30 371q0 71 24.5 138.5T127 631t120 86.5T415 750q40 0 75.5-6t67.5-17l23 36h171l-70-110q59-55 88.5-129.5T800 371q0-71-24-139t-72.5-122.5-120.5-87T415-10q-40 0-75.5 6T272 13l-24-37H77zm154 395q0-63 26-114l203 318q-21 5-45 5-61 0-102-30.5T251.5 471 231 371zm184-210q62 0 103 30.5t61.5 79T600 371q0 62-27 113L370 166q21-5 45-5z"/><glyph glyph-name="Ugrave" unicode="Ù" horiz-adv-x="746" d="M308 809L194 989h170l77-179zm65-819q-57 0-113 16T159 58t-72 95.5T60 300v440h192V300q0-54 29-92t92-38 92 38 29 92v440h192V300q0-87-27-146.5T587 58 486 6 373-10z"/><glyph glyph-name="Uacute" unicode="Ú" horiz-adv-x="746" d="M441 809l-133 1 77 179h170zM373-10q-57 0-113 16T159 58t-72 95.5T60 300v440h192V300q0-54 29-92t92-38 92 38 29 92v440h192V300q0-87-27-146.5T587 58 486 6 373-10z"/><glyph glyph-name="Ucircumflex" unicode="Û" horiz-adv-x="746" d="M165 799l135 189h147l135-189H441l-67 102-68-102H165zM373-10q-57 0-113 16T159 58t-72 95.5T60 300v440h192V300q0-54 29-92t92-38 92 38 29 92v440h192V300q0-87-27-146.5T587 58 486 6 373-10z"/><glyph glyph-name="Udieresis" unicode="Ü" horiz-adv-x="746" d="M498 788q-45 0-73.5 28.5T396 885q0 41 28.5 69.5T498 983q44 0 73-28.5t29-69.5q0-40-29-68.5T498 788zm-251 0q-45 0-73.5 28.5T145 885q0 41 28.5 69.5T247 983q44 0 73-28.5t29-69.5q0-40-29-68.5T247 788zM373-10q-57 0-113 16T159 58t-72 95.5T60 300v440h192V300q0-54 29-92t92-38 92 38 29 92v440h192V300q0-87-27-146.5T587 58 486 6 373-10z"/><glyph glyph-name="Yacute" unicode="Ý" horiz-adv-x="754" d="M445 809l-133 1 77 179h170zM281 0v247L20 740h210l147-296 146 296h211L473 247V0H281z"/><glyph glyph-name="Thorn" unicode="Þ" horiz-adv-x="702" d="M60 0v740h192V620h141q95 0 158-36.5t94.5-93.5T677 370t-31.5-120.5-94.5-94T393 119H252V0H60zm332 453H252V285h140q46 0 68.5 26.5T483 369q0 32-22.5 58T392 453z"/><glyph glyph-name="germandbls" unicode="ß" horiz-adv-x="738" d="M369 770q78 0 144-25.5t106.5-73T660 556q0-49-20.5-84T591 416t-51-28v-7l15-4.5 37-15.5 43.5-31 36.5-50.5 15-74.5q0-66-38-114.5T545.5 16 396-10q-40 0-64.5 4L307-2v155l22.5-3 47.5-3q65 0 91.5 26.5T495 233t-24.5 55-75.5 22h-61v148h48q44 0 66.5 23.5T471 535q0 32-25.5 55T374 613q-58 0-91.5-40T249 461V0H60v460q0 51 15.5 105.5T127 666t95.5 75T369 770z"/><glyph glyph-name="agrave" unicode="à" horiz-adv-x="670" d="M270 599L156 779h170l77-179zm3-59q39 0 67-10.5t45.5-23.5 26-23.5L420 472h8v58h190V0H428v58h-8l-8.5-10.5-26-23.5L340 .5 273-10q-58 0-100.5 23.5t-71 63T59 165 45 265t14 100 42.5 88.5 71 63T273 540zm63-151q-33 0-55-18.5t-33-47-11-58.5 11-58.5 33-47 55-18.5 55 18.5 33 47 11 58.5-11 58.5-33 47-55 18.5z"/><glyph glyph-name="aacute" unicode="á" horiz-adv-x="670" d="M403 599l-133 1 77 179h170zm-130-59q39 0 67-10.5t45.5-23.5 26-23.5L420 472h8v58h190V0H428v58h-8l-8.5-10.5-26-23.5L340 .5 273-10q-58 0-100.5 23.5t-71 63T59 165 45 265t14 100 42.5 88.5 71 63T273 540zm63-151q-33 0-55-18.5t-33-47-11-58.5 11-58.5 33-47 55-18.5 55 18.5 33 47 11 58.5-11 58.5-33 47-55 18.5z"/><glyph glyph-name="acircumflex" unicode="â" horiz-adv-x="670" d="M127 589l135 189h147l135-189H403l-67 102-68-102H127zm146-49q39 0 67-10.5t45.5-23.5 26-23.5L420 472h8v58h190V0H428v58h-8l-8.5-10.5-26-23.5L340 .5 273-10q-58 0-100.5 23.5t-71 63T59 165 45 265t14 100 42.5 88.5 71 63T273 540zm63-151q-33 0-55-18.5t-33-47-11-58.5 11-58.5 33-47 55-18.5 55 18.5 33 47 11 58.5-11 58.5-33 47-55 18.5z"/><glyph glyph-name="atilde" unicode="ã" horiz-adv-x="670" d="M413 612q-27 0-47 9t-35.5 20.5T302 662t-27 9q-15 0-20.5-13.5T249 618h-93q0 35 8 71.5t31.5 62T264 777q37 0 61.5-14.5T368 733t35-15q14 0 19.5 14t5.5 39h93q0-34-8-71t-31-62.5-69-25.5zm-140-72q39 0 67-10.5t45.5-23.5 26-23.5L420 472h8v58h190V0H428v58h-8l-8.5-10.5-26-23.5L340 .5 273-10q-58 0-100.5 23.5t-71 63T59 165 45 265t14 100 42.5 88.5 71 63T273 540zm63-151q-33 0-55-18.5t-33-47-11-58.5 11-58.5 33-47 55-18.5 55 18.5 33 47 11 58.5-11 58.5-33 47-55 18.5z"/><glyph glyph-name="adieresis" unicode="ä" horiz-adv-x="670" d="M460 578q-45 0-73.5 28.5T358 675q0 41 28.5 69.5T460 773q44 0 73-28.5t29-69.5q0-40-29-68.5T460 578zm-251 0q-45 0-73.5 28.5T107 675q0 41 28.5 69.5T209 773q44 0 73-28.5t29-69.5q0-40-29-68.5T209 578zm64-38q39 0 67-10.5t45.5-23.5 26-23.5L420 472h8v58h190V0H428v58h-8l-8.5-10.5-26-23.5L340 .5 273-10q-58 0-100.5 23.5t-71 63T59 165 45 265t14 100 42.5 88.5 71 63T273 540zm63-151q-33 0-55-18.5t-33-47-11-58.5 11-58.5 33-47 55-18.5 55 18.5 33 47 11 58.5-11 58.5-33 47-55 18.5z"/><glyph glyph-name="aring" unicode="å" horiz-adv-x="670" d="M335 578q-39 0-71 19t-51 51-19 71 19 70.5 51 50.5 71 19 71-19 51-50.5 19-70.5-19-71-51-51-71-19zm0 90q21 0 36 14.5t15 36.5q0 21-15 35.5T335 769t-36-14.5-15-35.5q0-22 15-36.5t36-14.5zm-62-128q39 0 67-10.5t45.5-23.5 26-23.5L420 472h8v58h190V0H428v58h-8l-8.5-10.5-26-23.5L340 .5 273-10q-58 0-100.5 23.5t-71 63T59 165 45 265t14 100 42.5 88.5 71 63T273 540zm63-151q-33 0-55-18.5t-33-47-11-58.5 11-58.5 33-47 55-18.5 55 18.5 33 47 11 58.5-11 58.5-33 47-55 18.5z"/><glyph glyph-name="ae" unicode="æ" horiz-adv-x="950" d="M231-10q-88 0-142 43T35 153q0 74 55 117.5T260 317l108 3v17q0 32-18.5 47.5T299 400q-31 0-46.5-12t-20-24l-4.5-12H50l4 19 17 47 39 56 70 47 111 19q51 0 85.5-10.5t54.5-24 29-24l9-10.5h4l10 10.5 31 24 54 24 80 10.5q73 0 131-31t92-93 34-156v-43H554q3-34 28-60t69-26q34 0 51 11.5t23.5 23L732 177h170l-5-19-19-46.5L836.5 56l-73-47L651-10q-60 0-102 15t-67 34.5T445.5 74L434 89h-5l-9.5-15L387 39.5 326 5l-95-15zm323 332h174q-1 41-25 61.5T640 404q-33 0-58-20t-28-62zM283 113q38 0 61.5 22t23.5 59v19l-86-4q-34-1-49.5-14.5T217 161q0-22 18.5-35t47.5-13z"/><glyph glyph-name="ccedilla" unicode="ç" horiz-adv-x="634" d="M309-263q-20 0-41 2t-34.5 4l-13.5 2v92l13-1.5 31.5-3L299-169q44 0 58 11.5t14 23.5-9.5 19-25.5 7q-21 0-37.5-9.5L282-127l-64 65 42 58q-74 14-122.5 55t-72 97.5T42 265q0 52 17.5 101t52.5 88.5 89 62.5 127 23q76 0 125-21.5t77-53 41.5-63.5 17-53.5L592 327H417l-2.5 10-11 23-25 23-44.5 10q-51 0-76.5-37.5T232 265t25.5-90.5T334 137q28 0 44.5 10t25 23 11 23l2.5 10h175l-3-19-14-48-35-59.5-64.5-54L372-8l-16-21q7 1 16 1 50 0 80-31t30-77q0-50-42-88.5T309-263z"/><glyph glyph-name="egrave" unicode="è" horiz-adv-x="624" d="M255 600L141 780h170l77-179zm71-610q-73 0-126.5 23T111 75.5t-52 89T42 266q0 50 16.5 99t50.5 88.5 86.5 63T320 540q78 0 137-33t92-95.5T582 260v-43H233q3-34 26.5-60t66.5-26q33 0 50 11.5t23 23l6 11.5h174l-5-19-19-46.5L513 56 439.5 9 326-10zm-94 332h169q-1 41-24 61.5T316 404q-32 0-56.5-20T232 322z"/><glyph glyph-name="eacute" unicode="é" horiz-adv-x="624" d="M388 600l-133 1 77 179h170zM326-10q-73 0-126.5 23T111 75.5t-52 89T42 266q0 50 16.5 99t50.5 88.5 86.5 63T320 540q78 0 137-33t92-95.5T582 260v-43H233q3-34 26.5-60t66.5-26q33 0 50 11.5t23 23l6 11.5h174l-5-19-19-46.5L513 56 439.5 9 326-10zm-94 332h169q-1 41-24 61.5T316 404q-32 0-56.5-20T232 322z"/><glyph glyph-name="ecircumflex" unicode="ê" horiz-adv-x="624" d="M112 590l135 189h147l135-189H388l-67 102-68-102H112zM326-10q-73 0-126.5 23T111 75.5t-52 89T42 266q0 50 16.5 99t50.5 88.5 86.5 63T320 540q78 0 137-33t92-95.5T582 260v-43H233q3-34 26.5-60t66.5-26q33 0 50 11.5t23 23l6 11.5h174l-5-19-19-46.5L513 56 439.5 9 326-10zm-94 332h169q-1 41-24 61.5T316 404q-32 0-56.5-20T232 322z"/><glyph glyph-name="edieresis" unicode="ë" horiz-adv-x="624" d="M445 579q-45 0-73.5 28.5T343 676q0 41 28.5 69.5T445 774q44 0 73-28.5t29-69.5q0-40-29-68.5T445 579zm-251 0q-45 0-73.5 28.5T92 676q0 41 28.5 69.5T194 774q44 0 73-28.5t29-69.5q0-40-29-68.5T194 579zM326-10q-73 0-126.5 23T111 75.5t-52 89T42 266q0 50 16.5 99t50.5 88.5 86.5 63T320 540q78 0 137-33t92-95.5T582 260v-43H233q3-34 26.5-60t66.5-26q33 0 50 11.5t23 23l6 11.5h174l-5-19-19-46.5L513 56 439.5 9 326-10zm-94 332h169q-1 41-24 61.5T316 404q-32 0-56.5-20T232 322z"/><glyph glyph-name="igrave" unicode="ì" horiz-adv-x="320" d="M95 599L-19 779h170l77-179zM65 0v530h190V0H65z"/><glyph glyph-name="iacute" unicode="í" horiz-adv-x="320" d="M228 599l-133 1 77 179h170zM65 0v530h190V0H65z"/><glyph glyph-name="icircumflex" unicode="î" horiz-adv-x="320" d="M-48 589L87 778h147l135-189H228l-67 102-68-102H-48zM65 0v530h190V0H65z"/><glyph glyph-name="idieresis" unicode="ï" horiz-adv-x="320" d="M285 578q-45 0-73.5 28.5T183 675q0 41 28.5 69.5T285 773q44 0 73-28.5t29-69.5q0-40-29-68.5T285 578zm-251 0q-45 0-73.5 28.5T-68 675q0 41 28.5 69.5T34 773q44 0 73-28.5t29-69.5q0-40-29-68.5T34 578zM65 0v530h190V0H65z"/><glyph glyph-name="eth" unicode="ð" horiz-adv-x="672" d="M335-10q-75 0-129.5 23.5t-90 63-53 88.5T45 265q0 65 27.5 124t81 96.5T284 523q34 0 60-7.5t45-17.5q-23 32-52.5 60T276 610l-110-65-58 99 63 37q-38 22-62.5 34L84 727l60 124 24-9 63.5-27 86.5-46 125 74 59-99-79-47q53-43 99.5-100T598 469.5 627 313q0-94-32-167T498 31.5 335-10zm1 151q34 0 55.5 18.5t32.5 47 11 58.5q0 31-11 59t-33 46.5-55 18.5-55-18.5-33-46.5-11-59q0-30 11-58.5t33-47 55-18.5z"/><glyph glyph-name="ntilde" unicode="ñ" horiz-adv-x="620" d="M390 612q-27 0-47 9t-35.5 20.5T279 662t-27 9q-15 0-20.5-13.5T226 618h-93q0 35 8 71.5t31.5 62T241 777q37 0 61.5-14.5T345 733t35-15q14 0 19.5 14t5.5 39h93q0-34-8-71t-31-62.5-69-25.5zM55 0v530h190v-75h5q11 18 28.5 37.5T325 526t73 14q65 0 102.5-29.5t53.5-74 16-89.5V0H380v309q0 29-15 53.5T313 387q-39 0-53.5-25T245 309V0H55z"/><glyph glyph-name="ograve" unicode="ò" horiz-adv-x="662" d="M266 599L152 779h170l77-179zm65-609q-91 0-156 38T76 128.5 42 265t34 136.5T175 502t156 38q92 0 156.5-38T586 401.5 620 265t-34-136.5T487.5 28 331-10zm0 152q46 0 72.5 35.5T430 265t-26.5 87.5T331 388t-72.5-35.5T232 265t26.5-87.5T331 142z"/><glyph glyph-name="oacute" unicode="ó" horiz-adv-x="662" d="M399 599l-133 1 77 179h170zM331-10q-91 0-156 38T76 128.5 42 265t34 136.5T175 502t156 38q92 0 156.5-38T586 401.5 620 265t-34-136.5T487.5 28 331-10zm0 152q46 0 72.5 35.5T430 265t-26.5 87.5T331 388t-72.5-35.5T232 265t26.5-87.5T331 142z"/><glyph glyph-name="ocircumflex" unicode="ô" horiz-adv-x="662" d="M123 589l135 189h147l135-189H399l-67 102-68-102H123zM331-10q-91 0-156 38T76 128.5 42 265t34 136.5T175 502t156 38q92 0 156.5-38T586 401.5 620 265t-34-136.5T487.5 28 331-10zm0 152q46 0 72.5 35.5T430 265t-26.5 87.5T331 388t-72.5-35.5T232 265t26.5-87.5T331 142z"/><glyph glyph-name="otilde" unicode="õ" horiz-adv-x="662" d="M409 612q-27 0-47 9t-35.5 20.5T298 662t-27 9q-15 0-20.5-13.5T245 618h-93q0 35 8 71.5t31.5 62T260 777q37 0 61.5-14.5T364 733t35-15q14 0 19.5 14t5.5 39h93q0-34-8-71t-31-62.5-69-25.5zM331-10q-91 0-156 38T76 128.5 42 265t34 136.5T175 502t156 38q92 0 156.5-38T586 401.5 620 265t-34-136.5T487.5 28 331-10zm0 152q46 0 72.5 35.5T430 265t-26.5 87.5T331 388t-72.5-35.5T232 265t26.5-87.5T331 142z"/><glyph glyph-name="odieresis" unicode="ö" horiz-adv-x="662" d="M456 578q-45 0-73.5 28.5T354 675q0 41 28.5 69.5T456 773q44 0 73-28.5t29-69.5q0-40-29-68.5T456 578zm-251 0q-45 0-73.5 28.5T103 675q0 41 28.5 69.5T205 773q44 0 73-28.5t29-69.5q0-40-29-68.5T205 578zM331-10q-91 0-156 38T76 128.5 42 265t34 136.5T175 502t156 38q92 0 156.5-38T586 401.5 620 265t-34-136.5T487.5 28 331-10zm0 152q46 0 72.5 35.5T430 265t-26.5 87.5T331 388t-72.5-35.5T232 265t26.5-87.5T331 142z"/><glyph glyph-name="divide" unicode="÷" horiz-adv-x="748" d="M374 472q-43 0-71 29.5T275 571q0 41 28 70t71 29 71-29 28-70q0-40-28-69.5T374 472zM115 286v131h518V286H115zM374 33q-43 0-71 29.5T275 132q0 41 28 70t71 29 71-29 28-70q0-40-28-69.5T374 33z"/><glyph glyph-name="oslash" unicode="ø" horiz-adv-x="668" d="M90-37l52 90q-47 38-72 93.5T45 265q0 74 34 136.5T178 502t156 38q44 0 84-10l21 37h127l-48-83q51-39 78-96t27-123q0-74-34-136.5T490.5 28 334-10q-50 0-94 13l-23-40H90zm145 302q0-22 5-42l96 165h-2q-46 0-72.5-35.5T235 265zm99-123q46 0 72.5 35.5T433 265q0 30-9 56L321 143q6-1 13-1z"/><glyph glyph-name="ugrave" unicode="ù" horiz-adv-x="608" d="M241 599L127 779h170l77-179zM215-10q-58 0-93.5 25t-51 65.5T55 167v363h188V214q0-30 15-50.5t48-20.5q34 0 48 21.5t14 49.5v316h190V0H368v75h-6q-22-40-58-62.5T215-10z"/><glyph glyph-name="uacute" unicode="ú" horiz-adv-x="608" d="M374 599l-133 1 77 179h170zM215-10q-58 0-93.5 25t-51 65.5T55 167v363h188V214q0-30 15-50.5t48-20.5q34 0 48 21.5t14 49.5v316h190V0H368v75h-6q-22-40-58-62.5T215-10z"/><glyph glyph-name="ucircumflex" unicode="û" horiz-adv-x="608" d="M98 589l135 189h147l135-189H374l-67 102-68-102H98zM215-10q-58 0-93.5 25t-51 65.5T55 167v363h188V214q0-30 15-50.5t48-20.5q34 0 48 21.5t14 49.5v316h190V0H368v75h-6q-22-40-58-62.5T215-10z"/><glyph glyph-name="udieresis" unicode="ü" horiz-adv-x="608" d="M431 578q-45 0-73.5 28.5T329 675q0 41 28.5 69.5T431 773q44 0 73-28.5t29-69.5q0-40-29-68.5T431 578zm-251 0q-45 0-73.5 28.5T78 675q0 41 28.5 69.5T180 773q44 0 73-28.5t29-69.5q0-40-29-68.5T180 578zm35-588q-58 0-93.5 25t-51 65.5T55 167v363h188V214q0-30 15-50.5t48-20.5q34 0 48 21.5t14 49.5v316h190V0H368v75h-6q-22-40-58-62.5T215-10z"/><glyph glyph-name="yacute" unicode="ý" horiz-adv-x="606" d="M376 599l-133 1 77 179h170zM109-195q-30 0-46.5 2L46-191v150l12-1 33-1q40 0 66.5 8T204-1L15 530h188l102-320 98 320h188L412 35q-27-76-64-127.5t-93.5-77T109-195z"/><glyph glyph-name="thorn" unicode="þ" horiz-adv-x="678" d="M60-195v955h190V472h8l8.5 10.5 26 23.5 45.5 23.5 67 10.5q58 0 100.5-23.5t71-63T619 365t14-100-14-100-42.5-88.5-71-63T405-10q-39 0-67 10.5T292.5 24t-26 23.5L258 58h-8v-253H60zm183 460q0-30 11-58.5t33-47 55-18.5q34 0 55.5 18.5t32.5 47 11 58.5-11 58.5-32.5 47T342 389q-33 0-55-18.5t-33-47-11-58.5z"/><glyph glyph-name="ydieresis" unicode="ÿ" horiz-adv-x="606" d="M433 578q-45 0-73.5 28.5T331 675q0 41 28.5 69.5T433 773q44 0 73-28.5t29-69.5q0-40-29-68.5T433 578zm-251 0q-45 0-73.5 28.5T80 675q0 41 28.5 69.5T182 773q44 0 73-28.5t29-69.5q0-40-29-68.5T182 578zm-73-773q-30 0-46.5 2L46-191v150l12-1 33-1q40 0 66.5 8T204-1L15 530h188l102-320 98 320h188L412 35q-27-76-64-127.5t-93.5-77T109-195z"/><glyph glyph-name="Amacron" unicode="Ā" horiz-adv-x="791" d="M226 818v102h340V818H226zM20 0l246 740h259L771 0H571l-39 124H259L220 0H20zm290 288h171l-85 273z"/><glyph glyph-name="amacron" unicode="ā" horiz-adv-x="670" d="M165 608v102h340V608H165zm108-68q39 0 67-10.5t45.5-23.5 26-23.5L420 472h8v58h190V0H428v58h-8l-8.5-10.5-26-23.5L340 .5 273-10q-58 0-100.5 23.5t-71 63T59 165 45 265t14 100 42.5 88.5 71 63T273 540zm63-151q-33 0-55-18.5t-33-47-11-58.5 11-58.5 33-47 55-18.5 55 18.5 33 47 11 58.5-11 58.5-33 47-55 18.5z"/><glyph glyph-name="Abreve" unicode="Ă" horiz-adv-x="791" d="M396 802q-60 0-97.5 17T241 860.5t-28 49-9.5 41.5l-1.5 17h119l1.5-9.5L331 936l22-22.5 43-9.5 43.5 9.5 22 22.5 8 22.5 1.5 9.5h119l-1.5-17-9.5-41.5-28-49-57.5-41.5-97.5-17zM20 0l246 740h259L771 0H571l-39 124H259L220 0H20zm290 288h171l-85 273z"/><glyph glyph-name="abreve" unicode="ă" horiz-adv-x="670" d="M335 592q-60 0-97.5 19T180 657.5t-28 55-9.5 46.5l-1.5 19h119l1.5-12 8.5-28.5 22-28.5 43-12 43.5 12 22 28.5 8 28.5 1.5 12h119l-1.5-19-9.5-46.5-28-55-57.5-46.5-97.5-19zm-62-52q39 0 67-10.5t45.5-23.5 26-23.5L420 472h8v58h190V0H428v58h-8l-8.5-10.5-26-23.5L340 .5 273-10q-58 0-100.5 23.5t-71 63T59 165 45 265t14 100 42.5 88.5 71 63T273 540zm63-151q-33 0-55-18.5t-33-47-11-58.5 11-58.5 33-47 55-18.5 55 18.5 33 47 11 58.5-11 58.5-33 47-55 18.5z"/><glyph glyph-name="Aogonek" unicode="Ą" horiz-adv-x="791" d="M20 0l246 740h259L771 0l-12-6.5L734.5-25 722-55q0-13 12-24t40-11q12 0 22 1.5l10 1.5v-102l-17.5-2.5L745-194q-82 0-118 32t-36 75q0 31 15 52.5T640 0h-69l-39 124H259L220 0H20zm290 288h171l-85 273z"/><glyph glyph-name="aogonek" unicode="ą" horiz-adv-x="670" d="M273 540q39 0 67-10.5t45.5-23.5 26-23.5L420 472h8v58h190V0l-12-6.5L581.5-25 569-55q0-13 12-24t40-11q12 0 22 1.5l10 1.5v-102l-17.5-2.5L592-194q-82 0-118 32t-36 75q0 31 15 52.5T487 0h-59v58h-8l-8.5-10.5-26-23.5L340 .5 273-10q-58 0-100.5 23.5t-71 63T59 165 45 265t14 100 42.5 88.5 71 63T273 540zm63-151q-33 0-55-18.5t-33-47-11-58.5 11-58.5 33-47 55-18.5 55 18.5 33 47 11 58.5-11 58.5-33 47-55 18.5z"/><glyph glyph-name="Cacute" unicode="Ć" horiz-adv-x="783" d="M476 807l-133 1 77 179h170zM408-10q-94 0-165 32.5t-118 87T54 232 30 371t24 138.5T125 631t118 86.5T408 750q80 0 137-20t95-51.5 60.5-67 34-67 15-51.5l3.5-20H563l-5 16-20 37.5-46 37.5-82 16q-60 0-100.5-30.5T249 471t-20-100 20-100 60.5-79T410 161q51 0 82 16t46 37 20 37l5 16h190l-3.5-20-15-51.5-34-67-60.5-67L545 10 408-10z"/><glyph glyph-name="cacute" unicode="ć" horiz-adv-x="634" d="M402 599l-133 1 77 179h170zM328-10q-73 0-127 23t-89 62.5T59.5 164 42 265t17.5 101 52.5 88.5 89 62.5 127 23q76 0 125-21.5t77-53 41.5-63.5 17-53.5L592 327H417l-2.5 10-11 23-25 23-44.5 10q-51 0-76.5-37.5T232 265t25.5-90.5T334 137q28 0 44.5 10t25 23 11 23l2.5 10h175l-3.5-21.5-17-53L530 65l-77-53.5L328-10z"/><glyph glyph-name="Cdotaccent" unicode="Ċ" horiz-adv-x="783" d="M408 791q-47 0-77.5 30.5T300 894q0 44 30.5 74t77.5 30 78-30 31-74q0-42-31-72.5T408 791zm0-801q-94 0-165 32.5t-118 87T54 232 30 371t24 138.5T125 631t118 86.5T408 750q80 0 137-20t95-51.5 60.5-67 34-67 15-51.5l3.5-20H563l-5 16-20 37.5-46 37.5-82 16q-60 0-100.5-30.5T249 471t-20-100 20-100 60.5-79T410 161q51 0 82 16t46 37 20 37l5 16h190l-3.5-20-15-51.5-34-67-60.5-67L545 10 408-10z"/><glyph glyph-name="cdotaccent" unicode="ċ" horiz-adv-x="634" d="M334 583q-47 0-77.5 30.5T226 686q0 44 30.5 74t77.5 30 78-30 31-74q0-42-31-72.5T334 583zm-6-593q-73 0-127 23t-89 62.5T59.5 164 42 265t17.5 101 52.5 88.5 89 62.5 127 23q76 0 125-21.5t77-53 41.5-63.5 17-53.5L592 327H417l-2.5 10-11 23-25 23-44.5 10q-51 0-76.5-37.5T232 265t25.5-90.5T334 137q28 0 44.5 10t25 23 11 23l2.5 10h175l-3.5-21.5-17-53L530 65l-77-53.5L328-10z"/><glyph glyph-name="Ccaron" unicode="Č" horiz-adv-x="783" d="M334 798L199 987h141l68-102 67 102h141L481 798H334zm74-808q-94 0-165 32.5t-118 87T54 232 30 371t24 138.5T125 631t118 86.5T408 750q80 0 137-20t95-51.5 60.5-67 34-67 15-51.5l3.5-20H563l-5 16-20 37.5-46 37.5-82 16q-60 0-100.5-30.5T249 471t-20-100 20-100 60.5-79T410 161q51 0 82 16t46 37 20 37l5 16h190l-3.5-20-15-51.5-34-67-60.5-67L545 10 408-10z"/><glyph glyph-name="ccaron" unicode="č" horiz-adv-x="634" d="M260 590L125 779h141l68-102 67 102h141L407 590H260zm68-600q-73 0-127 23t-89 62.5T59.5 164 42 265t17.5 101 52.5 88.5 89 62.5 127 23q76 0 125-21.5t77-53 41.5-63.5 17-53.5L592 327H417l-2.5 10-11 23-25 23-44.5 10q-51 0-76.5-37.5T232 265t25.5-90.5T334 137q28 0 44.5 10t25 23 11 23l2.5 10h175l-3.5-21.5-17-53L530 65l-77-53.5L328-10z"/><glyph glyph-name="Dcaron" unicode="Ď" horiz-adv-x="766" d="M292 800L157 989h141l68-102 67 102h141L439 800H292zM60 0v740h306q92 0 161.5-31.5t116-84.5T713 505t23-135-23-135-69.5-119-116-84.5T366 0H60zm297 572H252V171h105q65 0 106 29.5t60.5 75.5 19.5 96-19.5 95.5-60.5 75T357 572z"/><glyph glyph-name="dcaron" unicode="ď" horiz-adv-x="787" d="M273-10q-58 0-100.5 23.5t-71 63T59 165 45 265t14 100 42.5 88.5 71 63T273 540q39 0 67-10.5t45.5-23.5 26-23.5L420 472h8v288h190V0H428v58h-8l-8.5-10.5-26-23.5L340 .5 273-10zm413 532l10 238h151l-61-238H686zM336 141q33 0 55 18.5t33 47 11 58.5-11 58.5-33 47-55 18.5-55-18.5-33-47-11-58.5 11-58.5 33-47 55-18.5z"/><glyph glyph-name="Dcroat" unicode="Đ" horiz-adv-x="782" d="M76 0v296H5v148h71v296h306q92 0 161.5-31.5t116-84.5T729 505t23-135-23-135-69.5-119-116-84.5T382 0H76zm319 296H268V171h105q65 0 106 29.5t60.5 75.5 19.5 96-19.5 95.5-60.5 75T373 572H268V444h127V296z"/><glyph glyph-name="dcroat" unicode="đ" horiz-adv-x="699" d="M273-10q-58 0-100.5 23.5t-71 63T59 165 45 265t14 100 42.5 88.5 71 63T273 540q39 0 67-10.5t45.5-23.5 26-23.5L420 472h8v93H304v115h124v80h190v-80h76V565h-76V0H428v58h-8l-8.5-10.5-26-23.5L340 .5 273-10zm63 151q33 0 55 18.5t33 47 11 58.5-11 58.5-33 47-55 18.5-55-18.5-33-47-11-58.5 11-58.5 33-47 55-18.5z"/><glyph glyph-name="Emacron" unicode="Ē" horiz-adv-x="656" d="M158 818v102h340V818H158zM60 0v740h536V574H252V454h299V296H252V166h349V0H60z"/><glyph glyph-name="emacron" unicode="ē" horiz-adv-x="624" d="M150 609v102h340V609H150zM326-10q-73 0-126.5 23T111 75.5t-52 89T42 266q0 50 16.5 99t50.5 88.5 86.5 63T320 540q78 0 137-33t92-95.5T582 260v-43H233q3-34 26.5-60t66.5-26q33 0 50 11.5t23 23l6 11.5h174l-5-19-19-46.5L513 56 439.5 9 326-10zm-94 332h169q-1 41-24 61.5T316 404q-32 0-56.5-20T232 322z"/><glyph glyph-name="Edotaccent" unicode="Ė" horiz-adv-x="656" d="M328 793q-47 0-77.5 30.5T220 896q0 44 30.5 74t77.5 30 78-30 31-74q0-42-31-72.5T328 793zM60 0v740h536V574H252V454h299V296H252V166h349V0H60z"/><glyph glyph-name="edotaccent" unicode="ė" horiz-adv-x="624" d="M320 584q-47 0-77.5 30.5T212 687q0 44 30.5 74t77.5 30 78-30 31-74q0-42-31-72.5T320 584zm6-594q-73 0-126.5 23T111 75.5t-52 89T42 266q0 50 16.5 99t50.5 88.5 86.5 63T320 540q78 0 137-33t92-95.5T582 260v-43H233q3-34 26.5-60t66.5-26q33 0 50 11.5t23 23l6 11.5h174l-5-19-19-46.5L513 56 439.5 9 326-10zm-94 332h169q-1 41-24 61.5T316 404q-32 0-56.5-20T232 322z"/><glyph glyph-name="Eogonek" unicode="Ę" horiz-adv-x="656" d="M60 0v740h536V574H252V454h299V296H252V166h349V0l-12-6.5L564.5-25 552-55q0-13 12-24t40-11q12 0 22 1.5l10 1.5v-102l-17.5-2.5L575-194q-82 0-118 32t-36 75q0 31 15 52.5T470 0H60z"/><glyph glyph-name="eogonek" unicode="ę" horiz-adv-x="624" d="M365-194q-82 0-118 32t-36 75q0 30 13 50t31 34q-72 14-119.5 55T65 149.5 42 266q0 50 16.5 99t50.5 88.5 86.5 63T320 540q78 0 137-33t92-95.5T582 260v-43H233q3-34 26.5-60t66.5-26q33 0 50 11.5t23 23l6 11.5h174l-4-16-15.5-40.5-33.5-51L468 22 378-6q-11-7-23.5-19T342-55q0-13 12-24t40-11q12 0 22 1.5l10 1.5v-102l-17.5-2.5L365-194zM232 322h169q-1 41-24 61.5T316 404q-32 0-56.5-20T232 322z"/><glyph glyph-name="Ecaron" unicode="Ě" horiz-adv-x="656" d="M254 800L119 989h141l68-102 67 102h141L401 800H254zM60 0v740h536V574H252V454h299V296H252V166h349V0H60z"/><glyph glyph-name="ecaron" unicode="ě" horiz-adv-x="624" d="M246 591L111 780h141l68-102 67 102h141L393 591H246zm80-601q-73 0-126.5 23T111 75.5t-52 89T42 266q0 50 16.5 99t50.5 88.5 86.5 63T320 540q78 0 137-33t92-95.5T582 260v-43H233q3-34 26.5-60t66.5-26q33 0 50 11.5t23 23l6 11.5h174l-5-19-19-46.5L513 56 439.5 9 326-10zm-94 332h169q-1 41-24 61.5T316 404q-32 0-56.5-20T232 322z"/><glyph glyph-name="Gbreve" unicode="Ğ" horiz-adv-x="795" d="M419 802q-60 0-97.5 19T264 867.5t-28 55-9.5 46.5l-1.5 19h119l1.5-12 8.5-28.5 22-28.5 43-12 43.5 12 22 28.5 8 28.5 1.5 12h119l-1.5-19-9.5-46.5-28-55-57.5-46.5-97.5-19zm-5-812q-96 0-168 32t-120 86-72 122-24 139 24.5 139 73 122.5 121.5 87T419 750q77 0 132.5-19t92.5-49.5 59.5-64.5 34-64.5T753 503l4-19H567l-5.5 15-21 34-44.5 34-77 15q-63 0-105.5-30.5t-64-78.5T228 372t22-102.5 65.5-81T423 157q63 0 100.5 28.5T573 261H400v148h364v-61q0-117-45-197T595.5 30.5 414-10z"/><glyph glyph-name="gbreve" unicode="ğ" horiz-adv-x="667" d="M333 592q-60 0-97.5 19T178 657.5t-28 55-9.5 46.5l-1.5 19h119l1.5-12 8.5-28.5 22-28.5 43-12 43.5 12 22 28.5 8 28.5 1.5 12h119l-1.5-19-9.5-46.5-28-55-57.5-46.5-97.5-19zm-3-806q-78 0-128.5 19t-79 46.5T81-93 64.5-46L61-27h183l6-11 23.5-22L327-71q46 0 73 27t27 80v54h-8q-15-25-50.5-49.5T274 16q-58 0-101.5 22T100 97.5 56.5 182 42 278t14.5 96 43.5 84.5 72.5 59.5T274 540q59 0 95-25t50-49h8v64h190V36q0-46-16.5-90.5t-51-80.5-89-57.5T330-214zm3 376q34 0 56.5 17t33.5 44 11 55q0 30-11 56.5t-33.5 43T333 394q-33 0-55.5-16.5t-34-43T232 278q0-28 11.5-55t34-44 55.5-17z"/><glyph glyph-name="Gdotaccent" unicode="Ġ" horiz-adv-x="795" d="M419 793q-47 0-77.5 30.5T311 896q0 44 30.5 74t77.5 30 78-30 31-74q0-42-31-72.5T419 793zm-5-803q-96 0-168 32t-120 86-72 122-24 139 24.5 139 73 122.5 121.5 87T419 750q77 0 132.5-19t92.5-49.5 59.5-64.5 34-64.5T753 503l4-19H567l-5.5 15-21 34-44.5 34-77 15q-63 0-105.5-30.5t-64-78.5T228 372t22-102.5 65.5-81T423 157q63 0 100.5 28.5T573 261H400v148h364v-61q0-117-45-197T595.5 30.5 414-10z"/><glyph glyph-name="gdotaccent" unicode="ġ" horiz-adv-x="667" d="M333 583q-47 0-77.5 30.5T225 686q0 44 30.5 74t77.5 30 78-30 31-74q0-42-31-72.5T333 583zm-3-797q-78 0-128.5 19t-79 46.5T81-93 64.5-46L61-27h183l6-11 23.5-22L327-71q46 0 73 27t27 80v54h-8q-15-25-50.5-49.5T274 16q-58 0-101.5 22T100 97.5 56.5 182 42 278t14.5 96 43.5 84.5 72.5 59.5T274 540q59 0 95-25t50-49h8v64h190V36q0-46-16.5-90.5t-51-80.5-89-57.5T330-214zm3 376q34 0 56.5 17t33.5 44 11 55q0 30-11 56.5t-33.5 43T333 394q-33 0-55.5-16.5t-34-43T232 278q0-28 11.5-55t34-44 55.5-17z"/><glyph glyph-name="Hbar" unicode="Ħ" horiz-adv-x="791" d="M82 0v527H10v131h72v82h192v-82h244v82h192v-82h71V527h-71V0H518v298H274V0H82zm192 462h244v65H274v-65z"/><glyph glyph-name="hbar" unicode="ħ" horiz-adv-x="649" d="M84 0v565H0v115h84v80h190v-80h116V565H274V455h5q11 18 28.5 37.5T354 526t73 14q65 0 102.5-29.5t53.5-74 16-89.5V0H409v309q0 29-15 53.5T342 387q-39 0-53.5-25T274 309V0H84z"/><glyph glyph-name="Itilde" unicode="Ĩ" horiz-adv-x="312" d="M234 822q-27 0-47 9t-35.5 20.5T123 872t-27 9q-15 0-20.5-13.5T70 828h-93q0 35 8 71.5t31.5 62T85 987q37 0 61.5-14.5T189 943t35-15q14 0 19.5 14t5.5 39h93q0-34-8-71t-31-62.5-69-25.5zM60 0v740h192V0H60z"/><glyph glyph-name="itilde" unicode="ĩ" horiz-adv-x="320" d="M238 612q-27 0-47 9t-35.5 20.5T127 662t-27 9q-15 0-20.5-13.5T74 618h-93q0 35 8 71.5t31.5 62T89 777q37 0 61.5-14.5T193 733t35-15q14 0 19.5 14t5.5 39h93q0-34-8-71t-31-62.5-69-25.5zM65 0v530h190V0H65z"/><glyph glyph-name="Imacron" unicode="Ī" horiz-adv-x="312" d="M-14 818v102h340V818H-14zM60 0v740h192V0H60z"/><glyph glyph-name="imacron" unicode="ī" horiz-adv-x="320" d="M-10 608v102h340V608H-10zM65 0v530h190V0H65z"/><glyph glyph-name="Iogonek" unicode="Į" horiz-adv-x="312" d="M60 0v740h192V0l-12-6.5L215.5-25 203-55q0-13 12-24t40-11q12 0 22 1.5l10 1.5v-102l-17.5-2.5L226-194q-82 0-118 32T72-87q0 31 15 52.5T121 0H60z"/><glyph glyph-name="iogonek" unicode="į" horiz-adv-x="320" d="M160 583q-47 0-77.5 30.5T52 686q0 44 30.5 74t77.5 30 78-30 31-74q0-42-31-72.5T160 583zM65 0v530h190V0l-12-6.5L218.5-25 206-55q0-13 12-24t40-11q12 0 22 1.5l10 1.5v-102l-17.5-2.5L229-194q-82 0-118 32T75-87q0 31 15 52.5T124 0H65z"/><glyph glyph-name="Idotaccent" unicode="İ" horiz-adv-x="312" d="M156 793q-47 0-77.5 30.5T48 896q0 44 30.5 74t77.5 30 78-30 31-74q0-42-31-72.5T156 793zM60 0v740h192V0H60z"/><glyph glyph-name="dotlessi" unicode="ı" horiz-adv-x="320" d="M65 0v530h190V0H65z"/><glyph glyph-name="Lacute" unicode="Ĺ" horiz-adv-x="656" d="M224 809l-133 1 77 179h170zM60 0v740h192V166h349V0H60z"/><glyph glyph-name="lacute" unicode="ĺ" horiz-adv-x="310" d="M223 829l-133 1 77 179h170zM60 0v760h190V0H60z"/><glyph glyph-name="Lcaron" unicode="Ľ" horiz-adv-x="656" d="M82 800L-53 989H88l68-102 67 102h141L229 800H82zM60 0v740h192V166h349V0H60z"/><glyph glyph-name="lcaron" unicode="ľ" horiz-adv-x="418" d="M60 0v760h190V0H60zm257 522l10 238h151l-61-238H317z"/><glyph glyph-name="Lslash" unicode="Ł" horiz-adv-x="667" d="M71 0v266l-80-39v134l80 39v340h192V495l118 58V419l-118-58V166h349V0H71z"/><glyph glyph-name="lslash" unicode="ł" horiz-adv-x="410" d="M110 0v266L10 217v134l100 49v360h190V494l100 49V409l-100-49V0H110z"/><glyph glyph-name="Nacute" unicode="Ń" horiz-adv-x="760" d="M444 809l-133 1 77 179h170zM60 0v740h177l273-411v411h190V0H521L250 390V0H60z"/><glyph glyph-name="nacute" unicode="ń" horiz-adv-x="620" d="M380 599l-133 1 77 179h170zM55 0v530h190v-75h5q11 18 28.5 37.5T325 526t73 14q65 0 102.5-29.5t53.5-74 16-89.5V0H380v309q0 29-15 53.5T313 387q-39 0-53.5-25T245 309V0H55z"/><glyph glyph-name="Ncaron" unicode="Ň" horiz-adv-x="760" d="M302 800L167 989h141l68-102 67 102h141L449 800H302zM60 0v740h177l273-411v411h190V0H521L250 390V0H60z"/><glyph glyph-name="ncaron" unicode="ň" horiz-adv-x="620" d="M238 590L103 779h141l68-102 67 102h141L385 590H238zM55 0v530h190v-75h5q11 18 28.5 37.5T325 526t73 14q65 0 102.5-29.5t53.5-74 16-89.5V0H380v309q0 29-15 53.5T313 387q-39 0-53.5-25T245 309V0H55z"/><glyph glyph-name="Omacron" unicode="Ō" horiz-adv-x="830" d="M245 828v102h340V828H245zM415-10q-96 0-168 32.5t-120 87T54.5 232 30 371t24.5 138.5T127 631t120 86.5T415 750t168-32.5T703.5 631 776 509.5 800 371t-24-139-72.5-122.5-120.5-87T415-10zm0 171q62 0 103 30.5t61.5 79T600 371t-20.5 100-61.5 78.5T415 580q-61 0-102-30.5T251.5 471 231 371t20.5-100.5 61.5-79T415 161z"/><glyph glyph-name="omacron" unicode="ō" horiz-adv-x="662" d="M161 608v102h340V608H161zM331-10q-91 0-156 38T76 128.5 42 265t34 136.5T175 502t156 38q92 0 156.5-38T586 401.5 620 265t-34-136.5T487.5 28 331-10zm0 152q46 0 72.5 35.5T430 265t-26.5 87.5T331 388t-72.5-35.5T232 265t26.5-87.5T331 142z"/><glyph glyph-name="Ohungarumlaut" unicode="Ő" horiz-adv-x="830" d="M374 819l-123 1 47 179h160zm201 0l-123 1 47 179h160zM415-10q-96 0-168 32.5t-120 87T54.5 232 30 371t24.5 138.5T127 631t120 86.5T415 750t168-32.5T703.5 631 776 509.5 800 371t-24-139-72.5-122.5-120.5-87T415-10zm0 171q62 0 103 30.5t61.5 79T600 371t-20.5 100-61.5 78.5T415 580q-61 0-102-30.5T251.5 471 231 371t20.5-100.5 61.5-79T415 161z"/><glyph glyph-name="ohungarumlaut" unicode="ő" horiz-adv-x="662" d="M290 599l-123 1 47 179h160zm201 0l-123 1 47 179h160zM331-10q-91 0-156 38T76 128.5 42 265t34 136.5T175 502t156 38q92 0 156.5-38T586 401.5 620 265t-34-136.5T487.5 28 331-10zm0 152q46 0 72.5 35.5T430 265t-26.5 87.5T331 388t-72.5-35.5T232 265t26.5-87.5T331 142z"/><glyph glyph-name="OE" unicode="Œ" horiz-adv-x="1070" d="M1010 740V574H666V454h299V296H666V166h349V0H429Q326 0 250.5 31.5T126 116 53.5 235 30 370t23.5 135T126 624t124.5 84.5T429 740h581zM223 368q0-49 20.5-95t66-75.5T429 168h45v401h-45q-74 0-119.5-29.5t-66-75.5-20.5-96z"/><glyph glyph-name="oe" unicode="œ" horiz-adv-x="1007" d="M327-10q-89 0-152 38T78.5 128.5 45 265t33.5 136.5T175 502t152 38q120 0 187-78 64 78 184 78 80 0 139-33.5t92-96T962 260v-43H613q3-36 27-61t67-25q32 0 49 11.5t23 23l6 11.5h174l-5-19-19-46.5L893 56 819.5 9 706-10q-126 0-190 79-68-79-189-79zm286 338h168q-1 37-23.5 55.5T700 402q-33 0-57.5-18T613 328zM327 142q46 0 72.5 35.5T426 265t-26.5 87.5T327 388t-72.5-35.5T228 265t26.5-87.5T327 142z"/><glyph glyph-name="Racute" unicode="Ŕ" horiz-adv-x="741" d="M367 809l-133 1 77 179h170zM60 0v740h326q83 0 146-27t98-79.5T665 504q0-75-34.5-127.5T536 297L680 0H469L344 268h-92V0H60zm323 575H252V421h131q40 0 65 20t25 57q0 38-25 57.5T383 575z"/><glyph glyph-name="racute" unicode="ŕ" horiz-adv-x="463" d="M298 599l-133 1 77 179h170zM60 0v530h188v-84h6q8 22 23 43.5t43 36 74 14.5q24 0 36.5-3.5L443 533V345l-13.5 3.5L389 352q-72 0-105.5-38T250 191V0H60z"/><glyph glyph-name="Rcaron" unicode="Ř" horiz-adv-x="741" d="M225 800L90 989h141l68-102 67 102h141L372 800H225zM60 0v740h326q83 0 146-27t98-79.5T665 504q0-75-34.5-127.5T536 297L680 0H469L344 268h-92V0H60zm323 575H252V421h131q40 0 65 20t25 57q0 38-25 57.5T383 575z"/><glyph glyph-name="rcaron" unicode="ř" horiz-adv-x="463" d="M156 590L21 779h141l68-102 67 102h141L303 590H156zM60 0v530h188v-84h6q8 22 23 43.5t43 36 74 14.5q24 0 36.5-3.5L443 533V345l-13.5 3.5L389 352q-72 0-105.5-38T250 191V0H60z"/><glyph glyph-name="Sacute" unicode="Ś" horiz-adv-x="687" d="M412 809l-133 1 77 179h170zM355-10q-77 0-131.5 18t-90 46T77 114t-31 60-13 46l-3 18h194l4-14 17.5-32.5L287 159l76-14q59 0 82.5 22.5T469 216q0 24-17.5 38.5T391 276l-99 16q-64 11-121 35t-92.5 69T43 514q0 70 35.5 123T180 720t157 30q71 0 121-16.5t83-43 53-55.5 30-55.5 13-43l3-16.5H451l-3.5 11.5-15.5 26-35.5 26L333 595q-38 0-60.5-11t-32-27-9.5-32q0-29 27.5-42.5T326 462l104-17q62-10 114.5-35.5t84.5-70T661 228q0-69-36-123T521 20.5 355-10z"/><glyph glyph-name="sacute" unicode="ś" horiz-adv-x="556" d="M356 599l-133 1 77 179h170zM293-10q-70 0-115.5 18.5t-72.5 46T64.5 109 47 154.5L43 173h171l6-12.5 25.5-25L303 123q25 0 36.5 6.5t15 14.5 3.5 12q0 25-45 32l-73 12q-49 8-93 26t-71 51-27 86q0 50 26 90t76.5 63.5T274 540q65 0 108-17.5t69-42.5 39-50.5 17-43l4-17.5H345l-5.5 10.5-22 20.5-48.5 10-43-11.5-11-22.5q0-16 16-22.5t41-11.5l65-12q82-15 134-52.5T523 167q0-76-59-126.5T293-10z"/><glyph glyph-name="Scedilla" unicode="Ş" horiz-adv-x="687" d="M319-263q-20 0-41 2t-34.5 4l-13.5 2v92l13-1.5 31.5-3L309-169q44 0 58 11.5t14 23.5-9.5 19-25.5 7q-21 0-37.5-9.5L292-127l-64 65 43 59Q203 9 158.5 37T88 99t-38.5 66-16 52.5L30 238h194l4-14 17.5-32.5L287 159l76-14q59 0 82.5 22.5T469 216q0 24-17.5 38.5T391 276l-99 16q-64 11-121 35t-92.5 69T43 514q0 70 35.5 123T180 720t157 30q71 0 121-16.5t83-43 53-55.5 30-55.5 13-43l3-16.5H451l-3.5 11.5-15.5 26-35.5 26L333 595q-38 0-60.5-11t-32-27-9.5-32q0-29 27.5-42.5T326 462l104-17q62-10 114.5-35.5t84.5-70T661 228q0-66-33-118t-95.5-83.5T380-9l-14-20q7 1 16 1 50 0 80-31t30-77q0-50-42-88.5T319-263z"/><glyph glyph-name="scedilla" unicode="ş" horiz-adv-x="556" d="M263-263q-20 0-41 2t-34.5 4l-13.5 2v92l13-1.5 31.5-3L253-169q44 0 58 11.5t14 23.5-9.5 19-25.5 7q-21 0-37.5-9.5L236-127l-64 65 44 60q-48 10-79.5 31T86 74.5t-28 47-12 37L43 173h171l6-12.5 25.5-25L303 123q25 0 36.5 6.5t15 14.5 3.5 12q0 25-45 32l-73 12q-49 8-93 26t-71 51-27 86q0 50 26 90t76.5 63.5T274 540q65 0 108-17.5t69-42.5 39-50.5 17-43l4-17.5H345l-5.5 10.5-22 20.5-48.5 10-43-11.5-11-22.5q0-16 16-22.5t41-11.5l65-12q82-15 134-52.5T523 167q0-71-51-119.5T325-9l-15-20q7 1 16 1 50 0 80-31t30-77q0-50-42-88.5T263-263z"/><glyph glyph-name="Scaron" unicode="Š" horiz-adv-x="687" d="M270 800L135 989h141l68-102 67 102h141L417 800H270zm85-810q-77 0-131.5 18t-90 46T77 114t-31 60-13 46l-3 18h194l4-14 17.5-32.5L287 159l76-14q59 0 82.5 22.5T469 216q0 24-17.5 38.5T391 276l-99 16q-64 11-121 35t-92.5 69T43 514q0 70 35.5 123T180 720t157 30q71 0 121-16.5t83-43 53-55.5 30-55.5 13-43l3-16.5H451l-3.5 11.5-15.5 26-35.5 26L333 595q-38 0-60.5-11t-32-27-9.5-32q0-29 27.5-42.5T326 462l104-17q62-10 114.5-35.5t84.5-70T661 228q0-69-36-123T521 20.5 355-10z"/><glyph glyph-name="scaron" unicode="š" horiz-adv-x="556" d="M79 758h141l68-81 67 81h141L361 599H214zM293-10q-70 0-115.5 18.5t-72.5 46T64.5 109 47 154.5L43 173h171l6-12.5 25.5-25L303 123q25 0 36.5 6.5t15 14.5 3.5 12q0 25-45 32l-73 12q-49 8-93 26t-71 51-27 86q0 50 26 90t76.5 63.5T274 540q65 0 108-17.5t69-42.5 39-50.5 17-43l4-17.5H345l-5.5 10.5-22 20.5-48.5 10-43-11.5-11-22.5q0-16 16-22.5t41-11.5l65-12q82-15 134-52.5T523 167q0-76-59-126.5T293-10z"/><glyph glyph-name="uni0162" unicode="Ţ" horiz-adv-x="710" d="M259 0v574H35v166h640V574H451V0h-23l-22-29q7 1 16 1 50 0 80-31t30-77q0-50-42-88.5T359-263q-20 0-41 2t-34.5 4l-13.5 2v92l13-1.5 31.5-3L349-169q44 0 58 11.5t14 23.5-9.5 19-25.5 7q-21 0-37.5-9.5L332-127l-64 65 45 62h-54z"/><glyph glyph-name="uni0163" unicode="ţ" horiz-adv-x="444" d="M311-10h-9l-14-19q7 1 16 1 50 0 80-31t30-77q0-50-42-88.5T241-263q-20 0-41 2t-34.5 4l-13.5 2v92l13-1.5 31.5-3L231-169q44 0 58 11.5t14 23.5-9.5 19-25.5 7q-21 0-37.5-9.5L214-127l-64 65 53 72q-35 16-53.5 40.5t-27 51-10 50.5-1.5 39v189H25v150h86v130h190V530h103V380H301V198q0-28 15-45.5t55-17.5q16 0 27 2.5l11 2.5V0l-29.5-5-68.5-5z"/><glyph glyph-name="Tcaron" unicode="Ť" horiz-adv-x="710" d="M281 800L146 989h141l68-102 67 102h141L428 800H281zM259 0v574H35v166h640V574H451V0H259z"/><glyph glyph-name="tcaron" unicode="ť" horiz-adv-x="479" d="M343 578l10 238h151l-61-238H343zM311-10q-60 0-98 15.5t-59 40T124 98t-11 52.5-2 40.5v189H25v150h86v130h190V530h103V380H301V198q0-28 15-45.5t55-17.5q16 0 27 2.5l11 2.5V0l-29.5-5-68.5-5z"/><glyph glyph-name="Tbar" unicode="Ŧ" horiz-adv-x="710" d="M259 0v313H74v115h185v146H35v166h640V574H451V428h185V313H451V0H259z"/><glyph glyph-name="tbar" unicode="ŧ" horiz-adv-x="444" d="M32 212v123h79v45H25v150h86v130h190V530h103V380H301v-45h70V212h-70v-14q0-28 15-45.5t55-17.5q16 0 27 2.5l11 2.5V0l-29.5-5-68.5-5q-60 0-98 15.5t-59 40T124 98t-11 52.5-2 40.5v21H32z"/><glyph glyph-name="Utilde" unicode="Ũ" horiz-adv-x="746" d="M451 822q-27 0-47 9t-35.5 20.5T340 872t-27 9q-15 0-20.5-13.5T287 828h-93q0 35 8 71.5t31.5 62T302 987q37 0 61.5-14.5T406 943t35-15q14 0 19.5 14t5.5 39h93q0-34-8-71t-31-62.5-69-25.5zM373-10q-57 0-113 16T159 58t-72 95.5T60 300v440h192V300q0-54 29-92t92-38 92 38 29 92v440h192V300q0-87-27-146.5T587 58 486 6 373-10z"/><glyph glyph-name="utilde" unicode="ũ" horiz-adv-x="608" d="M384 612q-27 0-47 9t-35.5 20.5T273 662t-27 9q-15 0-20.5-13.5T220 618h-93q0 35 8 71.5t31.5 62T235 777q37 0 61.5-14.5T339 733t35-15q14 0 19.5 14t5.5 39h93q0-34-8-71t-31-62.5-69-25.5zM215-10q-58 0-93.5 25t-51 65.5T55 167v363h188V214q0-30 15-50.5t48-20.5q34 0 48 21.5t14 49.5v316h190V0H368v75h-6q-22-40-58-62.5T215-10z"/><glyph glyph-name="Umacron" unicode="Ū" horiz-adv-x="746" d="M203 818v102h340V818H203zM373-10q-57 0-113 16T159 58t-72 95.5T60 300v440h192V300q0-54 29-92t92-38 92 38 29 92v440h192V300q0-87-27-146.5T587 58 486 6 373-10z"/><glyph glyph-name="umacron" unicode="ū" horiz-adv-x="608" d="M136 608v102h340V608H136zm79-618q-58 0-93.5 25t-51 65.5T55 167v363h188V214q0-30 15-50.5t48-20.5q34 0 48 21.5t14 49.5v316h190V0H368v75h-6q-22-40-58-62.5T215-10z"/><glyph glyph-name="Uring" unicode="Ů" horiz-adv-x="746" d="M373 788q-39 0-71 19t-51 51-19 71 19 70.5 51 50.5 71 19 71-19 51-50.5 19-70.5-19-71-51-51-71-19zm0 90q21 0 36 14.5t15 36.5q0 21-15 35.5T373 979t-36-14.5-15-35.5q0-22 15-36.5t36-14.5zm0-888q-57 0-113 16T159 58t-72 95.5T60 300v440h192V300q0-54 29-92t92-38 92 38 29 92v440h192V300q0-87-27-146.5T587 58 486 6 373-10z"/><glyph glyph-name="uring" unicode="ů" horiz-adv-x="608" d="M306 578q-39 0-71 19t-51 51-19 71 19 70.5 51 50.5 71 19 71-19 51-50.5 19-70.5-19-71-51-51-71-19zm0 90q21 0 36 14.5t15 36.5q0 21-15 35.5T306 769t-36-14.5-15-35.5q0-22 15-36.5t36-14.5zM215-10q-58 0-93.5 25t-51 65.5T55 167v363h188V214q0-30 15-50.5t48-20.5q34 0 48 21.5t14 49.5v316h190V0H368v75h-6q-22-40-58-62.5T215-10z"/><glyph glyph-name="Uhungarumlaut" unicode="Ű" horiz-adv-x="746" d="M332 809l-123 1 47 179h160zm201 0l-123 1 47 179h160zM373-10q-57 0-113 16T159 58t-72 95.5T60 300v440h192V300q0-54 29-92t92-38 92 38 29 92v440h192V300q0-87-27-146.5T587 58 486 6 373-10z"/><glyph glyph-name="uhungarumlaut" unicode="ű" horiz-adv-x="608" d="M265 599l-123 1 47 179h160zm201 0l-123 1 47 179h160zM215-10q-58 0-93.5 25t-51 65.5T55 167v363h188V214q0-30 15-50.5t48-20.5q34 0 48 21.5t14 49.5v316h190V0H368v75h-6q-22-40-58-62.5T215-10z"/><glyph glyph-name="Uogonek" unicode="Ų" horiz-adv-x="746" d="M417-198q-82 0-118 32t-36 75q0 31 14 51.5T310-5q-65 9-122.5 43T95 136 60 300v440h192V300q0-54 29-92t92-38 92 38 29 92v440h192V300q0-99-34-162t-90-97.5T442-4q-4-2-15.5-8.5t-22-18.5T394-59q0-13 12-24t40-11q12 0 22 1.5l10 1.5v-102l-17.5-2.5L417-198z"/><glyph glyph-name="uogonek" unicode="ų" horiz-adv-x="608" d="M215-10q-58 0-93.5 25t-51 65.5T55 167v363h188V214q0-30 15-50.5t48-20.5q34 0 48 21.5t14 49.5v316h190V0l-12-6.5L521.5-25 509-55q0-13 12-24t40-11q12 0 22 1.5l10 1.5v-102l-17.5-2.5L532-194q-82 0-118 32t-36 75q0 31 15 52.5T427 0h-59v75h-6q-22-40-58-62.5T215-10z"/><glyph glyph-name="Wcircumflex" unicode="Ŵ" horiz-adv-x="1071" d="M328 799l135 189h147l135-189H604l-67 102-68-102H328zM186 0L10 740h190l116-497 120 497h199l120-497 116 497h190L885 0H632l-96 406L439 0H186z"/><glyph glyph-name="wcircumflex" unicode="ŵ" horiz-adv-x="893" d="M239 589l135 189h147l135-189H515l-67 102-68-102H239zM174 0L15 530h188l74-304 85 304h169l85-304 74 304h188L719 0H519l-72 255L374 0H174z"/><glyph glyph-name="Ycircumflex" unicode="Ŷ" horiz-adv-x="754" d="M169 799l135 189h147l135-189H445l-67 102-68-102H169zM281 0v247L20 740h210l147-296 146 296h211L473 247V0H281z"/><glyph glyph-name="ycircumflex" unicode="ŷ" horiz-adv-x="606" d="M100 589l135 189h147l135-189H376l-67 102-68-102H100zm9-784q-30 0-46.5 2L46-191v150l12-1 33-1q40 0 66.5 8T204-1L15 530h188l102-320 98 320h188L412 35q-27-76-64-127.5t-93.5-77T109-195z"/><glyph glyph-name="Ydieresis" unicode="Ÿ" horiz-adv-x="754" d="M502 788q-45 0-73.5 28.5T400 885q0 41 28.5 69.5T502 983q44 0 73-28.5t29-69.5q0-40-29-68.5T502 788zm-251 0q-45 0-73.5 28.5T149 885q0 41 28.5 69.5T251 983q44 0 73-28.5t29-69.5q0-40-29-68.5T251 788zM281 0v247L20 740h210l147-296 146 296h211L473 247V0H281z"/><glyph glyph-name="Zacute" unicode="Ź" horiz-adv-x="671" d="M387 809l-133 1 77 179h170zM39 0v133l339 440H39v167h592V608L290 168h341V0H39z"/><glyph glyph-name="zacute" unicode="ź" horiz-adv-x="533" d="M317 599l-133 1 77 179h170zM45 0v129l236 254H50v147h457V401L271 147h236V0H45z"/><glyph glyph-name="Zdotaccent" unicode="Ż" horiz-adv-x="671" d="M319 793q-47 0-77.5 30.5T211 896q0 44 30.5 74t77.5 30 78-30 31-74q0-42-31-72.5T319 793zM39 0v133l339 440H39v167h592V608L290 168h341V0H39z"/><glyph glyph-name="zdotaccent" unicode="ż" horiz-adv-x="533" d="M249 583q-47 0-77.5 30.5T141 686q0 44 30.5 74t77.5 30 78-30 31-74q0-42-31-72.5T249 583zM45 0v129l236 254H50v147h457V401L271 147h236V0H45z"/><glyph glyph-name="Zcaron" unicode="Ž" horiz-adv-x="671" d="M245 800L110 989h141l68-102 67 102h141L392 800H245zM39 0v133l339 440H39v167h592V608L290 168h341V0H39z"/><glyph glyph-name="zcaron" unicode="ž" horiz-adv-x="533" d="M175 590L40 779h141l68-102 67 102h141L322 590H175zM45 0v129l236 254H50v147h457V401L271 147h236V0H45z"/><glyph glyph-name="Ohorn" unicode="Ơ" horiz-adv-x="830" d="M415-10q-96 0-168 32.5t-120 87T54.5 232 30 371t24.5 138.5T127 631t120 86.5T415 750q16 0 31-1h123q62 0 62 62v56h157v-80q0-61-25.5-93.5T681 654q59-55 89-130t30-153q0-71-24-139t-72.5-122.5-120.5-87T415-10zm0 171q62 0 103 30.5t61.5 79T600 371t-20.5 100-61.5 78.5T415 580q-61 0-102-30.5T251.5 471 231 371t20.5-100.5 61.5-79T415 161z"/><glyph glyph-name="ohorn" unicode="ơ" horiz-adv-x="687" d="M334-10q-91 0-156 38T79 128.5 45 265t34 136.5T178 502t156 38h121q40 0 40 40v78h147v-87q0-103-91-117 35-37 53.5-86T623 265q0-74-34-136.5T490.5 28 334-10zm0 152q46 0 72.5 35.5T433 265t-26.5 87.5T334 388t-72.5-35.5T235 265t26.5-87.5T334 142z"/><glyph glyph-name="Uhorn" unicode="Ư" horiz-adv-x="746" d="M373-10q-57 0-113 16T159 58t-72 95.5T60 300v440h192V300q0-54 29-92t92-38 92 38 29 92v440h121q40 0 40 40v78h147v-87q0-58-30-88.5T686 652V300q0-87-27-146.5T587 58 486 6 373-10z"/><glyph glyph-name="uhorn" unicode="ư" horiz-adv-x="603" d="M210-10q-58 0-93.5 25t-51 65.5T50 167v363h188V214q0-30 15-50.5t48-20.5q34 0 48 21.5t14 49.5v316h121q40 0 40 40v78h147v-87q0-58-30.5-88.5T553 442V0H363v75h-6q-22-40-58-62.5T210-10z"/><glyph glyph-name="Gcaron" unicode="Ǧ" horiz-adv-x="795" d="M345 800L210 989h141l68-102 67 102h141L492 800H345zm69-810q-96 0-168 32t-120 86-72 122-24 139 24.5 139 73 122.5 121.5 87T419 750q77 0 132.5-19t92.5-49.5 59.5-64.5 34-64.5T753 503l4-19H567l-5.5 15-21 34-44.5 34-77 15q-63 0-105.5-30.5t-64-78.5T228 372t22-102.5 65.5-81T423 157q63 0 100.5 28.5T573 261H400v148h364v-61q0-117-45-197T595.5 30.5 414-10z"/><glyph glyph-name="gcaron" unicode="ǧ" horiz-adv-x="667" d="M259 590L124 779h141l68-102 67 102h141L406 590H259zm71-804q-78 0-128.5 19t-79 46.5T81-93 64.5-46L61-27h183l6-11 23.5-22L327-71q46 0 73 27t27 80v54h-8q-15-25-50.5-49.5T274 16q-58 0-101.5 22T100 97.5 56.5 182 42 278t14.5 96 43.5 84.5 72.5 59.5T274 540q59 0 95-25t50-49h8v64h190V36q0-46-16.5-90.5t-51-80.5-89-57.5T330-214zm3 376q34 0 56.5 17t33.5 44 11 55q0 30-11 56.5t-33.5 43T333 394q-33 0-55.5-16.5t-34-43T232 278q0-28 11.5-55t34-44 55.5-17z"/><glyph glyph-name="circumflex" unicode="ˆ" horiz-adv-x="647" d="M115 551l135 189h147l135-189H391l-67 102-68-102H115z"/><glyph glyph-name="caron" unicode="ˇ" horiz-adv-x="500" d="M169 590L34 779h141l68-102 67 102h141L316 590H169z"/><glyph glyph-name="breve" unicode="˘" horiz-adv-x="463" d="M193 592q-60 0-97.5 19T38 657.5t-28 55T.5 759L-1 778h119l1.5-12 8.5-28.5 22-28.5 43-12 43.5 12 22 28.5 8 28.5 1.5 12h119l-1.5-19-9.5-46.5-28-55-57.5-46.5-97.5-19z"/><glyph glyph-name="dotaccent" unicode="˙" horiz-adv-x="260" d="M160 583q-47 0-77.5 30.5T52 686q0 44 30.5 74t77.5 30 78-30 31-74q0-42-31-72.5T160 583z"/><glyph glyph-name="ring" unicode="˚" horiz-adv-x="372" d="M186 578q-39 0-71 19t-51 51-19 71 19 70.5 51 50.5 71 19 71-19 51-50.5 19-70.5-19-71-51-51-71-19zm0 90q21 0 36 14.5t15 36.5q0 21-15 35.5T186 769t-36-14.5-15-35.5q0-22 15-36.5t36-14.5z"/><glyph glyph-name="ogonek" unicode="˛" horiz-adv-x="265" d="M184-235q-82 0-118 32t-36 75q0 36 18.5 59t42 35 42 17l18.5 5 59-29-12-6-24.5-18.5L161-96q0-13 12-24t40-11q12 0 22 1.5l10 1.5v-102l-17.5-2.5L184-235z"/><glyph glyph-name="tilde" unicode="˜" horiz-adv-x="413" d="M285 612q-27 0-47 9t-35.5 20.5T174 662t-27 9q-15 0-20.5-13.5T121 618H28q0 35 8 71.5t31.5 62T136 777q37 0 61.5-14.5T240 733t35-15q14 0 19.5 14t5.5 39h93q0-34-8-71t-31-62.5-69-25.5z"/><glyph glyph-name="gravecomb" unicode="̀" d="M116 599L2 779h170l77-179z"/><glyph glyph-name="acutecomb" unicode="́" d="M145 599l-133 1 77 179h170z"/><glyph glyph-name="uni0302" unicode="̂" d="M34 589l135 189h147l135-189H310l-67 102-68-102H34z"/><glyph glyph-name="tildecomb" unicode="̃" d="M283 612q-27 0-47 9t-35.5 20.5T172 662t-27 9q-15 0-20.5-13.5T119 618H26q0 35 8 71.5t31.5 62T134 777q37 0 61.5-14.5T238 733t35-15q14 0 19.5 14t5.5 39h93q0-34-8-71t-31-62.5-69-25.5z"/><glyph glyph-name="uni0304" unicode="̄" d="M120 653v102h340V653H120z"/><glyph glyph-name="uni0306" unicode="̆" d="M175 592q-60 0-97.5 19T20 657.5t-28 55-9.5 46.5l-1.5 19h119l1.5-12 8.5-28.5 22-28.5 43-12 43.5 12 22 28.5 8 28.5 1.5 12h119l-1.5-19-9.5-46.5-28-55-57.5-46.5-97.5-19z"/><glyph glyph-name="uni0307" unicode="̇" d="M189 583q-47 0-77.5 30.5T81 686q0 44 30.5 74t77.5 30 78-30 31-74q0-42-31-72.5T189 583z"/><glyph glyph-name="uni0308" unicode="̈" d="M429 578q-45 0-73.5 28.5T327 675q0 41 28.5 69.5T429 773q44 0 73-28.5t29-69.5q0-40-29-68.5T429 578zm-251 0q-45 0-73.5 28.5T76 675q0 41 28.5 69.5T178 773q44 0 73-28.5t29-69.5q0-40-29-68.5T178 578z"/><glyph glyph-name="hookabovecomb" unicode="̉" d="M137 585v33q0 15 6.5 27.5T165 665l16 8q19 10 30 19.5t11 25.5q0 12-9 20.5t-23 8.5q-17 0-24.5-9t-9-18.5L155 710H54q-1 28 12 57t43 49 79 20q66 0 104-34t38-80q0-40-26.5-64.5T244 615l-5-3v-27H137z"/><glyph glyph-name="uni030A" unicode="̊" d="M186 578q-39 0-71 19t-51 51-19 71 19 70.5 51 50.5 71 19 71-19 51-50.5 19-70.5-19-71-51-51-71-19zm0 90q21 0 36 14.5t15 36.5q0 21-15 35.5T186 769t-36-14.5-15-35.5q0-22 15-36.5t36-14.5z"/><glyph glyph-name="uni030B" unicode="̋" d="M153 599l-123 1 47 179h160zm201 0l-123 1 47 179h160z"/><glyph glyph-name="uni030C" unicode="̌" d="M169 590L34 779h141l68-102 67 102h141L316 590H169z"/><glyph glyph-name="uni0312" unicode="̒" d="M214 873l-64-109q34-2 57-26t23-58q0-35-24-59.5T144 596q-37 0-62.5 24T56 683q0 34 22.5 74T147 863l7 10h60z"/><glyph glyph-name="uni031B" unicode="̛" d="M439 648v-87q0-58-30.5-88.5T320 442H131v88h121q40 0 40 40v78h147z"/><glyph glyph-name="dotbelowcomb" unicode="̣" d="M95-260q-40 0-64.5 26.5T6-171q0 37 24.5 63T95-82q38 0 63.5-26t25.5-63q0-36-25.5-62.5T95-260z"/><glyph glyph-name="uni0326" unicode="̦" d="M28-239l64 109q-34 2-57 26T12-46q0 35 24 59.5T98 38t63-24 25-63q0-34-22-74T95-229l-7-10H28z"/><glyph glyph-name="uni0327" unicode="̧" d="M69-248q-20 0-41 2t-34.5 4l-13.5 2v96l13-1.5 31.5-3L59-150q44 0 58 11.5t14 23.5-9.5 19T96-89q-21 0-37.5-9.5L42-108l-64 65 68 93h115l-45-60q7 1 16 1 50 0 80-31t30-77q0-33-18.5-63t-57-49T69-248z"/><glyph glyph-name="uni0328" unicode="̨" d="M194-235q-82 0-118 32t-36 75q0 36 18.5 59t42 35 42 17l18.5 5 59-29-12-6-24.5-18.5L171-96q0-13 12-24t40-11q12 0 22 1.5l10 1.5v-102l-17.5-2.5L194-235z"/><glyph glyph-name="uni1E20" unicode="Ḡ" horiz-adv-x="795" d="M249 818v102h340V818H249zM414-10q-96 0-168 32t-120 86-72 122-24 139 24.5 139 73 122.5 121.5 87T419 750q77 0 132.5-19t92.5-49.5 59.5-64.5 34-64.5T753 503l4-19H567l-5.5 15-21 34-44.5 34-77 15q-63 0-105.5-30.5t-64-78.5T228 372t22-102.5 65.5-81T423 157q63 0 100.5 28.5T573 261H400v148h364v-61q0-117-45-197T595.5 30.5 414-10z"/><glyph glyph-name="uni1E21" unicode="ḡ" horiz-adv-x="667" d="M163 608v102h340V608H163zm167-822q-78 0-128.5 19t-79 46.5T81-93 64.5-46L61-27h183l6-11 23.5-22L327-71q46 0 73 27t27 80v54h-8q-15-25-50.5-49.5T274 16q-58 0-101.5 22T100 97.5 56.5 182 42 278t14.5 96 43.5 84.5 72.5 59.5T274 540q59 0 95-25t50-49h8v64h190V36q0-46-16.5-90.5t-51-80.5-89-57.5T330-214zm3 376q34 0 56.5 17t33.5 44 11 55q0 30-11 56.5t-33.5 43T333 394q-33 0-55.5-16.5t-34-43T232 278q0-28 11.5-55t34-44 55.5-17z"/><glyph glyph-name="Wgrave" unicode="Ẁ" horiz-adv-x="1071" d="M471 809L357 989h170l77-179zM186 0L10 740h190l116-497 120 497h199l120-497 116 497h190L885 0H632l-96 406L439 0H186z"/><glyph glyph-name="wgrave" unicode="ẁ" horiz-adv-x="893" d="M382 599L268 779h170l77-179zM174 0L15 530h188l74-304 85 304h169l85-304 74 304h188L719 0H519l-72 255L374 0H174z"/><glyph glyph-name="Wacute" unicode="Ẃ" horiz-adv-x="1071" d="M604 809l-133 1 77 179h170zM186 0L10 740h190l116-497 120 497h199l120-497 116 497h190L885 0H632l-96 406L439 0H186z"/><glyph glyph-name="wacute" unicode="ẃ" horiz-adv-x="893" d="M515 599l-133 1 77 179h170zM174 0L15 530h188l74-304 85 304h169l85-304 74 304h188L719 0H519l-72 255L374 0H174z"/><glyph glyph-name="Wdieresis" unicode="Ẅ" horiz-adv-x="1071" d="M661 788q-45 0-73.5 28.5T559 885q0 41 28.5 69.5T661 983q44 0 73-28.5t29-69.5q0-40-29-68.5T661 788zm-251 0q-45 0-73.5 28.5T308 885q0 41 28.5 69.5T410 983q44 0 73-28.5t29-69.5q0-40-29-68.5T410 788zM186 0L10 740h190l116-497 120 497h199l120-497 116 497h190L885 0H632l-96 406L439 0H186z"/><glyph glyph-name="wdieresis" unicode="ẅ" horiz-adv-x="893" d="M572 578q-45 0-73.5 28.5T470 675q0 41 28.5 69.5T572 773q44 0 73-28.5t29-69.5q0-40-29-68.5T572 578zm-251 0q-45 0-73.5 28.5T219 675q0 41 28.5 69.5T321 773q44 0 73-28.5t29-69.5q0-40-29-68.5T321 578zM174 0L15 530h188l74-304 85 304h169l85-304 74 304h188L719 0H519l-72 255L374 0H174z"/><glyph glyph-name="uni1E9E" unicode="ẞ" horiz-adv-x="737" d="M412-10q-42 0-68.5 4L317-2v154l19-2.5 44-2.5q71 0 98 24.5t27 55.5q0 32-26.5 52.5T388 300h-43l-1 99 121 188-23.5 3.5L395 594q-71 0-108.5-47T249 421V0H60v421q0 55 16.5 112.5t56 106.5T241 719.5 414 750q70 0 125-11.5t86.5-23L657 704v-90L521 400q25-6 55.5-18t58-34.5 45-56.5 17.5-83q0-53-30.5-103.5T573 22 412-10z"/><glyph glyph-name="uni1EA0" unicode="Ạ" horiz-adv-x="791" d="M20 0l246 740h259L771 0H571l-39 124H259L220 0H20zm290 288h171l-85 273zm86-548q-40 0-64.5 26.5T307-171q0 37 24.5 63T396-82q38 0 63.5-26t25.5-63q0-36-25.5-62.5T396-260z"/><glyph glyph-name="uni1EA1" unicode="ạ" horiz-adv-x="670" d="M273 540q39 0 67-10.5t45.5-23.5 26-23.5L420 472h8v58h190V0H428v58h-8l-8.5-10.5-26-23.5L340 .5 273-10q-58 0-100.5 23.5t-71 63T59 165 45 265t14 100 42.5 88.5 71 63T273 540zm63-151q-33 0-55-18.5t-33-47-11-58.5 11-58.5 33-47 55-18.5 55 18.5 33 47 11 58.5-11 58.5-33 47-55 18.5zm-1-649q-40 0-64.5 26T246-171q0 38 24.5 63.5T335-82q38 0 63.5-25.5T424-171q0-37-25.5-63T335-260z"/><glyph glyph-name="uni1EA2" unicode="Ả" horiz-adv-x="791" d="M346 795v33q0 15 6.5 27.5T374 875l16 8q19 10 30 19.5t11 25.5q0 12-9 20.5t-23 8.5q-17 0-24.5-9t-9-18.5L364 920H263q-1 28 12 57t43 49 79 20q66 0 104-34t38-80q0-40-26.5-64.5T453 825l-5-3v-27H346zM20 0l246 740h259L771 0H571l-39 124H259L220 0H20zm290 288h171l-85 273z"/><glyph glyph-name="uni1EA3" unicode="ả" horiz-adv-x="670" d="M285 585v33q0 15 6.5 27.5T313 665l16 8q19 10 30 19.5t11 25.5q0 12-9 20.5t-23 8.5q-17 0-24.5-9t-9-18.5L303 710H202q-1 28 12 57t43 49 79 20q66 0 104-34t38-80q0-40-26.5-64.5T392 615l-5-3v-27H285zm-12-45q39 0 67-10.5t45.5-23.5 26-23.5L420 472h8v58h190V0H428v58h-8l-8.5-10.5-26-23.5L340 .5 273-10q-58 0-100.5 23.5t-71 63T59 165 45 265t14 100 42.5 88.5 71 63T273 540zm63-151q-33 0-55-18.5t-33-47-11-58.5 11-58.5 33-47 55-18.5 55 18.5 33 47 11 58.5-11 58.5-33 47-55 18.5z"/><glyph glyph-name="uni1EA4" unicode="Ấ" horiz-adv-x="791" d="M667 929l-133 1 77 179h170zM187 799l135 159h147l135-159H463l-67 81-68-81H187zM20 0l246 740h259L771 0H571l-39 124H259L220 0H20zm290 288h171l-85 273z"/><glyph glyph-name="uni1EA5" unicode="ấ" horiz-adv-x="670" d="M606 719l-133 1 77 179h170zM126 589l135 159h147l135-159H402l-67 81-68-81H126zm147-49q39 0 67-10.5t45.5-23.5 26-23.5L420 472h8v58h190V0H428v58h-8l-8.5-10.5-26-23.5L340 .5 273-10q-58 0-100.5 23.5t-71 63T59 165 45 265t14 100 42.5 88.5 71 63T273 540zm63-151q-33 0-55-18.5t-33-47-11-58.5 11-58.5 33-47 55-18.5 55 18.5 33 47 11 58.5-11 58.5-33 47-55 18.5z"/><glyph glyph-name="uni1EA6" unicode="Ầ" horiz-adv-x="791" d="M555 929l-114 180h170l77-179zM188 799l135 159h147l135-159H464l-67 81-68-81H188zM20 0l246 740h259L771 0H571l-39 124H259L220 0H20zm290 288h171l-85 273z"/><glyph glyph-name="uni1EA7" unicode="ầ" horiz-adv-x="670" d="M494 719L380 899h170l77-179zM127 589l135 159h147l135-159H403l-67 81-68-81H127zm146-49q39 0 67-10.5t45.5-23.5 26-23.5L420 472h8v58h190V0H428v58h-8l-8.5-10.5-26-23.5L340 .5 273-10q-58 0-100.5 23.5t-71 63T59 165 45 265t14 100 42.5 88.5 71 63T273 540zm63-151q-33 0-55-18.5t-33-47-11-58.5 11-58.5 33-47 55-18.5 55 18.5 33 47 11 58.5-11 58.5-33 47-55 18.5z"/><glyph glyph-name="uni1EA8" unicode="Ẩ" horiz-adv-x="791" d="M564 907v33q0 15 6.5 27.5T592 987l16 8q19 10 30 19.5t11 25.5q0 12-9 20.5t-23 8.5q-17 0-24.5-9t-9-18.5l-1.5-9.5H481q-1 28 12 57t43 49 79 20q66 0 104-34t38-80q0-40-26.5-64.5T671 937l-5-3v-27H564zM182 799l135 159h147l135-159H458l-67 81-68-81H182zM20 0l246 740h259L771 0H571l-39 124H259L220 0H20zm290 288h171l-85 273z"/><glyph glyph-name="uni1EA9" unicode="ẩ" horiz-adv-x="670" d="M503 697v33q0 15 6.5 27.5T531 777l16 8q19 10 30 19.5t11 25.5q0 12-9 20.5t-23 8.5q-17 0-24.5-9t-9-18.5L521 822H420q-1 28 12 57t43 49 79 20q66 0 104-34t38-80q0-40-26.5-64.5T610 727l-5-3v-27H503zM121 589l135 159h147l135-159H397l-67 81-68-81H121zm152-49q39 0 67-10.5t45.5-23.5 26-23.5L420 472h8v58h190V0H428v58h-8l-8.5-10.5-26-23.5L340 .5 273-10q-58 0-100.5 23.5t-71 63T59 165 45 265t14 100 42.5 88.5 71 63T273 540zm63-151q-33 0-55-18.5t-33-47-11-58.5 11-58.5 33-47 55-18.5 55 18.5 33 47 11 58.5-11 58.5-33 47-55 18.5z"/><glyph glyph-name="uni1EAA" unicode="Ẫ" horiz-adv-x="791" d="M470 992q-27 0-47 9t-35.5 20.5T359 1042t-27 9q-15 0-20.5-13.5T306 998h-93q0 35 8 71.5t31.5 62T321 1157q37 0 61.5-14.5T425 1113t35-15q14 0 19.5 14t5.5 39h93q0-34-8-71t-31-62.5-69-25.5zM187 799l135 159h147l135-159H463l-67 81-68-81H187zM20 0l246 740h259L771 0H571l-39 124H259L220 0H20zm290 288h171l-85 273z"/><glyph glyph-name="uni1EAB" unicode="ẫ" horiz-adv-x="670" d="M409 782q-27 0-47 9t-35.5 20.5T298 832t-27 9q-15 0-20.5-13.5T245 788h-93q0 35 8 71.5t31.5 62T260 947q37 0 61.5-14.5T364 903t35-15q14 0 19.5 14t5.5 39h93q0-34-8-71t-31-62.5-69-25.5zM126 589l135 159h147l135-159H402l-67 81-68-81H126zm147-49q39 0 67-10.5t45.5-23.5 26-23.5L420 472h8v58h190V0H428v58h-8l-8.5-10.5-26-23.5L340 .5 273-10q-58 0-100.5 23.5t-71 63T59 165 45 265t14 100 42.5 88.5 71 63T273 540zm63-151q-33 0-55-18.5t-33-47-11-58.5 11-58.5 33-47 55-18.5 55 18.5 33 47 11 58.5-11 58.5-33 47-55 18.5z"/><glyph glyph-name="uni1EAC" unicode="Ậ" horiz-adv-x="791" d="M188 799l135 159h147l135-159H464l-67 81-68-81H188zM20 0l246 740h259L771 0H571l-39 124H259L220 0H20zm290 288h171l-85 273zm86-548q-40 0-64.5 26.5T307-171q0 37 24.5 63T396-82q38 0 63.5-26t25.5-63q0-36-25.5-62.5T396-260z"/><glyph glyph-name="uni1EAD" unicode="ậ" horiz-adv-x="670" d="M127 589l135 189h147l135-189H403l-67 102-68-102H127zm146-49q39 0 67-10.5t45.5-23.5 26-23.5L420 472h8v58h190V0H428v58h-8l-8.5-10.5-26-23.5L340 .5 273-10q-58 0-100.5 23.5t-71 63T59 165 45 265t14 100 42.5 88.5 71 63T273 540zm63-151q-33 0-55-18.5t-33-47-11-58.5 11-58.5 33-47 55-18.5 55 18.5 33 47 11 58.5-11 58.5-33 47-55 18.5zm-1-649q-40 0-64.5 26T246-171q0 38 24.5 63.5T335-82q38 0 63.5-25.5T424-171q0-37-25.5-63T335-260z"/><glyph glyph-name="uni1EAE" unicode="Ắ" horiz-adv-x="791" d="M464 1002l-133 1 77 179h170zm-68-200q-60 0-97.5 17T241 860.5t-28 49-9.5 41.5l-1.5 17h119l1.5-9.5L331 936l22-22.5 43-9.5 43.5 9.5 22 22.5 8 22.5 1.5 9.5h119l-1.5-17-9.5-41.5-28-49-57.5-41.5-97.5-17zM20 0l246 740h259L771 0H571l-39 124H259L220 0H20zm290 288h171l-85 273z"/><glyph glyph-name="uni1EAF" unicode="ắ" horiz-adv-x="670" d="M403 792l-133 1 77 179h170zm-68-200q-60 0-97.5 17T180 650.5t-28 49-9.5 41.5l-1.5 17h119l1.5-9.5L270 726l22-22.5 43-9.5 43.5 9.5 22 22.5 8 22.5 1.5 9.5h119l-1.5-17-9.5-41.5-28-49-57.5-41.5-97.5-17zm-62-52q39 0 67-10.5t45.5-23.5 26-23.5L420 472h8v58h190V0H428v58h-8l-8.5-10.5-26-23.5L340 .5 273-10q-58 0-100.5 23.5t-71 63T59 165 45 265t14 100 42.5 88.5 71 63T273 540zm63-151q-33 0-55-18.5t-33-47-11-58.5 11-58.5 33-47 55-18.5 55 18.5 33 47 11 58.5-11 58.5-33 47-55 18.5z"/><glyph glyph-name="uni1EB0" unicode="Ằ" horiz-adv-x="791" d="M331 1002l-114 180h170l77-179zm65-200q-60 0-97.5 17T241 860.5t-28 49-9.5 41.5l-1.5 17h119l1.5-9.5L331 936l22-22.5 43-9.5 43.5 9.5 22 22.5 8 22.5 1.5 9.5h119l-1.5-17-9.5-41.5-28-49-57.5-41.5-97.5-17zM20 0l246 740h259L771 0H571l-39 124H259L220 0H20zm290 288h171l-85 273z"/><glyph glyph-name="uni1EB1" unicode="ằ" horiz-adv-x="670" d="M270 792L156 972h170l77-179zm65-200q-60 0-97.5 17T180 650.5t-28 49-9.5 41.5l-1.5 17h119l1.5-9.5L270 726l22-22.5 43-9.5 43.5 9.5 22 22.5 8 22.5 1.5 9.5h119l-1.5-17-9.5-41.5-28-49-57.5-41.5-97.5-17zm-62-52q39 0 67-10.5t45.5-23.5 26-23.5L420 472h8v58h190V0H428v58h-8l-8.5-10.5-26-23.5L340 .5 273-10q-58 0-100.5 23.5t-71 63T59 165 45 265t14 100 42.5 88.5 71 63T273 540zm63-151q-33 0-55-18.5t-33-47-11-58.5 11-58.5 33-47 55-18.5 55 18.5 33 47 11 58.5-11 58.5-33 47-55 18.5z"/><glyph glyph-name="uni1EB2" unicode="Ẳ" horiz-adv-x="791" d="M346 988v33q0 15 6.5 27.5T374 1068l16 8q19 10 30 19.5t11 25.5q0 12-9 20.5t-23 8.5q-17 0-24.5-9t-9-18.5l-1.5-9.5H263q-1 28 12 57t43 49 79 20q66 0 104-34t38-80q0-40-26.5-64.5T453 1018l-5-3v-27H346zm50-186q-60 0-97.5 17T241 860.5t-28 49-9.5 41.5l-1.5 17h119l1.5-9.5L331 936l22-22.5 43-9.5 43.5 9.5 22 22.5 8 22.5 1.5 9.5h119l-1.5-17-9.5-41.5-28-49-57.5-41.5-97.5-17zM20 0l246 740h259L771 0H571l-39 124H259L220 0H20zm290 288h171l-85 273z"/><glyph glyph-name="uni1EB3" unicode="ẳ" horiz-adv-x="670" d="M285 778v33q0 15 6.5 27.5T313 858l16 8q19 10 30 19.5t11 25.5q0 12-9 20.5t-23 8.5q-17 0-24.5-9t-9-18.5L303 903H202q-1 28 12 57t43 49 79 20q66 0 104-34t38-80q0-40-26.5-64.5T392 808l-5-3v-27H285zm50-186q-60 0-97.5 17T180 650.5t-28 49-9.5 41.5l-1.5 17h119l1.5-9.5L270 726l22-22.5 43-9.5 43.5 9.5 22 22.5 8 22.5 1.5 9.5h119l-1.5-17-9.5-41.5-28-49-57.5-41.5-97.5-17zm-62-52q39 0 67-10.5t45.5-23.5 26-23.5L420 472h8v58h190V0H428v58h-8l-8.5-10.5-26-23.5L340 .5 273-10q-58 0-100.5 23.5t-71 63T59 165 45 265t14 100 42.5 88.5 71 63T273 540zm63-151q-33 0-55-18.5t-33-47-11-58.5 11-58.5 33-47 55-18.5 55 18.5 33 47 11 58.5-11 58.5-33 47-55 18.5z"/><glyph glyph-name="uni1EB4" unicode="Ẵ" horiz-adv-x="791" d="M474 1015q-27 0-47 9t-35.5 20.5T363 1065t-27 9q-15 0-20.5-13.5T310 1021h-93q0 35 8 71.5t31.5 62T325 1180q37 0 61.5-14.5T429 1136t35-15q14 0 19.5 14t5.5 39h93q0-34-8-71t-31-62.5-69-25.5zm-78-213q-60 0-97.5 17T241 860.5t-28 49-9.5 41.5l-1.5 17h119l1.5-9.5L331 936l22-22.5 43-9.5 43.5 9.5 22 22.5 8 22.5 1.5 9.5h119l-1.5-17-9.5-41.5-28-49-57.5-41.5-97.5-17zM20 0l246 740h259L771 0H571l-39 124H259L220 0H20zm290 288h171l-85 273z"/><glyph glyph-name="uni1EB5" unicode="ẵ" horiz-adv-x="670" d="M413 805q-27 0-47 9t-35.5 20.5T302 855t-27 9q-15 0-20.5-13.5T249 811h-93q0 35 8 71.5t31.5 62T264 970q37 0 61.5-14.5T368 926t35-15q14 0 19.5 14t5.5 39h93q0-34-8-71t-31-62.5-69-25.5zm-78-213q-60 0-97.5 17T180 650.5t-28 49-9.5 41.5l-1.5 17h119l1.5-9.5L270 726l22-22.5 43-9.5 43.5 9.5 22 22.5 8 22.5 1.5 9.5h119l-1.5-17-9.5-41.5-28-49-57.5-41.5-97.5-17zm-62-52q39 0 67-10.5t45.5-23.5 26-23.5L420 472h8v58h190V0H428v58h-8l-8.5-10.5-26-23.5L340 .5 273-10q-58 0-100.5 23.5t-71 63T59 165 45 265t14 100 42.5 88.5 71 63T273 540zm63-151q-33 0-55-18.5t-33-47-11-58.5 11-58.5 33-47 55-18.5 55 18.5 33 47 11 58.5-11 58.5-33 47-55 18.5z"/><glyph glyph-name="uni1EB6" unicode="Ặ" horiz-adv-x="791" d="M396 802q-60 0-97.5 17T241 860.5t-28 49-9.5 41.5l-1.5 17h119l1.5-9.5L331 936l22-22.5 43-9.5 43.5 9.5 22 22.5 8 22.5 1.5 9.5h119l-1.5-17-9.5-41.5-28-49-57.5-41.5-97.5-17zM20 0l246 740h259L771 0H571l-39 124H259L220 0H20zm290 288h171l-85 273zm86-548q-40 0-64.5 26.5T307-171q0 37 24.5 63T396-82q38 0 63.5-26t25.5-63q0-36-25.5-62.5T396-260z"/><glyph glyph-name="uni1EB7" unicode="ặ" horiz-adv-x="670" d="M335 592q-60 0-97.5 19T180 657.5t-28 55-9.5 46.5l-1.5 19h119l1.5-12 8.5-28.5 22-28.5 43-12 43.5 12 22 28.5 8 28.5 1.5 12h119l-1.5-19-9.5-46.5-28-55-57.5-46.5-97.5-19zm-62-52q39 0 67-10.5t45.5-23.5 26-23.5L420 472h8v58h190V0H428v58h-8l-8.5-10.5-26-23.5L340 .5 273-10q-58 0-100.5 23.5t-71 63T59 165 45 265t14 100 42.5 88.5 71 63T273 540zm63-151q-33 0-55-18.5t-33-47-11-58.5 11-58.5 33-47 55-18.5 55 18.5 33 47 11 58.5-11 58.5-33 47-55 18.5zm-1-649q-40 0-64.5 26T246-171q0 38 24.5 63.5T335-82q38 0 63.5-25.5T424-171q0-37-25.5-63T335-260z"/><glyph glyph-name="uni1EB8" unicode="Ẹ" horiz-adv-x="656" d="M60 0v740h536V574H252V454h299V296H252V166h349V0H60zm225-260q-40 0-64.5 26.5T196-171q0 37 24.5 63T285-82q38 0 63.5-26t25.5-63q0-36-25.5-62.5T285-260z"/><glyph glyph-name="uni1EB9" unicode="ẹ" horiz-adv-x="624" d="M326-10q-73 0-126.5 23T111 75.5t-52 89T42 266q0 50 16.5 99t50.5 88.5 86.5 63T320 540q78 0 137-33t92-95.5T582 260v-43H233q3-34 26.5-60t66.5-26q33 0 50 11.5t23 23l6 11.5h174l-5-19-19-46.5L513 56 439.5 9 326-10zm-94 332h169q-1 41-24 61.5T316 404q-32 0-56.5-20T232 322zm88-581q-40 0-64.5 26.5T231-170q0 37 24.5 63T320-81q38 0 63.5-26t25.5-63q0-36-25.5-62.5T320-259z"/><glyph glyph-name="uni1EBA" unicode="Ẻ" horiz-adv-x="656" d="M278 795v33q0 15 6.5 27.5T306 875l16 8q19 10 30 19.5t11 25.5q0 12-9 20.5t-23 8.5q-17 0-24.5-9t-9-18.5L296 920H195q-1 28 12 57t43 49 79 20q66 0 104-34t38-80q0-40-26.5-64.5T385 825l-5-3v-27H278zM60 0v740h536V574H252V454h299V296H252V166h349V0H60z"/><glyph glyph-name="uni1EBB" unicode="ẻ" horiz-adv-x="624" d="M270 586v33q0 15 6.5 27.5T298 666l16 8q19 10 30 19.5t11 25.5q0 12-9 20.5t-23 8.5q-17 0-24.5-9t-9-18.5L288 711H187q-1 28 12 57t43 49 79 20q66 0 104-34t38-80q0-40-26.5-64.5T377 616l-5-3v-27H270zm56-596q-73 0-126.5 23T111 75.5t-52 89T42 266q0 50 16.5 99t50.5 88.5 86.5 63T320 540q78 0 137-33t92-95.5T582 260v-43H233q3-34 26.5-60t66.5-26q33 0 50 11.5t23 23l6 11.5h174l-5-19-19-46.5L513 56 439.5 9 326-10zm-94 332h169q-1 41-24 61.5T316 404q-32 0-56.5-20T232 322z"/><glyph glyph-name="uni1EBC" unicode="Ẽ" horiz-adv-x="656" d="M406 822q-27 0-47 9t-35.5 20.5T295 872t-27 9q-15 0-20.5-13.5T242 828h-93q0 35 8 71.5t31.5 62T257 987q37 0 61.5-14.5T361 943t35-15q14 0 19.5 14t5.5 39h93q0-34-8-71t-31-62.5-69-25.5zM60 0v740h536V574H252V454h299V296H252V166h349V0H60z"/><glyph glyph-name="uni1EBD" unicode="ẽ" horiz-adv-x="624" d="M398 613q-27 0-47 9t-35.5 20.5T287 663t-27 9q-15 0-20.5-13.5T234 619h-93q0 35 8 71.5t31.5 62T249 778q37 0 61.5-14.5T353 734t35-15q14 0 19.5 14t5.5 39h93q0-34-8-71t-31-62.5-69-25.5zM326-10q-73 0-126.5 23T111 75.5t-52 89T42 266q0 50 16.5 99t50.5 88.5 86.5 63T320 540q78 0 137-33t92-95.5T582 260v-43H233q3-34 26.5-60t66.5-26q33 0 50 11.5t23 23l6 11.5h174l-5-19-19-46.5L513 56 439.5 9 326-10zm-94 332h169q-1 41-24 61.5T316 404q-32 0-56.5-20T232 322z"/><glyph glyph-name="uni1EBE" unicode="Ế" horiz-adv-x="656" d="M599 929l-133 1 77 179h170zM119 799l135 159h147l135-159H395l-67 81-68-81H119zM60 0v740h536V574H252V454h299V296H252V166h349V0H60z"/><glyph glyph-name="uni1EBF" unicode="ế" horiz-adv-x="624" d="M591 720l-133 1 77 179h170zM111 590l135 159h147l135-159H387l-67 81-68-81H111zM326-10q-73 0-126.5 23T111 75.5t-52 89T42 266q0 50 16.5 99t50.5 88.5 86.5 63T320 540q78 0 137-33t92-95.5T582 260v-43H233q3-34 26.5-60t66.5-26q33 0 50 11.5t23 23l6 11.5h174l-5-19-19-46.5L513 56 439.5 9 326-10zm-94 332h169q-1 41-24 61.5T316 404q-32 0-56.5-20T232 322z"/><glyph glyph-name="uni1EC0" unicode="Ề" horiz-adv-x="656" d="M487 929l-114 180h170l77-179zM120 799l135 159h147l135-159H396l-67 81-68-81H120zM60 0v740h536V574H252V454h299V296H252V166h349V0H60z"/><glyph glyph-name="uni1EC1" unicode="ề" horiz-adv-x="624" d="M479 720L365 900h170l77-179zM112 590l135 159h147l135-159H388l-67 81-68-81H112zM326-10q-73 0-126.5 23T111 75.5t-52 89T42 266q0 50 16.5 99t50.5 88.5 86.5 63T320 540q78 0 137-33t92-95.5T582 260v-43H233q3-34 26.5-60t66.5-26q33 0 50 11.5t23 23l6 11.5h174l-5-19-19-46.5L513 56 439.5 9 326-10zm-94 332h169q-1 41-24 61.5T316 404q-32 0-56.5-20T232 322z"/><glyph glyph-name="uni1EC2" unicode="Ể" horiz-adv-x="656" d="M496 907v33q0 15 6.5 27.5T524 987l16 8q19 10 30 19.5t11 25.5q0 12-9 20.5t-23 8.5q-17 0-24.5-9t-9-18.5l-1.5-9.5H413q-1 28 12 57t43 49 79 20q66 0 104-34t38-80q0-40-26.5-64.5T603 937l-5-3v-27H496zM114 799l135 159h147l135-159H390l-67 81-68-81H114zM60 0v740h536V574H252V454h299V296H252V166h349V0H60z"/><glyph glyph-name="uni1EC3" unicode="ể" horiz-adv-x="624" d="M488 698v33q0 15 6.5 27.5T516 778l16 8q19 10 30 19.5t11 25.5q0 12-9 20.5t-23 8.5q-17 0-24.5-9t-9-18.5L506 823H405q-1 28 12 57t43 49 79 20q66 0 104-34t38-80q0-40-26.5-64.5T595 728l-5-3v-27H488zM106 590l135 159h147l135-159H382l-67 81-68-81H106zM326-10q-73 0-126.5 23T111 75.5t-52 89T42 266q0 50 16.5 99t50.5 88.5 86.5 63T320 540q78 0 137-33t92-95.5T582 260v-43H233q3-34 26.5-60t66.5-26q33 0 50 11.5t23 23l6 11.5h174l-5-19-19-46.5L513 56 439.5 9 326-10zm-94 332h169q-1 41-24 61.5T316 404q-32 0-56.5-20T232 322z"/><glyph glyph-name="uni1EC4" unicode="Ễ" horiz-adv-x="656" d="M402 992q-27 0-47 9t-35.5 20.5T291 1042t-27 9q-15 0-20.5-13.5T238 998h-93q0 35 8 71.5t31.5 62T253 1157q37 0 61.5-14.5T357 1113t35-15q14 0 19.5 14t5.5 39h93q0-34-8-71t-31-62.5-69-25.5zM119 799l135 159h147l135-159H395l-67 81-68-81H119zM60 0v740h536V574H252V454h299V296H252V166h349V0H60z"/><glyph glyph-name="uni1EC5" unicode="ễ" horiz-adv-x="624" d="M394 783q-27 0-47 9t-35.5 20.5T283 833t-27 9q-15 0-20.5-13.5T230 789h-93q0 35 8 71.5t31.5 62T245 948q37 0 61.5-14.5T349 904t35-15q14 0 19.5 14t5.5 39h93q0-34-8-71t-31-62.5-69-25.5zM111 590l135 159h147l135-159H387l-67 81-68-81H111zM326-10q-73 0-126.5 23T111 75.5t-52 89T42 266q0 50 16.5 99t50.5 88.5 86.5 63T320 540q78 0 137-33t92-95.5T582 260v-43H233q3-34 26.5-60t66.5-26q33 0 50 11.5t23 23l6 11.5h174l-5-19-19-46.5L513 56 439.5 9 326-10zm-94 332h169q-1 41-24 61.5T316 404q-32 0-56.5-20T232 322z"/><glyph glyph-name="uni1EC6" unicode="Ệ" horiz-adv-x="656" d="M120 799l135 159h147l135-159H396l-67 81-68-81H120zM60 0v740h536V574H252V454h299V296H252V166h349V0H60zm225-260q-40 0-64.5 26.5T196-171q0 37 24.5 63T285-82q38 0 63.5-26t25.5-63q0-36-25.5-62.5T285-260z"/><glyph glyph-name="uni1EC7" unicode="ệ" horiz-adv-x="624" d="M112 590l135 189h147l135-189H388l-67 102-68-102H112zM326-10q-73 0-126.5 23T111 75.5t-52 89T42 266q0 50 16.5 99t50.5 88.5 86.5 63T320 540q78 0 137-33t92-95.5T582 260v-43H233q3-34 26.5-60t66.5-26q33 0 50 11.5t23 23l6 11.5h174l-5-19-19-46.5L513 56 439.5 9 326-10zm-94 332h169q-1 41-24 61.5T316 404q-32 0-56.5-20T232 322zm88-581q-40 0-64.5 26.5T231-170q0 37 24.5 63T320-81q38 0 63.5-26t25.5-63q0-36-25.5-62.5T320-259z"/><glyph glyph-name="uni1EC8" unicode="Ỉ" horiz-adv-x="312" d="M106 795v33q0 15 6.5 27.5T134 875l16 8q19 10 30 19.5t11 25.5q0 12-9 20.5t-23 8.5q-17 0-24.5-9t-9-18.5L124 920H23q-1 28 12 57t43 49 79 20q66 0 104-34t38-80q0-40-26.5-64.5T213 825l-5-3v-27H106zM60 0v740h192V0H60z"/><glyph glyph-name="uni1EC9" unicode="ỉ" horiz-adv-x="320" d="M110 585v33q0 15 6.5 27.5T138 665l16 8q19 10 30 19.5t11 25.5q0 12-9 20.5t-23 8.5q-17 0-24.5-9t-9-18.5L128 710H27q-1 28 12 57t43 49 79 20q66 0 104-34t38-80q0-40-26.5-64.5T217 615l-5-3v-27H110zM65 0v530h190V0H65z"/><glyph glyph-name="uni1ECA" unicode="Ị" horiz-adv-x="312" d="M60 0v740h192V0H60zm96-260q-40 0-64.5 26.5T67-171q0 37 24.5 63T156-82q38 0 63.5-26t25.5-63q0-36-25.5-62.5T156-260z"/><glyph glyph-name="uni1ECB" unicode="ị" horiz-adv-x="320" d="M160 583q-47 0-77.5 30.5T52 686q0 44 30.5 74t77.5 30 78-30 31-74q0-42-31-72.5T160 583zM65 0v530h190V0H65zm95-260q-40 0-64.5 26.5T71-171q0 37 24.5 63T160-82q38 0 63.5-26t25.5-63q0-36-25.5-62.5T160-260z"/><glyph glyph-name="uni1ECC" unicode="Ọ" horiz-adv-x="830" d="M415-10q-96 0-168 32.5t-120 87T54.5 232 30 371t24.5 138.5T127 631t120 86.5T415 750t168-32.5T703.5 631 776 509.5 800 371t-24-139-72.5-122.5-120.5-87T415-10zm0 171q62 0 103 30.5t61.5 79T600 371t-20.5 100-61.5 78.5T415 580q-61 0-102-30.5T251.5 471 231 371t20.5-100.5 61.5-79T415 161zm0-421q-40 0-64.5 26.5T326-171q0 37 24.5 63T415-82q38 0 63.5-26t25.5-63q0-36-25.5-62.5T415-260z"/><glyph glyph-name="uni1ECD" unicode="ọ" horiz-adv-x="662" d="M331-10q-91 0-156 38T76 128.5 42 265t34 136.5T175 502t156 38q92 0 156.5-38T586 401.5 620 265t-34-136.5T487.5 28 331-10zm0 152q46 0 72.5 35.5T430 265t-26.5 87.5T331 388t-72.5-35.5T232 265t26.5-87.5T331 142zm0-402q-40 0-64.5 26.5T242-171q0 37 24.5 63T331-82q38 0 63.5-26t25.5-63q0-36-25.5-62.5T331-260z"/><glyph glyph-name="uni1ECE" unicode="Ỏ" horiz-adv-x="830" d="M365 805v33q0 15 6.5 27.5T393 885l16 8q19 10 30 19.5t11 25.5q0 12-9 20.5t-23 8.5q-17 0-24.5-9t-9-18.5L383 930H282q-1 28 12 57t43 49 79 20q66 0 104-34t38-80q0-40-26.5-64.5T472 835l-5-3v-27H365zm50-815q-96 0-168 32.5t-120 87T54.5 232 30 371t24.5 138.5T127 631t120 86.5T415 750t168-32.5T703.5 631 776 509.5 800 371t-24-139-72.5-122.5-120.5-87T415-10zm0 171q62 0 103 30.5t61.5 79T600 371t-20.5 100-61.5 78.5T415 580q-61 0-102-30.5T251.5 471 231 371t20.5-100.5 61.5-79T415 161z"/><glyph glyph-name="uni1ECF" unicode="ỏ" horiz-adv-x="662" d="M281 585v33q0 15 6.5 27.5T309 665l16 8q19 10 30 19.5t11 25.5q0 12-9 20.5t-23 8.5q-17 0-24.5-9t-9-18.5L299 710H198q-1 28 12 57t43 49 79 20q66 0 104-34t38-80q0-40-26.5-64.5T388 615l-5-3v-27H281zm50-595q-91 0-156 38T76 128.5 42 265t34 136.5T175 502t156 38q92 0 156.5-38T586 401.5 620 265t-34-136.5T487.5 28 331-10zm0 152q46 0 72.5 35.5T430 265t-26.5 87.5T331 388t-72.5-35.5T232 265t26.5-87.5T331 142z"/><glyph glyph-name="uni1ED0" unicode="Ố" horiz-adv-x="830" d="M686 939l-133 1 77 179h170zM206 809l135 159h147l135-159H482l-67 81-68-81H206zM415-10q-96 0-168 32.5t-120 87T54.5 232 30 371t24.5 138.5T127 631t120 86.5T415 750t168-32.5T703.5 631 776 509.5 800 371t-24-139-72.5-122.5-120.5-87T415-10zm0 171q62 0 103 30.5t61.5 79T600 371t-20.5 100-61.5 78.5T415 580q-61 0-102-30.5T251.5 471 231 371t20.5-100.5 61.5-79T415 161z"/><glyph glyph-name="uni1ED1" unicode="ố" horiz-adv-x="662" d="M602 719l-133 1 77 179h170zM122 589l135 159h147l135-159H398l-67 81-68-81H122zM331-10q-91 0-156 38T76 128.5 42 265t34 136.5T175 502t156 38q92 0 156.5-38T586 401.5 620 265t-34-136.5T487.5 28 331-10zm0 152q46 0 72.5 35.5T430 265t-26.5 87.5T331 388t-72.5-35.5T232 265t26.5-87.5T331 142z"/><glyph glyph-name="uni1ED2" unicode="Ồ" horiz-adv-x="830" d="M574 939l-114 180h170l77-179zM207 809l135 159h147l135-159H483l-67 81-68-81H207zM415-10q-96 0-168 32.5t-120 87T54.5 232 30 371t24.5 138.5T127 631t120 86.5T415 750t168-32.5T703.5 631 776 509.5 800 371t-24-139-72.5-122.5-120.5-87T415-10zm0 171q62 0 103 30.5t61.5 79T600 371t-20.5 100-61.5 78.5T415 580q-61 0-102-30.5T251.5 471 231 371t20.5-100.5 61.5-79T415 161z"/><glyph glyph-name="uni1ED3" unicode="ồ" horiz-adv-x="662" d="M490 719L376 899h170l77-179zM123 589l135 159h147l135-159H399l-67 81-68-81H123zM331-10q-91 0-156 38T76 128.5 42 265t34 136.5T175 502t156 38q92 0 156.5-38T586 401.5 620 265t-34-136.5T487.5 28 331-10zm0 152q46 0 72.5 35.5T430 265t-26.5 87.5T331 388t-72.5-35.5T232 265t26.5-87.5T331 142z"/><glyph glyph-name="uni1ED4" unicode="Ổ" horiz-adv-x="830" d="M583 917v33q0 15 6.5 27.5T611 997l16 8q19 10 30 19.5t11 25.5q0 12-9 20.5t-23 8.5q-17 0-24.5-9t-9-18.5l-1.5-9.5H500q-1 28 12 57t43 49 79 20q66 0 104-34t38-80q0-40-26.5-64.5T690 947l-5-3v-27H583zM201 809l135 159h147l135-159H477l-67 81-68-81H201zM415-10q-96 0-168 32.5t-120 87T54.5 232 30 371t24.5 138.5T127 631t120 86.5T415 750t168-32.5T703.5 631 776 509.5 800 371t-24-139-72.5-122.5-120.5-87T415-10zm0 171q62 0 103 30.5t61.5 79T600 371t-20.5 100-61.5 78.5T415 580q-61 0-102-30.5T251.5 471 231 371t20.5-100.5 61.5-79T415 161z"/><glyph glyph-name="uni1ED5" unicode="ổ" horiz-adv-x="662" d="M499 697v33q0 15 6.5 27.5T527 777l16 8q19 10 30 19.5t11 25.5q0 12-9 20.5t-23 8.5q-17 0-24.5-9t-9-18.5L517 822H416q-1 28 12 57t43 49 79 20q66 0 104-34t38-80q0-40-26.5-64.5T606 727l-5-3v-27H499zM117 589l135 159h147l135-159H393l-67 81-68-81H117zM331-10q-91 0-156 38T76 128.5 42 265t34 136.5T175 502t156 38q92 0 156.5-38T586 401.5 620 265t-34-136.5T487.5 28 331-10zm0 152q46 0 72.5 35.5T430 265t-26.5 87.5T331 388t-72.5-35.5T232 265t26.5-87.5T331 142z"/><glyph glyph-name="uni1ED6" unicode="Ỗ" horiz-adv-x="830" d="M489 1002q-27 0-47 9t-35.5 20.5T378 1052t-27 9q-15 0-20.5-13.5T325 1008h-93q0 35 8 71.5t31.5 62T340 1167q37 0 61.5-14.5T444 1123t35-15q14 0 19.5 14t5.5 39h93q0-34-8-71t-31-62.5-69-25.5zM206 809l135 159h147l135-159H482l-67 81-68-81H206zM415-10q-96 0-168 32.5t-120 87T54.5 232 30 371t24.5 138.5T127 631t120 86.5T415 750t168-32.5T703.5 631 776 509.5 800 371t-24-139-72.5-122.5-120.5-87T415-10zm0 171q62 0 103 30.5t61.5 79T600 371t-20.5 100-61.5 78.5T415 580q-61 0-102-30.5T251.5 471 231 371t20.5-100.5 61.5-79T415 161z"/><glyph glyph-name="uni1ED7" unicode="ỗ" horiz-adv-x="662" d="M405 782q-27 0-47 9t-35.5 20.5T294 832t-27 9q-15 0-20.5-13.5T241 788h-93q0 35 8 71.5t31.5 62T256 947q37 0 61.5-14.5T360 903t35-15q14 0 19.5 14t5.5 39h93q0-34-8-71t-31-62.5-69-25.5zM122 589l135 159h147l135-159H398l-67 81-68-81H122zM331-10q-91 0-156 38T76 128.5 42 265t34 136.5T175 502t156 38q92 0 156.5-38T586 401.5 620 265t-34-136.5T487.5 28 331-10zm0 152q46 0 72.5 35.5T430 265t-26.5 87.5T331 388t-72.5-35.5T232 265t26.5-87.5T331 142z"/><glyph glyph-name="uni1ED8" unicode="Ộ" horiz-adv-x="830" d="M207 809l135 159h147l135-159H483l-67 81-68-81H207zM415-10q-96 0-168 32.5t-120 87T54.5 232 30 371t24.5 138.5T127 631t120 86.5T415 750t168-32.5T703.5 631 776 509.5 800 371t-24-139-72.5-122.5-120.5-87T415-10zm0 171q62 0 103 30.5t61.5 79T600 371t-20.5 100-61.5 78.5T415 580q-61 0-102-30.5T251.5 471 231 371t20.5-100.5 61.5-79T415 161zm0-421q-40 0-64.5 26.5T326-171q0 37 24.5 63T415-82q38 0 63.5-26t25.5-63q0-36-25.5-62.5T415-260z"/><glyph glyph-name="uni1ED9" unicode="ộ" horiz-adv-x="662" d="M123 589l135 189h147l135-189H399l-67 102-68-102H123zM331-10q-91 0-156 38T76 128.5 42 265t34 136.5T175 502t156 38q92 0 156.5-38T586 401.5 620 265t-34-136.5T487.5 28 331-10zm0 152q46 0 72.5 35.5T430 265t-26.5 87.5T331 388t-72.5-35.5T232 265t26.5-87.5T331 142zm0-402q-40 0-64.5 26.5T242-171q0 37 24.5 63T331-82q38 0 63.5-26t25.5-63q0-36-25.5-62.5T331-260z"/><glyph glyph-name="uni1EDA" unicode="Ớ" horiz-adv-x="830" d="M473 809l-133 1 77 179h170zM415-10q-96 0-168 32.5t-120 87T54.5 232 30 371t24.5 138.5T127 631t120 86.5T415 750q16 0 31-1h123q62 0 62 62v56h157v-80q0-61-25.5-93.5T681 654q59-55 89-130t30-153q0-71-24-139t-72.5-122.5-120.5-87T415-10zm0 171q62 0 103 30.5t61.5 79T600 371t-20.5 100-61.5 78.5T415 580q-61 0-102-30.5T251.5 471 231 371t20.5-100.5 61.5-79T415 161z"/><glyph glyph-name="uni1EDB" unicode="ớ" horiz-adv-x="662" d="M399 599l-133 1 77 179h170zM331-10q-91 0-156 38T76 128.5 42 265t34 136.5T175 502t156 38h121q40 0 40 40v78h147v-87q0-103-91-117 35-37 53.5-86T620 265q0-74-34-136.5T487.5 28 331-10zm0 152q46 0 72.5 35.5T430 265t-26.5 87.5T331 388t-72.5-35.5T232 265t26.5-87.5T331 142z"/><glyph glyph-name="uni1EDC" unicode="Ờ" horiz-adv-x="830" d="M340 809L226 989h170l77-179zm75-819q-96 0-168 32.5t-120 87T54.5 232 30 371t24.5 138.5T127 631t120 86.5T415 750q16 0 31-1h123q62 0 62 62v56h157v-80q0-61-25.5-93.5T681 654q59-55 89-130t30-153q0-71-24-139t-72.5-122.5-120.5-87T415-10zm0 171q62 0 103 30.5t61.5 79T600 371t-20.5 100-61.5 78.5T415 580q-61 0-102-30.5T251.5 471 231 371t20.5-100.5 61.5-79T415 161z"/><glyph glyph-name="uni1EDD" unicode="ờ" horiz-adv-x="662" d="M266 599L152 779h170l77-179zm65-609q-91 0-156 38T76 128.5 42 265t34 136.5T175 502t156 38h121q40 0 40 40v78h147v-87q0-103-91-117 35-37 53.5-86T620 265q0-74-34-136.5T487.5 28 331-10zm0 152q46 0 72.5 35.5T430 265t-26.5 87.5T331 388t-72.5-35.5T232 265t26.5-87.5T331 142z"/><glyph glyph-name="uni1EDE" unicode="Ở" horiz-adv-x="830" d="M355 795v33q0 15 6.5 27.5T383 875l16 8q19 10 30 19.5t11 25.5q0 12-9 20.5t-23 8.5q-17 0-24.5-9t-9-18.5L373 920H272q-1 28 12 57t43 49 79 20q66 0 104-34t38-80q0-40-26.5-64.5T462 825l-5-3v-27H355zm60-805q-96 0-168 32.5t-120 87T54.5 232 30 371t24.5 138.5T127 631t120 86.5T415 750q16 0 31-1h123q62 0 62 62v56h157v-80q0-61-25.5-93.5T681 654q59-55 89-130t30-153q0-71-24-139t-72.5-122.5-120.5-87T415-10zm0 171q62 0 103 30.5t61.5 79T600 371t-20.5 100-61.5 78.5T415 580q-61 0-102-30.5T251.5 471 231 371t20.5-100.5 61.5-79T415 161z"/><glyph glyph-name="uni1EDF" unicode="ở" horiz-adv-x="662" d="M265 585v33q0 15 6.5 27.5T293 665l16 8q19 10 30 19.5t11 25.5q0 12-9 20.5t-23 8.5q-17 0-24.5-9t-9-18.5L283 710H182q-1 28 12 57t43 49 79 20q66 0 104-34t38-80q0-40-26.5-64.5T372 615l-5-3v-27H265zm66-595q-91 0-156 38T76 128.5 42 265t34 136.5T175 502t156 38h121q40 0 40 40v78h147v-87q0-103-91-117 35-37 53.5-86T620 265q0-74-34-136.5T487.5 28 331-10zm0 152q46 0 72.5 35.5T430 265t-26.5 87.5T331 388t-72.5-35.5T232 265t26.5-87.5T331 142z"/><glyph glyph-name="uni1EE0" unicode="Ỡ" horiz-adv-x="830" d="M483 822q-27 0-47 9t-35.5 20.5T372 872t-27 9q-15 0-20.5-13.5T319 828h-93q0 35 8 71.5t31.5 62T334 987q37 0 61.5-14.5T438 943t35-15q14 0 19.5 14t5.5 39h93q0-34-8-71t-31-62.5-69-25.5zM415-10q-96 0-168 32.5t-120 87T54.5 232 30 371t24.5 138.5T127 631t120 86.5T415 750q16 0 31-1h123q62 0 62 62v56h157v-80q0-61-25.5-93.5T681 654q59-55 89-130t30-153q0-71-24-139t-72.5-122.5-120.5-87T415-10zm0 171q62 0 103 30.5t61.5 79T600 371t-20.5 100-61.5 78.5T415 580q-61 0-102-30.5T251.5 471 231 371t20.5-100.5 61.5-79T415 161z"/><glyph glyph-name="uni1EE1" unicode="ỡ" horiz-adv-x="650" d="M382 612q-34 0-57 15t-39.5 29.5T252 671q-14 0-20-14t-6-39h-83q0 40 7.5 76t29.5 59.5 65 23.5q34 0 57.5-14.5t41-29.5 32.5-15q14 0 19.5 14.5T401 771h83q0-39-7.5-75.5t-29-60T382 612zM331-10q-91 0-156 38T76 128.5 42 265t34 136.5T175 502t156 38h121q40 0 40 40v78h147v-87q0-103-91-117 35-37 53.5-86T620 265q0-74-34-136.5T487.5 28 331-10zm0 152q46 0 72.5 35.5T430 265t-26.5 87.5T331 388t-72.5-35.5T232 265t26.5-87.5T331 142z"/><glyph glyph-name="uni1EE2" unicode="Ợ" horiz-adv-x="830" d="M415-10q-96 0-168 32.5t-120 87T54.5 232 30 371t24.5 138.5T127 631t120 86.5T415 750q16 0 31-1h123q62 0 62 62v56h157v-80q0-61-25.5-93.5T681 654q59-55 89-130t30-153q0-71-24-139t-72.5-122.5-120.5-87T415-10zm0 171q62 0 103 30.5t61.5 79T600 371t-20.5 100-61.5 78.5T415 580q-61 0-102-30.5T251.5 471 231 371t20.5-100.5 61.5-79T415 161zm-10-421q-40 0-64.5 26.5T316-171q0 37 24.5 63T405-82q38 0 63.5-26t25.5-63q0-36-25.5-62.5T405-260z"/><glyph glyph-name="uni1EE3" unicode="ợ" horiz-adv-x="662" d="M331-10q-91 0-156 38T76 128.5 42 265t34 136.5T175 502t156 38h121q40 0 40 40v78h147v-87q0-103-91-117 35-37 53.5-86T620 265q0-74-34-136.5T487.5 28 331-10zm0 152q46 0 72.5 35.5T430 265t-26.5 87.5T331 388t-72.5-35.5T232 265t26.5-87.5T331 142zm57-402q-40 0-64.5 26.5T299-171q0 37 24.5 63T388-82q38 0 63.5-26t25.5-63q0-36-25.5-62.5T388-260z"/><glyph glyph-name="uni1EE4" unicode="Ụ" horiz-adv-x="746" d="M373-10q-57 0-113 16T159 58t-72 95.5T60 300v440h192V300q0-54 29-92t92-38 92 38 29 92v440h192V300q0-87-27-146.5T587 58 486 6 373-10zm-11-250q-40 0-64.5 26.5T273-171q0 37 24.5 63T362-82q38 0 63.5-26t25.5-63q0-36-25.5-62.5T362-260z"/><glyph glyph-name="uni1EE5" unicode="ụ" horiz-adv-x="608" d="M215-10q-58 0-93.5 25t-51 65.5T55 167v363h188V214q0-30 15-50.5t48-20.5q34 0 48 21.5t14 49.5v316h190V0H368v75h-6q-22-40-58-62.5T215-10zm91-250q-40 0-64.5 26.5T217-171q0 37 24.5 63T306-82q38 0 63.5-26t25.5-63q0-36-25.5-62.5T306-260z"/><glyph glyph-name="uni1EE6" unicode="Ủ" horiz-adv-x="746" d="M323 795v33q0 15 6.5 27.5T351 875l16 8q19 10 30 19.5t11 25.5q0 12-9 20.5t-23 8.5q-17 0-24.5-9t-9-18.5L341 920H240q-1 28 12 57t43 49 79 20q66 0 104-34t38-80q0-40-26.5-64.5T430 825l-5-3v-27H323zm50-805q-57 0-113 16T159 58t-72 95.5T60 300v440h192V300q0-54 29-92t92-38 92 38 29 92v440h192V300q0-87-27-146.5T587 58 486 6 373-10z"/><glyph glyph-name="uni1EE7" unicode="ủ" horiz-adv-x="608" d="M256 585v33q0 15 6.5 27.5T284 665l16 8q19 10 30 19.5t11 25.5q0 12-9 20.5t-23 8.5q-17 0-24.5-9t-9-18.5L274 710H173q-1 28 12 57t43 49 79 20q66 0 104-34t38-80q0-40-26.5-64.5T363 615l-5-3v-27H256zM215-10q-58 0-93.5 25t-51 65.5T55 167v363h188V214q0-30 15-50.5t48-20.5q34 0 48 21.5t14 49.5v316h190V0H368v75h-6q-22-40-58-62.5T215-10z"/><glyph glyph-name="uni1EE8" unicode="Ứ" horiz-adv-x="746" d="M441 809l-133 1 77 179h170zM373-10q-57 0-113 16T159 58t-72 95.5T60 300v440h192V300q0-54 29-92t92-38 92 38 29 92v440h121q40 0 40 40v78h147v-87q0-58-30-88.5T686 652V300q0-87-27-146.5T587 58 486 6 373-10z"/><glyph glyph-name="uni1EE9" unicode="ứ" horiz-adv-x="608" d="M371 599l-133 1 77 179h170zM215-10q-58 0-93.5 25t-51 65.5T55 167v363h188V214q0-30 15-50.5t48-20.5q34 0 48 21.5t14 49.5v316h121q40 0 40 40v78h147v-87q0-58-30.5-88.5T558 442V0H368v75h-6q-22-40-58-62.5T215-10z"/><glyph glyph-name="uni1EEA" unicode="Ừ" horiz-adv-x="746" d="M308 809L194 989h170l77-179zm65-819q-57 0-113 16T159 58t-72 95.5T60 300v440h192V300q0-54 29-92t92-38 92 38 29 92v440h121q40 0 40 40v78h147v-87q0-58-30-88.5T686 652V300q0-87-27-146.5T587 58 486 6 373-10z"/><glyph glyph-name="uni1EEB" unicode="ừ" horiz-adv-x="608" d="M238 599L124 779h170l77-179zM215-10q-58 0-93.5 25t-51 65.5T55 167v363h188V214q0-30 15-50.5t48-20.5q34 0 48 21.5t14 49.5v316h121q40 0 40 40v78h147v-87q0-58-30.5-88.5T558 442V0H368v75h-6q-22-40-58-62.5T215-10z"/><glyph glyph-name="uni1EEC" unicode="Ử" horiz-adv-x="746" d="M323 795v33q0 15 6.5 27.5T351 875l16 8q19 10 30 19.5t11 25.5q0 12-9 20.5t-23 8.5q-17 0-24.5-9t-9-18.5L341 920H240q-1 28 12 57t43 49 79 20q66 0 104-34t38-80q0-40-26.5-64.5T430 825l-5-3v-27H323zm50-805q-57 0-113 16T159 58t-72 95.5T60 300v440h192V300q0-54 29-92t92-38 92 38 29 92v440h121q40 0 40 40v78h147v-87q0-58-30-88.5T686 652V300q0-87-27-146.5T587 58 486 6 373-10z"/><glyph glyph-name="uni1EED" unicode="ử" horiz-adv-x="608" d="M253 585v33q0 15 6.5 27.5T281 665l16 8q19 10 30 19.5t11 25.5q0 12-9 20.5t-23 8.5q-17 0-24.5-9t-9-18.5L271 710H170q-1 28 12 57t43 49 79 20q66 0 104-34t38-80q0-40-26.5-64.5T360 615l-5-3v-27H253zM215-10q-58 0-93.5 25t-51 65.5T55 167v363h188V214q0-30 15-50.5t48-20.5q34 0 48 21.5t14 49.5v316h121q40 0 40 40v78h147v-87q0-58-30.5-88.5T558 442V0H368v75h-6q-22-40-58-62.5T215-10z"/><glyph glyph-name="uni1EEE" unicode="Ữ" horiz-adv-x="746" d="M451 822q-27 0-47 9t-35.5 20.5T340 872t-27 9q-15 0-20.5-13.5T287 828h-93q0 35 8 71.5t31.5 62T302 987q37 0 61.5-14.5T406 943t35-15q14 0 19.5 14t5.5 39h93q0-34-8-71t-31-62.5-69-25.5zM373-10q-57 0-113 16T159 58t-72 95.5T60 300v440h192V300q0-54 29-92t92-38 92 38 29 92v440h121q40 0 40 40v78h147v-87q0-58-30-88.5T686 652V300q0-87-27-146.5T587 58 486 6 373-10z"/><glyph glyph-name="uni1EEF" unicode="ữ" horiz-adv-x="608" d="M381 612q-27 0-47 9t-35.5 20.5T270 662t-27 9q-15 0-20.5-13.5T217 618h-93q0 35 8 71.5t31.5 62T232 777q37 0 61.5-14.5T336 733t35-15q14 0 19.5 14t5.5 39h93q0-34-8-71t-31-62.5-69-25.5zM215-10q-58 0-93.5 25t-51 65.5T55 167v363h188V214q0-30 15-50.5t48-20.5q34 0 48 21.5t14 49.5v316h121q40 0 40 40v78h147v-87q0-58-30.5-88.5T558 442V0H368v75h-6q-22-40-58-62.5T215-10z"/><glyph glyph-name="uni1EF0" unicode="Ự" horiz-adv-x="746" d="M373-10q-57 0-113 16T159 58t-72 95.5T60 300v440h192V300q0-54 29-92t92-38 92 38 29 92v440h121q40 0 40 40v78h147v-87q0-58-30-88.5T686 652V300q0-87-27-146.5T587 58 486 6 373-10zm0-250q-40 0-64.5 26.5T284-171q0 37 24.5 63T373-82q38 0 63.5-26t25.5-63q0-36-25.5-62.5T373-260z"/><glyph glyph-name="uni1EF1" unicode="ự" horiz-adv-x="608" d="M215-10q-58 0-93.5 25t-51 65.5T55 167v363h188V214q0-30 15-50.5t48-20.5q34 0 48 21.5t14 49.5v316h121q40 0 40 40v78h147v-87q0-58-30.5-88.5T558 442V0H368v75h-6q-22-40-58-62.5T215-10zm88-250q-40 0-64.5 26.5T214-171q0 37 24.5 63T303-82q38 0 63.5-26t25.5-63q0-36-25.5-62.5T303-260z"/><glyph glyph-name="Ygrave" unicode="Ỳ" horiz-adv-x="754" d="M312 809L198 989h170l77-179zM281 0v247L20 740h210l147-296 146 296h211L473 247V0H281z"/><glyph glyph-name="ygrave" unicode="ỳ" horiz-adv-x="606" d="M243 599L129 779h170l77-179zM109-195q-30 0-46.5 2L46-191v150l12-1 33-1q40 0 66.5 8T204-1L15 530h188l102-320 98 320h188L412 35q-27-76-64-127.5t-93.5-77T109-195z"/><glyph glyph-name="uni1EF4" unicode="Ỵ" horiz-adv-x="754" d="M281 0v247L20 740h210l147-296 146 296h211L473 247V0H281zm96-260q-40 0-64.5 26.5T288-171q0 37 24.5 63T377-82q38 0 63.5-26t25.5-63q0-36-25.5-62.5T377-260z"/><glyph glyph-name="uni1EF5" unicode="ỵ" horiz-adv-x="606" d="M109-195q-30 0-46.5 2L46-191v150l12-1 33-1q40 0 66.5 8T204-1L15 530h188l102-320 98 320h188L412 35q-27-76-64-127.5t-93.5-77T109-195zm394-65q-40 0-64.5 26.5T414-171q0 37 24.5 63T503-82q38 0 63.5-26t25.5-63q0-36-25.5-62.5T503-260z"/><glyph glyph-name="uni1EF6" unicode="Ỷ" horiz-adv-x="754" d="M327 795v33q0 15 6.5 27.5T355 875l16 8q19 10 30 19.5t11 25.5q0 12-9 20.5t-23 8.5q-17 0-24.5-9t-9-18.5L345 920H244q-1 28 12 57t43 49 79 20q66 0 104-34t38-80q0-40-26.5-64.5T434 825l-5-3v-27H327zM281 0v247L20 740h210l147-296 146 296h211L473 247V0H281z"/><glyph glyph-name="uni1EF7" unicode="ỷ" horiz-adv-x="606" d="M258 585v33q0 15 6.5 27.5T286 665l16 8q19 10 30 19.5t11 25.5q0 12-9 20.5t-23 8.5q-17 0-24.5-9t-9-18.5L276 710H175q-1 28 12 57t43 49 79 20q66 0 104-34t38-80q0-40-26.5-64.5T365 615l-5-3v-27H258zM109-195q-30 0-46.5 2L46-191v150l12-1 33-1q40 0 66.5 8T204-1L15 530h188l102-320 98 320h188L412 35q-27-76-64-127.5t-93.5-77T109-195z"/><glyph glyph-name="uni1EF8" unicode="Ỹ" horiz-adv-x="754" d="M455 822q-27 0-47 9t-35.5 20.5T344 872t-27 9q-15 0-20.5-13.5T291 828h-93q0 35 8 71.5t31.5 62T306 987q37 0 61.5-14.5T410 943t35-15q14 0 19.5 14t5.5 39h93q0-34-8-71t-31-62.5-69-25.5zM281 0v247L20 740h210l147-296 146 296h211L473 247V0H281z"/><glyph glyph-name="uni1EF9" unicode="ỹ" horiz-adv-x="606" d="M386 612q-27 0-47 9t-35.5 20.5T275 662t-27 9q-15 0-20.5-13.5T222 618h-93q0 35 8 71.5t31.5 62T237 777q37 0 61.5-14.5T341 733t35-15q14 0 19.5 14t5.5 39h93q0-34-8-71t-31-62.5-69-25.5zM109-195q-30 0-46.5 2L46-191v150l12-1 33-1q40 0 66.5 8T204-1L15 530h188l102-320 98 320h188L412 35q-27-76-64-127.5t-93.5-77T109-195z"/><glyph glyph-name="endash" unicode="–" horiz-adv-x="718" d="M115 238v147h488V238H115z"/><glyph glyph-name="emdash" unicode="—" horiz-adv-x="869" d="M115 238v147h639V238H115z"/><glyph glyph-name="quoteleft" unicode="‘" horiz-adv-x="245" d="M221 740l-89-149q41-3 67-31.5t26-67.5q0-41-28-70t-73-29q-44 0-74 28.5T20 498q0 25 12 55.5T71.5 626 143 729l8 11h70z"/><glyph glyph-name="quoteright" unicode="’" horiz-adv-x="245" d="M24 403l89 149q-41 3-67 31.5T20 651q0 41 28 70t73 29q44 0 74-28.5t30-76.5q0-25-12-55t-39-72.5T102 414l-8-11H24z"/><glyph glyph-name="quotesinglbase" unicode="‚" horiz-adv-x="310" d="M89-159l89 149q-41 3-67 31.5T85 89q0 41 28 70t73 29q44 0 74-28.5T290 83q0-25-12-55t-39-72.5T167-148l-8-11H89z"/><glyph glyph-name="quotedblleft" unicode="“" horiz-adv-x="494" d="M226 740l-89-149q41-3 67-31.5t26-67.5q0-41-28-70t-73-29q-44 0-74 28.5T25 498q0 25 12 55.5T76.5 626 148 729l8 11h70zm244 0l-89-149q41-3 67-31.5t26-67.5q0-41-28-70t-73-29q-44 0-74 28.5T269 498q0 25 12 55.5t39.5 72.5T392 729l8 11h70z"/><glyph glyph-name="quotedblright" unicode="”" horiz-adv-x="489" d="M268 403l89 149q-41 3-67 31.5T264 651q0 41 28 70t73 29q44 0 74-28.5t30-76.5q0-25-12-55t-39-72.5T346 414l-8-11h-70zm-244 0l89 149q-41 3-67 31.5T20 651q0 41 28 70t73 29q44 0 74-28.5t30-76.5q0-25-12-55t-39-72.5T102 414l-8-11H24z"/><glyph glyph-name="quotedblbase" unicode="„" horiz-adv-x="619" d="M333-159l89 149q-41 3-67 31.5T329 89q0 41 28 70t73 29q44 0 74-28.5T534 83q0-25-12-55t-39-72.5T411-148l-8-11h-70zm-244 0l89 149q-41 3-67 31.5T85 89q0 41 28 70t73 29q44 0 74-28.5T290 83q0-25-12-55t-39-72.5T167-148l-8-11H89z"/><glyph glyph-name="dagger" unicode="†" horiz-adv-x="748" d="M294 165v339H115v131h179v155h160V635h179V504H454V165H294z"/><glyph glyph-name="daggerdbl" unicode="‡" horiz-adv-x="748" d="M294 165v117H115v131h179v129H115v131h179v117h160V673h179V542H454V413h179V282H454V165H294z"/><glyph glyph-name="bullet" unicode="•" horiz-adv-x="580" d="M290 173q-51 0-90.5 24t-62 64-22.5 88q0 49 22.5 88.5t62 63T290 524t90.5-23.5 62-63T465 349q0-48-22.5-88t-62-64-90.5-24z"/><glyph glyph-name="ellipsis" unicode="…" horiz-adv-x="954" d="M480-10q-43 0-71 29.5T381 89q0 41 28 70t71 29 71-29 28-70q0-40-28-69.5T480-10zm274 0q-43 0-71 29.5T655 89q0 41 28 70t71 29 71-29 28-70q0-40-28-69.5T754-10zm-554 0q-43 0-71 29.5T101 89q0 41 28 70t71 29 71-29 28-70q0-40-28-69.5T200-10z"/><glyph glyph-name="perthousand" unicode="‰" horiz-adv-x="1278" d="M222 411q-59 0-98.5 25t-59 64T45 581t19.5 81 59 63.5T222 750t98-24.5 58.5-63.5 19.5-81-19.5-81-58.5-64-98-25zM156 0l432 740h141L297 0H156zm65 514q32 0 47.5 20.5T284 580t-15.5 45.5T221 646q-31 0-47-20.5T158 580t16-45.5 47-20.5zm836-524q-59 0-98.5 25t-59 63.5T880 160q0 42 19.5 81t59 63.5T1057 329t98-24.5 58.5-63.5 19.5-81q0-43-19.5-81.5T1155 15t-98-25zm-393 0q-59 0-98.5 25t-59 63.5T487 160q0 42 19.5 81t59 63.5T664 329t98-24.5 58.5-63.5 19.5-81q0-43-19.5-81.5T762 15t-98-25zm392 103q32 0 47.5 20.5T1119 159t-15.5 45.5T1056 225q-31 0-47-20.5T993 159t16-45.5 47-20.5zm-393 0q32 0 47.5 20.5T726 159t-15.5 45.5T663 225q-31 0-47-20.5T600 159t16-45.5T663 93z"/><glyph glyph-name="guilsinglleft" unicode="‹" horiz-adv-x="475" d="M440 530L229 306 440 80H246L30 305l216 225h194z"/><glyph glyph-name="guilsinglright" unicode="›" horiz-adv-x="475" d="M35 80l211 224L35 530h194l216-225L229 80H35z"/><glyph glyph-name="fraction" unicode="⁄" horiz-adv-x="595" d="M30 0l419 700h126L155 0H30z"/><glyph glyph-name="uni2070" unicode="⁰" horiz-adv-x="493" d="M246 395q-68 0-116.5 31.5t-74 84T30 627q0 65 25.5 118t74 84.5T246 861q67 0 115.5-31t75-84T463 627q0-65-26.5-117.5t-75-83.5T246 395zm0 124q31 0 49.5 28.5T314 627q0 54-18.5 82T246 737q-30 0-48.5-28.5T179 627q0-51 18.5-79.5T246 519z"/><glyph glyph-name="uni2074" unicode="⁴" horiz-adv-x="502" d="M257 405v83l-213 1v99l167 272h180V592h71V488h-71v-83H257zm-87 187h87v143z"/><glyph glyph-name="uni2075" unicode="⁵" horiz-adv-x="483" d="M245 396q-58 0-94 15.5T95.5 450t-28 45.5-10 37.5-1.5 14h137l3.5-8.5 14.5-17 32-8.5q26 0 38.5 14t12.5 30q0 17-12.5 31T243 602q-19 0-28.5-9l-9.5-9H59l32 276h316V741H194l-8-69 5-1q0 1 10.5 9t30 16.5T280 705q50 0 84-21t51.5-54 17.5-70q0-39-20.5-77t-62-62.5T245 396z"/><glyph glyph-name="uni2076" unicode="⁶" horiz-adv-x="489" d="M252 393q-68 0-113 29.5t-67 77T50 600q0 47 17 93t50.5 84 84.5 61 120 23q23 0 41.5-2l18.5-2V738l-20 2-40 2q-30 0-59.5-9t-51-30.5T185 645q9 16 33 35.5t75 19.5q48 0 80.5-20t49-52.5T439 559q0-40-20.5-78.5t-62-63T252 393zm-2 111q26 0 39.5 15.5T303 553t-13 33-40 15q-26 0-39-15t-13-33 13.5-33.5T250 504z"/><glyph glyph-name="uni2077" unicode="⁷" horiz-adv-x="410" d="M94 405q4 64 20.5 118t39 96.5 45.5 73 39 47.5H23v119h367v-97l-15-15.5-37-45.5-44.5-73.5-39-99.5L235 405H94z"/><glyph glyph-name="uni2078" unicode="⁸" horiz-adv-x="478" d="M238 395q-43 0-86.5 12.5t-73 41T49 524q0 30 12.5 50t29 32 29 16.5L132 627v8l-11 4-25.5 15-26 30.5L58 733q0 43 26.5 71t68 42.5T238 861t85.5-14.5 68-42.5 26.5-71q0-29-11.5-48.5t-26-30.5-25.5-15l-11-4v-8l12.5-4.5 29-16.5 29-32 12.5-50q0-47-29.5-75.5t-73-41T238 395zm0 284q22 0 33 12.5t11 26.5q0 15-11 27t-33 12-32.5-12-10.5-27q0-14 10.5-26.5T238 679zm0-181q25 0 37 13t12 29-12 29-37 13q-24 0-36.5-13T189 540t12.5-29 36.5-13z"/><glyph glyph-name="uni2079" unicode="⁹" horiz-adv-x="489" d="M237 868q69 0 113.5-29.5t66.5-77T439 661q0-47-17-93t-50.5-84-84.5-61-120-23q-23 0-41.5 2l-18.5 2v119l20.5-2 39.5-2q30 0 59.5 9t51 30.5T304 616q-9-16-33-35.5T196 561q-48 0-80.5 20.5t-49 52.5T50 702q0 41 20.5 79t62.5 62.5T237 868zm2-111q-26 0-39.5-15.5T186 708t13-33 40-15q26 0 39 15t13 33-13 33.5-39 15.5z"/><glyph glyph-name="uni2080" unicode="₀" horiz-adv-x="493" d="M246-220q-68 0-116.5 31.5t-74 84T30 12q0 65 25.5 118t74 84.5T246 246q67 0 115.5-31t75-84T463 12q0-65-26.5-117.5t-75-83.5T246-220zm0 124q31 0 49.5 28.5T314 12q0 54-18.5 82T246 122q-30 0-48.5-28.5T179 12q0-51 18.5-79.5T246-96z"/><glyph glyph-name="uni2081" unicode="₁" horiz-adv-x="351" d="M271 245v-455H137V84H44v80l13 4q46 14 74.5 29t56.5 43l5 5h78z"/><glyph glyph-name="uni2082" unicode="₂" horiz-adv-x="472" d="M43-210v100l114 82q30 21 55.5 39T254 47t16 38-13.5 30-32.5 10-33.5-12T176 74H40q0 59 26.5 97t69.5 56.5 92 18.5q54 0 96.5-19.5t66.5-53T415 98q0-55-44.5-100T242-91h175v-119H43z"/><glyph glyph-name="uni2083" unicode="₃" horiz-adv-x="490" d="M246-220q-58 0-94.5 15.5T95-166t-29 46.5-10.5 39L54-65h134l2.5-10.5 13.5-21 38-10.5q29 0 40.5 13T294-68q0 16-13 24t-32 8h-63v98h60q24 0 35 10t11 24q0 16-12 26t-35 10q-24 0-34-10t-12-20.5L197 91H67l1.5 15.5L78 145l27.5 46 54.5 38.5 90 15.5q49 0 90.5-15t66.5-44 25-71q0-34-15-55.5t-33.5-32T355 15V9q32-8 58-31t26-66q0-41-25.5-70.5t-69-45.5-98.5-16z"/><glyph glyph-name="uni2084" unicode="₄" horiz-adv-x="492" d="M247-210v83l-213 1v99l167 272h180V-23h71v-104h-71v-83H247zM160-23h87v143z"/><glyph glyph-name="uni2085" unicode="₅" horiz-adv-x="487" d="M249-219q-58 0-94 15.5T99.5-165t-28 45.5-10 37.5T60-68h137l3.5-8.5 14.5-17 32-8.5q26 0 38.5 14T298-58q0 17-12.5 31T247-13q-19 0-28.5-9l-9.5-9H63l32 276h316V126H198l-8-69 5-1q0 1 10.5 9t30 16.5T284 90q50 0 84-21t51.5-54T437-55q0-39-20.5-77t-62-62.5T249-219z"/><glyph glyph-name="uni2086" unicode="₆" horiz-adv-x="489" d="M252-222q-68 0-113 29.5t-67 77T50-15q0 47 17 93t50.5 84 84.5 61 120 23q23 0 41.5-2l18.5-2V123l-20 2-40 2q-30 0-59.5-9t-51-30.5T185 30q9 16 33 35.5T293 85q48 0 80.5-20t49-52.5T439-56q0-40-20.5-78.5t-62-63T252-222zm-2 111q26 0 39.5 15.5T303-62t-13 33-40 15q-26 0-39-15t-13-33 13.5-33.5T250-111z"/><glyph glyph-name="uni2087" unicode="₇" horiz-adv-x="410" d="M94-210q4 64 20.5 118t39 96.5 45.5 73 39 47.5H23v119h367v-97l-15-15.5L338 86l-44.5-73.5-39-99.5L235-210H94z"/><glyph glyph-name="uni2088" unicode="₈" horiz-adv-x="478" d="M238-220q-43 0-86.5 12.5t-73 41T49-91q0 30 12.5 50t29 32 29 16.5L132 12v8l-11 4-25.5 15-26 30.5L58 118q0 43 26.5 71t68 42.5T238 246t85.5-14.5 68-42.5 26.5-71q0-29-11.5-48.5t-26-30.5T355 24l-11-4v-8l12.5-4.5 29-16.5 29-32L427-91q0-47-29.5-75.5t-73-41T238-220zm0 284q22 0 33 12.5t11 26.5q0 15-11 27t-33 12-32.5-12-10.5-27q0-14 10.5-26.5T238 64zm0-181q25 0 37 13t12 29-12 29-37 13q-24 0-36.5-13T189-75t12.5-29 36.5-13z"/><glyph glyph-name="uni2089" unicode="₉" horiz-adv-x="489" d="M237 248q69 0 113.5-29.5t66.5-77T439 41q0-47-17-93t-50.5-84-84.5-61-120-23q-23 0-41.5 2l-18.5 2v119l20.5-2 39.5-2q30 0 59.5 9t51 30.5T304-4q-9-16-33-35.5T196-59q-48 0-80.5 20t-49 52.5T50 82q0 41 20.5 79t62.5 62.5T237 248zm2-111q-26 0-39.5-15.5T186 88t13-33 40-15q26 0 39 15t13 33-13 33.5-39 15.5z"/><glyph glyph-name="dong" unicode="₫" horiz-adv-x="667" d="M257 140q-61 0-101.5 29.5t-61 76.5T74 343q0 51 20.5 97.5t61 76.5T257 547q42 0 67.5-13.5t37-26.5 10.5-12h7v77h-97v88h97v40h158v-40h61v-88h-61V145H379v47h-7q1 1-10.5-12t-37-26.5T257 140zm52 125q38 0 57 25t19 53q0 30-19 55t-57 25q-37 0-56-25t-19-55q0-28 19-53t56-25zM69 0v75h530V0H69z"/><glyph glyph-name="Euro" unicode="€" horiz-adv-x="661" d="M20 270v80h72v39H20v80h84q18 76 65.5 140t126 102.5T485 750q34 0 67.5-4t56-8l22.5-4V569l-21 4-51.5 8-60.5 4q-74 0-121-33.5T308 469h230v-80H288q-1-9-1-19t1-20h250v-80H308q22-49 69-82t121-33q30 0 60.5 4t51.5 8l21 4V6l-22.5-4-56-8-67.5-4q-111 0-189 38.5t-126 102T104 270H20z"/><glyph glyph-name="trademark" unicode="™" horiz-adv-x="874" d="M407 390v350h157l47-130 52 130h151V390H698v182l-41-112h-94l-41 114V390H407zm-268 0v250H35v100h324V640H256V390H139z"/><glyph glyph-name="oneeighth" unicode="⅛" horiz-adv-x="823" d="M159 0l419 700h126L284 0H159zm36 699V351H81v216H10v70l9 2q35 9 59.5 22.5T125 696l3 3h67zM742-4q-34 0-68.5 10t-57 31.5T594 95q0 26 9.5 42t22.5 25 22.5 12.5l9.5 3.5v3l-14.5 6-28.5 22-14 47q0 34 20.5 56t53 33 67.5 11 67.5-11 53.5-32.5 21-54.5q0-32-15-48.5T839 187l-15-6v-3l10-3.5 22.5-12.5 22.5-25 10-42q0-36-22.5-57.5T810.5 6 742-4zm0 220q18 0 27 10.5t9 23.5q0 12-9 22t-27 10-26.5-10.5T707 248q0-11 8.5-21.5T742 216zm0-143q20 0 29.5 11.5T781 109t-9.5 24.5T742 145q-19 0-29-11t-10-25q0-13 10-24.5T742 73z"/><glyph glyph-name="threeeighths" unicode="⅜" horiz-adv-x="844" d="M175 348q-44 0-72 12t-43 29-21.5 34.5T31 453l-1 12h104l2-7.5 10.5-15L175 435q21 0 29.5 9.5T213 464q0 9-7 17.5t-29 8.5h-36v76h36q19 0 27.5 9t8.5 19-8.5 18.5T176 621q-18 0-26-7t-10-14l-2-7H37l2.5 17.5 14.5 40 40.5 40L175 708q40 0 72.5-12t52.5-35 20-55q0-23-10.5-40t-24-26-23.5-11v-4q10-2 24.5-8.5t26-21T324 454q0-46-40.5-76T175 348zM234 0l419 700h126L359 0H234zm583-4q-34 0-68.5 10t-57 31.5T669 95q0 26 9.5 42t22.5 25 22.5 12.5l9.5 3.5v3l-14.5 6-28.5 22-14 47q0 34 20.5 56t53 33 67.5 11 67.5-11 53.5-32.5 21-54.5q0-32-15-48.5T914 187l-15-6v-3l10-3.5 22.5-12.5 22.5-25 10-42q0-36-22.5-57.5T885.5 6 817-4zm0 220q18 0 27 10.5t9 23.5q0 12-9 22t-27 10-26.5-10.5T782 248q0-11 8.5-21.5T817 216zm0-143q20 0 29.5 11.5T856 109t-9.5 24.5T817 145q-19 0-29-11t-10-25q0-13 10-24.5T817 73z"/><glyph glyph-name="fiveeighths" unicode="⅝" horiz-adv-x="895" d="M171 345q-44 0-71 12t-41.5 30T38 422.5 31 452t-1 11h103l2.5-8 10.5-16 26-8q20 0 30 12.5t10 26.5q0 15-9.5 27.5T174 510q-21 0-28-10.5l-7-10.5H32l25 214h238v-87H135l-7-60h2q0-1 6.5 6.5t22.5 15 44 7.5q56 0 85-34.5t29-77.5q0-31-15.5-60.5t-48-48.5-82.5-19zM256 0l419 700h126L381 0H256zm583-4q-34 0-68.5 10t-57 31.5T691 95q0 26 9.5 42t22.5 25 22.5 12.5l9.5 3.5v3l-14.5 6-28.5 22-14 47q0 34 20.5 56t53 33 67.5 11 67.5-11 53.5-32.5 21-54.5q0-32-15-48.5T936 187l-15-6v-3l10-3.5 22.5-12.5 22.5-25 10-42q0-36-22.5-57.5T907.5 6 839-4zm0 220q18 0 27 10.5t9 23.5q0 12-9 22t-27 10-26.5-10.5T804 248q0-11 8.5-21.5T839 216zm0-143q20 0 29.5 11.5T878 109t-9.5 24.5T839 145q-19 0-29-11t-10-25q0-13 10-24.5T839 73z"/><glyph glyph-name="seveneighths" unicode="⅞" horiz-adv-x="716" d="M58 350q4 67 23 118.5t42.5 86.5 39.5 53H-1v92h281v-74l-16-18-38-52.5-39.5-86L166 350H58zM148 0l419 700h126L273 0H148zm583-4q-34 0-68.5 10t-57 31.5T583 95q0 26 9.5 42t22.5 25 22.5 12.5l9.5 3.5v3l-14.5 6-28.5 22-14 47q0 34 20.5 56t53 33 67.5 11 67.5-11 53.5-32.5 21-54.5q0-32-15-48.5T828 187l-15-6v-3l10-3.5 22.5-12.5 22.5-25 10-42q0-36-22.5-57.5T799.5 6 731-4zm0 220q18 0 27 10.5t9 23.5q0 12-9 22t-27 10-26.5-10.5T696 248q0-11 8.5-21.5T731 216zm0-143q20 0 29.5 11.5T770 109t-9.5 24.5T731 145q-19 0-29-11t-10-25q0-13 10-24.5T731 73z"/><glyph glyph-name="minus" unicode="−" horiz-adv-x="678" d="M115 231v161h448V231H115z"/><glyph glyph-name="uni2215" unicode="∕" horiz-adv-x="564" d="M8 0l349 740h177L185 0H8z"/><glyph glyph-name="approxequal" unicode="≈" horiz-adv-x="615" d="M386 388q-29 0-50.5 9t-38 20.5T267 438t-28 9q-16 0-22-14t-6-39h-96q0 35 8.5 71.5t33.5 62 72 25.5q39 0 65-14.5t45.5-29.5 37.5-15q27 0 27 53h96q0-35-8.5-72t-33-62-72.5-25zm0-232q-29 0-50.5 9t-38 20.5T267 206t-28 9q-16 0-22-14t-6-39h-96q0 35 8.5 71.5t33.5 62 72 25.5q39 0 65-14.5t45.5-29.5 37.5-15q27 0 27 53h96q0-35-8.5-72t-33-62-72.5-25z"/><glyph glyph-name="notequal" unicode="≠" horiz-adv-x="770" d="M142 0l68 123h-95v153h180l43 78H115v153h308l68 123h137l-68-123h95V354H475l-43-78h223V123H347L279 0H142z"/><glyph glyph-name="lessequal" unicode="≤" horiz-adv-x="593" d="M519 148L74 307v109l445 159V438l-258-75 258-78V148zM70 0v98h453V0H70z"/><glyph glyph-name="greaterequal" unicode="≥" horiz-adv-x="593" d="M74 148v137l258 78-258 75v137l445-159V307zM70 0v98h453V0H70z"/><glyph glyph-name="i.loclTRK" horiz-adv-x="320" d="M160 583q-47 0-77.5 30.5T52 686q0 44 30.5 74t77.5 30 78-30 31-74q0-42-31-72.5T160 583zM65 0v530h190V0H65z"/><glyph glyph-name="a.ss01" horiz-adv-x="589" d="M356 60q-11-16-28.5-32t-46-27T210-10q-79 0-127 40.5T35 142q0 78 59 119t159 51l110 11v21q0 30-18 45t-47 15q-32 0-46.5-13t-18-26l-3.5-13H54l3 19 15 47 38.5 56 73 47L303 540q69 0 116-18t76-46.5 41.5-62T549 348V0H363v60h-7zM217 160q0-22 17.5-34.5T280 113q35 0 59 22.5t24 65.5v15l-87-9q-59-6-59-47z"/><glyph glyph-name="aacute.ss01" horiz-adv-x="589" d="M371 599l-133 1 77 179h170zM356 60q-11-16-28.5-32t-46-27T210-10q-79 0-127 40.5T35 142q0 78 59 119t159 51l110 11v21q0 30-18 45t-47 15q-32 0-46.5-13t-18-26l-3.5-13H54l3 19 15 47 38.5 56 73 47L303 540q69 0 116-18t76-46.5 41.5-62T549 348V0H363v60h-7zM217 160q0-22 17.5-34.5T280 113q35 0 59 22.5t24 65.5v15l-87-9q-59-6-59-47z"/><glyph glyph-name="abreve.ss01" horiz-adv-x="589" d="M303 592q-60 0-97.5 19T148 657.5t-28 55-9.5 46.5l-1.5 19h119l1.5-12 8.5-28.5 22-28.5 43-12 43.5 12 22 28.5 8 28.5 1.5 12h119l-1.5-19-9.5-46.5-28-55-57.5-46.5-97.5-19zm53-532q-11-16-28.5-32t-46-27T210-10q-79 0-127 40.5T35 142q0 78 59 119t159 51l110 11v21q0 30-18 45t-47 15q-32 0-46.5-13t-18-26l-3.5-13H54l3 19 15 47 38.5 56 73 47L303 540q69 0 116-18t76-46.5 41.5-62T549 348V0H363v60h-7zM217 160q0-22 17.5-34.5T280 113q35 0 59 22.5t24 65.5v15l-87-9q-59-6-59-47z"/><glyph glyph-name="uni1EAF.ss01" horiz-adv-x="589" d="M371 792l-133 1 77 179h170zm-68-200q-60 0-97.5 17T148 650.5t-28 49-9.5 41.5l-1.5 17h119l1.5-9.5L238 726l22-22.5 43-9.5 43.5 9.5 22 22.5 8 22.5 1.5 9.5h119l-1.5-17-9.5-41.5-28-49-57.5-41.5-97.5-17zm53-532q-11-16-28.5-32t-46-27T210-10q-79 0-127 40.5T35 142q0 78 59 119t159 51l110 11v21q0 30-18 45t-47 15q-32 0-46.5-13t-18-26l-3.5-13H54l3 19 15 47 38.5 56 73 47L303 540q69 0 116-18t76-46.5 41.5-62T549 348V0H363v60h-7zM217 160q0-22 17.5-34.5T280 113q35 0 59 22.5t24 65.5v15l-87-9q-59-6-59-47z"/><glyph glyph-name="uni1EB7.ss01" horiz-adv-x="589" d="M303 592q-60 0-97.5 19T148 657.5t-28 55-9.5 46.5l-1.5 19h119l1.5-12 8.5-28.5 22-28.5 43-12 43.5 12 22 28.5 8 28.5 1.5 12h119l-1.5-19-9.5-46.5-28-55-57.5-46.5-97.5-19zm53-532q-11-16-28.5-32t-46-27T210-10q-79 0-127 40.5T35 142q0 78 59 119t159 51l110 11v21q0 30-18 45t-47 15q-32 0-46.5-13t-18-26l-3.5-13H54l3 19 15 47 38.5 56 73 47L303 540q69 0 116-18t76-46.5 41.5-62T549 348V0H363v60h-7zM217 160q0-22 17.5-34.5T280 113q35 0 59 22.5t24 65.5v15l-87-9q-59-6-59-47zm75-420q-40 0-64.5 26.5T203-171q0 37 24.5 63T292-82q38 0 63.5-26t25.5-63q0-36-25.5-62.5T292-260z"/><glyph glyph-name="uni1EB1.ss01" horiz-adv-x="589" d="M238 792L124 972h170l77-179zm65-200q-60 0-97.5 17T148 650.5t-28 49-9.5 41.5l-1.5 17h119l1.5-9.5L238 726l22-22.5 43-9.5 43.5 9.5 22 22.5 8 22.5 1.5 9.5h119l-1.5-17-9.5-41.5-28-49-57.5-41.5-97.5-17zm53-532q-11-16-28.5-32t-46-27T210-10q-79 0-127 40.5T35 142q0 78 59 119t159 51l110 11v21q0 30-18 45t-47 15q-32 0-46.5-13t-18-26l-3.5-13H54l3 19 15 47 38.5 56 73 47L303 540q69 0 116-18t76-46.5 41.5-62T549 348V0H363v60h-7zM217 160q0-22 17.5-34.5T280 113q35 0 59 22.5t24 65.5v15l-87-9q-59-6-59-47z"/><glyph glyph-name="uni1EB3.ss01" horiz-adv-x="589" d="M253 778v33q0 15 6.5 27.5T281 858l16 8q19 10 30 19.5t11 25.5q0 12-9 20.5t-23 8.5q-17 0-24.5-9t-9-18.5L271 903H170q-1 28 12 57t43 49 79 20q66 0 104-34t38-80q0-40-26.5-64.5T360 808l-5-3v-27H253zm50-186q-60 0-97.5 17T148 650.5t-28 49-9.5 41.5l-1.5 17h119l1.5-9.5L238 726l22-22.5 43-9.5 43.5 9.5 22 22.5 8 22.5 1.5 9.5h119l-1.5-17-9.5-41.5-28-49-57.5-41.5-97.5-17zm53-532q-11-16-28.5-32t-46-27T210-10q-79 0-127 40.5T35 142q0 78 59 119t159 51l110 11v21q0 30-18 45t-47 15q-32 0-46.5-13t-18-26l-3.5-13H54l3 19 15 47 38.5 56 73 47L303 540q69 0 116-18t76-46.5 41.5-62T549 348V0H363v60h-7zM217 160q0-22 17.5-34.5T280 113q35 0 59 22.5t24 65.5v15l-87-9q-59-6-59-47z"/><glyph glyph-name="uni1EB5.ss01" horiz-adv-x="589" d="M381 805q-27 0-47 9t-35.5 20.5T270 855t-27 9q-15 0-20.5-13.5T217 811h-93q0 35 8 71.5t31.5 62T232 970q37 0 61.5-14.5T336 926t35-15q14 0 19.5 14t5.5 39h93q0-34-8-71t-31-62.5-69-25.5zm-78-213q-60 0-97.5 17T148 650.5t-28 49-9.5 41.5l-1.5 17h119l1.5-9.5L238 726l22-22.5 43-9.5 43.5 9.5 22 22.5 8 22.5 1.5 9.5h119l-1.5-17-9.5-41.5-28-49-57.5-41.5-97.5-17zm53-532q-11-16-28.5-32t-46-27T210-10q-79 0-127 40.5T35 142q0 78 59 119t159 51l110 11v21q0 30-18 45t-47 15q-32 0-46.5-13t-18-26l-3.5-13H54l3 19 15 47 38.5 56 73 47L303 540q69 0 116-18t76-46.5 41.5-62T549 348V0H363v60h-7zM217 160q0-22 17.5-34.5T280 113q35 0 59 22.5t24 65.5v15l-87-9q-59-6-59-47z"/><glyph glyph-name="acircumflex.ss01" horiz-adv-x="589" d="M95 589l135 189h147l135-189H371l-67 102-68-102H95zM356 60q-11-16-28.5-32t-46-27T210-10q-79 0-127 40.5T35 142q0 78 59 119t159 51l110 11v21q0 30-18 45t-47 15q-32 0-46.5-13t-18-26l-3.5-13H54l3 19 15 47 38.5 56 73 47L303 540q69 0 116-18t76-46.5 41.5-62T549 348V0H363v60h-7zM217 160q0-22 17.5-34.5T280 113q35 0 59 22.5t24 65.5v15l-87-9q-59-6-59-47z"/><glyph glyph-name="uni1EA5.ss01" horiz-adv-x="589" d="M574 719l-133 1 77 179h170zM94 589l135 159h147l135-159H370l-67 81-68-81H94zM356 60q-11-16-28.5-32t-46-27T210-10q-79 0-127 40.5T35 142q0 78 59 119t159 51l110 11v21q0 30-18 45t-47 15q-32 0-46.5-13t-18-26l-3.5-13H54l3 19 15 47 38.5 56 73 47L303 540q69 0 116-18t76-46.5 41.5-62T549 348V0H363v60h-7zM217 160q0-22 17.5-34.5T280 113q35 0 59 22.5t24 65.5v15l-87-9q-59-6-59-47z"/><glyph glyph-name="uni1EAD.ss01" horiz-adv-x="589" d="M95 589l135 189h147l135-189H371l-67 102-68-102H95zM356 60q-11-16-28.5-32t-46-27T210-10q-79 0-127 40.5T35 142q0 78 59 119t159 51l110 11v21q0 30-18 45t-47 15q-32 0-46.5-13t-18-26l-3.5-13H54l3 19 15 47 38.5 56 73 47L303 540q69 0 116-18t76-46.5 41.5-62T549 348V0H363v60h-7zM217 160q0-22 17.5-34.5T280 113q35 0 59 22.5t24 65.5v15l-87-9q-59-6-59-47zm75-420q-40 0-64.5 26.5T203-171q0 37 24.5 63T292-82q38 0 63.5-26t25.5-63q0-36-25.5-62.5T292-260z"/><glyph glyph-name="uni1EA7.ss01" horiz-adv-x="589" d="M462 719L348 899h170l77-179zM95 589l135 159h147l135-159H371l-67 81-68-81H95zM356 60q-11-16-28.5-32t-46-27T210-10q-79 0-127 40.5T35 142q0 78 59 119t159 51l110 11v21q0 30-18 45t-47 15q-32 0-46.5-13t-18-26l-3.5-13H54l3 19 15 47 38.5 56 73 47L303 540q69 0 116-18t76-46.5 41.5-62T549 348V0H363v60h-7zM217 160q0-22 17.5-34.5T280 113q35 0 59 22.5t24 65.5v15l-87-9q-59-6-59-47z"/><glyph glyph-name="uni1EA9.ss01" horiz-adv-x="589" d="M471 697v33q0 15 6.5 27.5T499 777l16 8q19 10 30 19.5t11 25.5q0 12-9 20.5t-23 8.5q-17 0-24.5-9t-9-18.5L489 822H388q-1 28 12 57t43 49 79 20q66 0 104-34t38-80q0-40-26.5-64.5T578 727l-5-3v-27H471zM89 589l135 159h147l135-159H365l-67 81-68-81H89zM356 60q-11-16-28.5-32t-46-27T210-10q-79 0-127 40.5T35 142q0 78 59 119t159 51l110 11v21q0 30-18 45t-47 15q-32 0-46.5-13t-18-26l-3.5-13H54l3 19 15 47 38.5 56 73 47L303 540q69 0 116-18t76-46.5 41.5-62T549 348V0H363v60h-7zM217 160q0-22 17.5-34.5T280 113q35 0 59 22.5t24 65.5v15l-87-9q-59-6-59-47z"/><glyph glyph-name="uni1EAB.ss01" horiz-adv-x="589" d="M377 782q-27 0-47 9t-35.5 20.5T266 832t-27 9q-15 0-20.5-13.5T213 788h-93q0 35 8 71.5t31.5 62T228 947q37 0 61.5-14.5T332 903t35-15q14 0 19.5 14t5.5 39h93q0-34-8-71t-31-62.5-69-25.5zM94 589l135 159h147l135-159H370l-67 81-68-81H94zM356 60q-11-16-28.5-32t-46-27T210-10q-79 0-127 40.5T35 142q0 78 59 119t159 51l110 11v21q0 30-18 45t-47 15q-32 0-46.5-13t-18-26l-3.5-13H54l3 19 15 47 38.5 56 73 47L303 540q69 0 116-18t76-46.5 41.5-62T549 348V0H363v60h-7zM217 160q0-22 17.5-34.5T280 113q35 0 59 22.5t24 65.5v15l-87-9q-59-6-59-47z"/><glyph glyph-name="adieresis.ss01" horiz-adv-x="589" d="M428 578q-45 0-73.5 28.5T326 675q0 41 28.5 69.5T428 773q44 0 73-28.5t29-69.5q0-40-29-68.5T428 578zm-251 0q-45 0-73.5 28.5T75 675q0 41 28.5 69.5T177 773q44 0 73-28.5t29-69.5q0-40-29-68.5T177 578zM356 60q-11-16-28.5-32t-46-27T210-10q-79 0-127 40.5T35 142q0 78 59 119t159 51l110 11v21q0 30-18 45t-47 15q-32 0-46.5-13t-18-26l-3.5-13H54l3 19 15 47 38.5 56 73 47L303 540q69 0 116-18t76-46.5 41.5-62T549 348V0H363v60h-7zM217 160q0-22 17.5-34.5T280 113q35 0 59 22.5t24 65.5v15l-87-9q-59-6-59-47z"/><glyph glyph-name="uni1EA1.ss01" horiz-adv-x="589" d="M356 60q-11-16-28.5-32t-46-27T210-10q-79 0-127 40.5T35 142q0 78 59 119t159 51l110 11v21q0 30-18 45t-47 15q-32 0-46.5-13t-18-26l-3.5-13H54l3 19 15 47 38.5 56 73 47L303 540q69 0 116-18t76-46.5 41.5-62T549 348V0H363v60h-7zM217 160q0-22 17.5-34.5T280 113q35 0 59 22.5t24 65.5v15l-87-9q-59-6-59-47zm75-420q-40 0-64.5 26.5T203-171q0 37 24.5 63T292-82q38 0 63.5-26t25.5-63q0-36-25.5-62.5T292-260z"/><glyph glyph-name="agrave.ss01" horiz-adv-x="589" d="M238 599L124 779h170l77-179zM356 60q-11-16-28.5-32t-46-27T210-10q-79 0-127 40.5T35 142q0 78 59 119t159 51l110 11v21q0 30-18 45t-47 15q-32 0-46.5-13t-18-26l-3.5-13H54l3 19 15 47 38.5 56 73 47L303 540q69 0 116-18t76-46.5 41.5-62T549 348V0H363v60h-7zM217 160q0-22 17.5-34.5T280 113q35 0 59 22.5t24 65.5v15l-87-9q-59-6-59-47z"/><glyph glyph-name="uni1EA3.ss01" horiz-adv-x="589" d="M253 585v33q0 15 6.5 27.5T281 665l16 8q19 10 30 19.5t11 25.5q0 12-9 20.5t-23 8.5q-17 0-24.5-9t-9-18.5L271 710H170q-1 28 12 57t43 49 79 20q66 0 104-34t38-80q0-40-26.5-64.5T360 615l-5-3v-27H253zM356 60q-11-16-28.5-32t-46-27T210-10q-79 0-127 40.5T35 142q0 78 59 119t159 51l110 11v21q0 30-18 45t-47 15q-32 0-46.5-13t-18-26l-3.5-13H54l3 19 15 47 38.5 56 73 47L303 540q69 0 116-18t76-46.5 41.5-62T549 348V0H363v60h-7zM217 160q0-22 17.5-34.5T280 113q35 0 59 22.5t24 65.5v15l-87-9q-59-6-59-47z"/><glyph glyph-name="amacron.ss01" horiz-adv-x="589" d="M133 608v102h340V608H133zM356 60q-11-16-28.5-32t-46-27T210-10q-79 0-127 40.5T35 142q0 78 59 119t159 51l110 11v21q0 30-18 45t-47 15q-32 0-46.5-13t-18-26l-3.5-13H54l3 19 15 47 38.5 56 73 47L303 540q69 0 116-18t76-46.5 41.5-62T549 348V0H363v60h-7zM217 160q0-22 17.5-34.5T280 113q35 0 59 22.5t24 65.5v15l-87-9q-59-6-59-47z"/><glyph glyph-name="aogonek.ss01" horiz-adv-x="589" d="M523-194q-82 0-118 32t-36 75q0 31 15 52.5T418 0h-55v60h-7q-11-16-28.5-32t-46-27T210-10q-79 0-127 40.5T35 142q0 78 59 119t159 51l110 11v21q0 30-18 45t-47 15q-32 0-46.5-13t-18-26l-3.5-13H54l3 19 15 47 38.5 56 73 47L303 540q69 0 116-18t76-46.5 41.5-62T549 348V0l-12-6.5L512.5-25 500-55q0-13 12-24t40-11q12 0 22 1.5l10 1.5v-102l-17.5-2.5L523-194zM217 160q0-22 17.5-34.5T280 113q35 0 59 22.5t24 65.5v15l-87-9q-59-6-59-47z"/><glyph glyph-name="aring.ss01" horiz-adv-x="589" d="M303 578q-39 0-71 19t-51 51-19 71 19 70.5 51 50.5 71 19 71-19 51-50.5 19-70.5-19-71-51-51-71-19zm0 90q21 0 36 14.5t15 36.5q0 21-15 35.5T303 769t-36-14.5-15-35.5q0-22 15-36.5t36-14.5zm53-608q-11-16-28.5-32t-46-27T210-10q-79 0-127 40.5T35 142q0 78 59 119t159 51l110 11v21q0 30-18 45t-47 15q-32 0-46.5-13t-18-26l-3.5-13H54l3 19 15 47 38.5 56 73 47L303 540q69 0 116-18t76-46.5 41.5-62T549 348V0H363v60h-7zM217 160q0-22 17.5-34.5T280 113q35 0 59 22.5t24 65.5v15l-87-9q-59-6-59-47z"/><glyph glyph-name="atilde.ss01" horiz-adv-x="589" d="M381 612q-27 0-47 9t-35.5 20.5T270 662t-27 9q-15 0-20.5-13.5T217 618h-93q0 35 8 71.5t31.5 62T232 777q37 0 61.5-14.5T336 733t35-15q14 0 19.5 14t5.5 39h93q0-34-8-71t-31-62.5-69-25.5zM356 60q-11-16-28.5-32t-46-27T210-10q-79 0-127 40.5T35 142q0 78 59 119t159 51l110 11v21q0 30-18 45t-47 15q-32 0-46.5-13t-18-26l-3.5-13H54l3 19 15 47 38.5 56 73 47L303 540q69 0 116-18t76-46.5 41.5-62T549 348V0H363v60h-7zM217 160q0-22 17.5-34.5T280 113q35 0 59 22.5t24 65.5v15l-87-9q-59-6-59-47z"/><glyph glyph-name="zero.dnom" horiz-adv-x="399" d="M199-2q-53 0-91 24T50 86.5 30 176q0 51 20 92t58 65.5 91 24.5q54 0 92-24.5t58-65.5 20-92q0-49-20.5-89.5T290 22 199-2zm0 100q22 0 35.5 19t13.5 59q0 41-13.5 61T199 257q-20 0-33.5-19T152 176q0-41 13.5-59.5T199 98z"/><glyph glyph-name="one.dnom" horiz-adv-x="129" d="M195 349V1H81v216H10v70l9 2q35 9 59.5 22.5T125 346l3 3h67z"/><glyph glyph-name="two.dnom" horiz-adv-x="176" d="M-148 3v77l33 22q74 50 108.5 76T28 231q0 17-10 24t-22 7q-14 0-25-9.5T-40 221h-110q0 47 21 77.5t55 45T-1 358q63 0 104.5-33.5T145 238q0-41-29-75.5T21 94h125V3h-294z"/><glyph glyph-name="three.dnom" horiz-adv-x="204" d="M175-2q-44 0-72 12T60 39.5 38.5 74 31 103l-1 12h104l2-7.5 10.5-15L175 85q21 0 29.5 9.5T213 114q0 9-7 17.5t-29 8.5h-36v76h36q19 0 27.5 9t8.5 19-8.5 18.5T176 271q-18 0-26-7t-10-14l-2-7H37l2.5 17.5 14.5 40 40.5 40L175 358q40 0 72.5-12t52.5-35 20-55q0-23-10.5-40t-24-26-23.5-11v-4q10-2 24.5-8.5t26-21T324 104q0-46-40.5-76T175-2z"/><glyph glyph-name="four.dnom" horiz-adv-x="192" d="M4 3v64h-164v76l130 210h151V151h46V67h-46V3H4zm-60 148H4v98z"/><glyph glyph-name="five.dnom" horiz-adv-x="226" d="M171-5q-44 0-71 12T58.5 37 38 72.5 31 102t-1 11h103l2.5-8L146 89l26-8q20 0 30 12.5t10 26.5q0 15-9.5 27.5T174 160q-21 0-28-10.5l-7-10.5H32l25 214h238v-87H135l-7-60h2q0-1 6.5 6.5t22.5 15 44 7.5q56 0 85-34.5t29-77.5q0-31-15.5-60.5t-48-48.5T171-5z"/><glyph glyph-name="six.dnom" horiz-adv-x="359" d="M190-5q-53 0-88 23T50.5 77 34 153q0 49 23 94.5t70 75T245 352q19 0 33-1.5l14-1.5v-90l-15.5 1.5L244 262q-33 0-63.5-15.5T143 193q8 13 26.5 26.5T224 233q56 0 84-33.5t28-75.5q0-31-16-61t-48-49-82-19zm2 86q20 0 30 12t10 26q0 15-10 27t-30 12-30-12-10-27q0-14 10-26t30-12z"/><glyph glyph-name="seven.dnom" horiz-adv-x="118" d="M58 0q4 67 23 118.5t42.5 86.5 39.5 53H-1v92h281v-74l-16-18-38-52.5-39.5-86L166 0H58z"/><glyph glyph-name="eight.dnom" horiz-adv-x="195" d="M18-4Q-16-4-50.5 6t-57 31.5T-130 95q0 26 9.5 42t22.5 25 22.5 12.5l9.5 3.5v3l-14 6-28.5 22-14.5 47q0 34 20.5 56t53 33T18 356t67.5-11 53.5-32.5 21-54.5q0-32-15-48.5T115 187l-15-6v-3l10-3.5 22.5-12.5 22.5-25 10-42q0-36-22.5-57.5T86.5 6 18-4zm0 220q18 0 27 10.5t9 23.5q0 12-9 22t-27 10-26.5-10.5T-17 248q0-11 8.5-21.5T18 216zm0-143q20 0 29.5 11.5T57 109t-9.5 24.5T18 145q-19 0-29-11t-10-25q0-13 10-24.5T18 73z"/><glyph glyph-name="nine.dnom" horiz-adv-x="359" d="M169 352q54 0 88.5-23t51-59 16.5-76q0-48-23-94t-69.5-75.5T114-5Q95-5 81-3.5L67-2v90l15.5-1.5L115 85q33 0 63.5 15.5T216 154q-8-13-26.5-26.5T135 114q-55 0-83.5 33.5T23 223q0 32 16 61.5T87.5 333t81.5 19zm-2-86q-20 0-30-12t-10-26q0-15 10-27t30-12 30 12 10 27q0 14-10 26t-30 12z"/><glyph glyph-name="zero.numr" horiz-adv-x="399" d="M199 348q-53 0-91 24t-58 64.5T30 526q0 51 20 92t58 65.5 91 24.5q54 0 92-24.5t58-65.5 20-92q0-49-20.5-89.5T290 372t-91-24zm0 100q22 0 35.5 19t13.5 59q0 41-13.5 61T199 607q-20 0-33.5-19T152 526q0-41 13.5-59.5T199 448z"/><glyph glyph-name="one.numr" horiz-adv-x="129" d="M195 699V351H81v216H10v70l9 2q35 9 59.5 22.5T125 696l3 3h67z"/><glyph glyph-name="two.numr" horiz-adv-x="176" d="M-148 353v77l33 22q74 50 108.5 76T28 581q0 17-10 24t-22 7q-14 0-25-9.5T-40 571h-110q0 47 21 77.5t55 45T-1 708q63 0 104.5-33.5T145 588q0-41-29-75.5T21 444h125v-91h-294z"/><glyph glyph-name="three.numr" horiz-adv-x="204" d="M175 348q-44 0-72 12t-43 29-21.5 34.5T31 453l-1 12h104l2-7.5 10.5-15L175 435q21 0 29.5 9.5T213 464q0 9-7 17.5t-29 8.5h-36v76h36q19 0 27.5 9t8.5 19-8.5 18.5T176 621q-18 0-26-7t-10-14l-2-7H37l2.5 17.5 14.5 40 40.5 40L175 708q40 0 72.5-12t52.5-35 20-55q0-23-10.5-40t-24-26-23.5-11v-4q10-2 24.5-8.5t26-21T324 454q0-46-40.5-76T175 348z"/><glyph glyph-name="four.numr" horiz-adv-x="192" d="M4 353v64h-164v76l130 210h151V501h46v-84h-46v-64H4zm-60 148H4v98z"/><glyph glyph-name="five.numr" horiz-adv-x="226" d="M171 345q-44 0-71 12t-41.5 30T38 422.5 31 452t-1 11h103l2.5-8 10.5-16 26-8q20 0 30 12.5t10 26.5q0 15-9.5 27.5T174 510q-21 0-28-10.5l-7-10.5H32l25 214h238v-87H135l-7-60h2q0-1 6.5 6.5t22.5 15 44 7.5q56 0 85-34.5t29-77.5q0-31-15.5-60.5t-48-48.5-82.5-19z"/><glyph glyph-name="six.numr" horiz-adv-x="359" d="M190 345q-53 0-88 23t-51.5 59T34 503q0 49 23 94.5t70 75T245 702q19 0 33-1.5l14-1.5v-90l-15.5 1.5L244 612q-33 0-63.5-15.5T143 543q8 13 26.5 26.5T224 583q56 0 84-33.5t28-75.5q0-31-16-61t-48-49-82-19zm2 86q20 0 30 12t10 26q0 15-10 27t-30 12-30-12-10-27q0-14 10-26t30-12z"/><glyph glyph-name="seven.numr" horiz-adv-x="118" d="M58 350q4 67 23 118.5t42.5 86.5 39.5 53H-1v92h281v-74l-16-18-38-52.5-39.5-86L166 350H58z"/><glyph glyph-name="eight.numr" horiz-adv-x="195" d="M18 346q-34 0-68.5 9.5t-57 31.5-22.5 58q0 26 9.5 42t22.5 25 22.5 12.5l9.5 3.5v3l-14 6-28.5 22-14.5 47q0 34 20.5 56t53 33T18 706t67.5-11 53.5-32.5 21-54.5q0-32-15-48.5T115 537l-15-6v-3l10-3.5 22.5-12.5 22.5-25 10-42q0-36-22.5-58t-56-31.5T18 346zm0 220q18 0 27 10.5t9 23.5q0 12-9 22t-27 10-26.5-10.5T-17 598q0-11 8.5-21.5T18 566zm0-143q20 0 29.5 11.5T57 459t-9.5 24.5T18 495q-19 0-29-11t-10-25q0-13 10-24.5T18 423z"/><glyph glyph-name="nine.numr" horiz-adv-x="359" d="M169 702q54 0 88.5-23t51-59 16.5-76q0-48-23-94t-69.5-75.5T114 345q-19 0-33 1.5L67 348v90l15.5-1.5L115 435q33 0 63.5 15.5T216 504q-8-13-26.5-26.5T135 464q-55 0-83.5 33.5T23 573q0 32 16 61.5T87.5 683t81.5 19zm-2-86q-20 0-30-12t-10-26q0-15 10-27t30-12 30 12 10 27q0 14-10 26t-30 12z"/><glyph glyph-name="colon.case" horiz-adv-x="368" d="M184 436q-43 0-71 29.5T85 535q0 41 28 70t71 29 71-29 28-70q0-40-28-69.5T184 436zm0-352q-43 0-71 29.5T85 183q0 41 28 70t71 29 71-29 28-70q0-40-28-69.5T184 84z"/><glyph glyph-name="parenleft.case" horiz-adv-x="487" d="M456-184q-96 9-170.5 55.5T159-8 80.5 158 54 350t26.5 192T159 708t126.5 120.5T456 884V713q-51-7-89.5-40t-64-84T264 476.5 251 350q0-64 13-126t38.5-113 64-84T456-13v-171z"/><glyph glyph-name="parenright.case" horiz-adv-x="487" d="M31 884q96-9 170.5-55.5T328 708t78.5-166T433 350t-26.5-192T328-8 201.5-128.5 31-184v171q51 7 89.5 40t64 84T223 224t13 126q0 65-13 126.5T184.5 589t-64 84T31 713v171z"/><glyph glyph-name="braceleft.case" horiz-adv-x="516" d="M366-191q-112 0-171 59T136 39v172q0 60-60 60H30v160h46q60 0 60 60v172q0 112 59 171t171 59h110V732h-85q-60 0-60-60V491q0-59-18-89.5T241 355v-8q54-16 72-47.5t18-88.5V30q0-60 60-60h85v-161H366z"/><glyph glyph-name="braceright.case" horiz-adv-x="516" d="M150 893q112 0 171-59t59-171V491q0-60 60-60h46V271h-46q-60 0-60-60V39q0-112-59-171t-171-59H40v161h85q60 0 60 60v181q0 59 18 89.5t72 46.5v8q-54 17-72 48t-18 88v181q0 60-60 60H40v161h110z"/><glyph glyph-name="bracketleft.case" horiz-adv-x="574" d="M100-191V893h374V732H295V-30h179v-161H100z"/><glyph glyph-name="bracketright.case" horiz-adv-x="574" d="M474 893V-191H100v161h179v762H100v161h374z"/><glyph glyph-name="uni03060301" d="M243 792l-133 1 77 179h170zm-68-200q-60 0-97.5 17T20 650.5t-28 49-9.5 41.5l-1.5 17h119l1.5-9.5L110 726l22-22.5 43-9.5 43.5 9.5 22 22.5 8 22.5 1.5 9.5h119l-1.5-17-9.5-41.5-28-49-57.5-41.5-97.5-17z"/><glyph glyph-name="uni03060300" d="M110 792L-4 972h170l77-179zm65-200q-60 0-97.5 17T20 650.5t-28 49-9.5 41.5l-1.5 17h119l1.5-9.5L110 726l22-22.5 43-9.5 43.5 9.5 22 22.5 8 22.5 1.5 9.5h119l-1.5-17-9.5-41.5-28-49-57.5-41.5-97.5-17z"/><glyph glyph-name="uni03060309" d="M125 778v33q0 15 6.5 27.5T153 858l16 8q19 10 30 19.5t11 25.5q0 12-9 20.5t-23 8.5q-17 0-24.5-9t-9-18.5L143 903H42q-1 28 12 57t43 49 79 20q66 0 104-34t38-80q0-40-26.5-64.5T232 808l-5-3v-27H125zm50-186q-60 0-97.5 17T20 650.5t-28 49-9.5 41.5l-1.5 17h119l1.5-9.5L110 726l22-22.5 43-9.5 43.5 9.5 22 22.5 8 22.5 1.5 9.5h119l-1.5-17-9.5-41.5-28-49-57.5-41.5-97.5-17z"/><glyph glyph-name="uni03060303" d="M253 805q-27 0-47 9t-35.5 20.5T142 855t-27 9q-15 0-20.5-13.5T89 811H-4q0 35 8 71.5t31.5 62T104 970q37 0 61.5-14.5T208 926t35-15q14 0 19.5 14t5.5 39h93q0-34-8-71t-31-62.5-69-25.5zm-78-213q-60 0-97.5 17T20 650.5t-28 49-9.5 41.5l-1.5 17h119l1.5-9.5L110 726l22-22.5 43-9.5 43.5 9.5 22 22.5 8 22.5 1.5 9.5h119l-1.5-17-9.5-41.5-28-49-57.5-41.5-97.5-17z"/><glyph glyph-name="uni03020301" d="M514 719l-133 1 77 179h170zM34 589l135 159h147l135-159H310l-67 81-68-81H34z"/><glyph glyph-name="uni03020300" d="M401 719L287 899h170l77-179zM34 589l135 159h147l135-159H310l-67 81-68-81H34z"/><glyph glyph-name="uni03020309" d="M416 697v33q0 15 6.5 27.5T444 777l16 8q19 10 30 19.5t11 25.5q0 12-9 20.5t-23 8.5q-17 0-24.5-9t-9-18.5L434 822H333q-1 28 12 57t43 49 79 20q66 0 104-34t38-80q0-40-26.5-64.5T523 727l-5-3v-27H416zM34 589l135 159h147l135-159H310l-67 81-68-81H34z"/><glyph glyph-name="uni03020303" d="M317 782q-27 0-47 9t-35.5 20.5T206 832t-27 9q-15 0-20.5-13.5T153 788H60q0 35 8 71.5t31 62 69 25.5q37 0 61.5-14.5T272 903t35-15q14 0 19.5 14t5.5 39h93q0-34-8-71t-31-62.5-69-25.5zM34 589l135 159h147l135-159H310l-67 81-68-81H34z"/></font>
</defs>
</svg>
